<!-- Generated by IcoMoon.io -->
<svg version="1.1" xmlns="http://www.w3.org/2000/svg" width="32" height="32" viewBox="0 0 32 32">
<title>arrow-right</title>
<path d="M20.781 14.209l-5.267-5.267c-0.232-0.24-0.374-0.566-0.374-0.926 0-0.736 0.597-1.333 1.333-1.333 0.36 0 0.687 0.143 0.927 0.375l7.542 7.542c0.242 0.241 0.392 0.574 0.392 0.943s-0.15 0.702-0.392 0.943l-7.543 7.543c-0.243 0.251-0.583 0.407-0.959 0.407-0.736 0-1.333-0.597-1.333-1.333 0-0.376 0.156-0.716 0.407-0.959l5.267-5.267h-12.781c-0.736 0-1.333-0.597-1.333-1.333s0.597-1.333 1.333-1.333v0h12.781z"></path>
</svg>
