<!-- Generated by IcoMoon.io -->
<svg version="1.1" xmlns="http://www.w3.org/2000/svg" width="32" height="32" viewBox="0 0 32 32">
<title>behance</title>
<path d="M26.107 16.36c-0.053-0.827-0.333-1.453-0.827-1.88s-1.107-0.64-1.84-0.64c-0.773 0-1.44 0.227-1.853 0.68-0.44 0.453-0.72 1.067-0.827 1.84zM29.227 16.053c0.107 0.547 0.107 1.333 0.107 2.36h-8.667c0.067 1.2 0.467 2.027 1.253 2.507 0.467 0.307 1.040 0.453 1.72 0.453 0.707 0 1.28-0.187 1.693-0.547 0.267-0.2 0.48-0.467 0.667-0.827h3.173c-0.080 0.72-0.467 1.427-1.173 2.16-1.040 1.173-2.533 1.733-4.453 1.733-1.587 0-2.973-0.493-4.213-1.467-1.173-0.973-1.787-2.56-1.787-4.76 0-2.067 0.547-3.667 1.64-4.733 1.093-1.107 2.507-1.653 4.253-1.653 1.027 0 1.96 0.187 2.787 0.56s1.52 0.947 2.053 1.76c0.493 0.707 0.8 1.52 0.947 2.453zM12.773 18.76c0-0.867-0.36-1.467-1.053-1.787-0.387-0.173-0.947-0.267-1.667-0.307h-3.56v4.453h3.507c0.72 0 1.28-0.093 1.68-0.293 0.733-0.36 1.093-1.053 1.093-2.067zM6.493 13.947h3.507c0.72 0 1.333-0.133 1.76-0.413 0.453-0.267 0.667-0.76 0.667-1.453 0-0.747-0.293-1.28-0.88-1.533-0.52-0.173-1.173-0.253-1.96-0.253h-3.093zM15.627 16.56c0.427 0.667 0.64 1.48 0.64 2.427 0 1.013-0.267 1.867-0.733 2.653-0.32 0.52-0.707 0.947-1.173 1.307-0.533 0.387-1.16 0.68-1.88 0.827s-1.493 0.227-2.333 0.227h-7.48v-16.6h8c2.040 0.040 3.467 0.6 4.307 1.773 0.507 0.707 0.76 1.547 0.76 2.533 0 1.013-0.253 1.827-0.76 2.44-0.307 0.347-0.707 0.667-1.267 0.947 0.84 0.307 1.48 0.8 1.92 1.467zM26.747 9.76h-6.68v-1.667h6.68v1.667z"></path>
</svg>
