<!-- Generated by IcoMoon.io -->
<svg version="1.1" xmlns="http://www.w3.org/2000/svg" width="32" height="32" viewBox="0 0 32 32">
<title>check</title>
<path d="M13.981 22.307c-0.001 0-0.002 0-0.003 0-0.367 0-0.699-0.149-0.94-0.389l-5.656-5.657c-0.252-0.243-0.408-0.583-0.408-0.96 0-0.736 0.597-1.333 1.333-1.333 0.376 0 0.716 0.156 0.958 0.406l4.714 4.714 8.487-8.484c0.241-0.242 0.575-0.391 0.943-0.391 0.737 0 1.334 0.597 1.334 1.334 0 0.368-0.149 0.701-0.39 0.943l-9.429 9.429c-0.241 0.241-0.573 0.389-0.94 0.389-0.001 0-0.002 0-0.003 0h0z"></path>
</svg>
