<!-- Generated by IcoMoon.io -->
<svg version="1.1" xmlns="http://www.w3.org/2000/svg" width="32" height="32" viewBox="0 0 32 32">
<title>chevrons-down</title>
<path d="M16.095 13.752l6.6-6.6c0.243-0.251 0.583-0.407 0.959-0.407 0.736 0 1.333 0.597 1.333 1.333 0 0.376-0.156 0.716-0.407 0.959l-7.543 7.543c-0.241 0.241-0.575 0.39-0.943 0.39s-0.701-0.149-0.943-0.39l-7.543-7.543c-0.251-0.243-0.407-0.583-0.407-0.959 0-0.736 0.597-1.333 1.333-1.333 0.376 0 0.716 0.156 0.959 0.407l6.6 6.6zM16.095 21.752l6.6-6.6c0.243-0.251 0.583-0.407 0.959-0.407 0.736 0 1.333 0.597 1.333 1.333 0 0.376-0.156 0.716-0.407 0.959l-7.543 7.543c-0.241 0.241-0.575 0.39-0.943 0.39s-0.701-0.149-0.943-0.39l-7.543-7.543c-0.251-0.243-0.407-0.583-0.407-0.959 0-0.736 0.597-1.333 1.333-1.333 0.376 0 0.716 0.156 0.959 0.407l6.6 6.6z"></path>
</svg>
