<!-- Generated by IcoMoon.io -->
<svg version="1.1" xmlns="http://www.w3.org/2000/svg" width="32" height="32" viewBox="0 0 32 32">
<title>disqus</title>
<path d="M16.487 28.333c-0.012 0-0.025 0-0.039 0-3.15 0-6.039-1.12-8.289-2.983l0.022 0.017-5.513 0.721 2.127-5.073c-0.729-1.51-1.155-3.283-1.155-5.156 0-0.009 0-0.019 0-0.028v0.001c0-6.905 5.755-12.5 12.847-12.5 7.101 0 12.848 5.595 12.848 12.5s-5.747 12.5-12.847 12.5zM16.568 9.167h-4.735v13.333h4.668c4.417 0 6.999-2.859 6.999-6.703v-0.037c0-3.843-2.548-6.595-6.932-6.595z"></path>
<path d="M20.005 15.841c0 2.16-1.351 3.379-3.387 3.379h-1.384v-6.783h1.384c2.036 0 3.387 1.236 3.387 3.369v0.035z"></path>
</svg>
