<!-- Generated by IcoMoon.io -->
<svg version="1.1" xmlns="http://www.w3.org/2000/svg" width="32" height="32" viewBox="0 0 32 32">
<title>envelope-f</title>
<path d="M27.429 6.777l-10.528 9.383c-0.235 0.21-0.546 0.338-0.887 0.338s-0.653-0.128-0.889-0.339l0.001 0.001-10.572-9.377c0.233-0.074 0.5-0.116 0.778-0.116 0 0 0 0 0.001 0h21.333c0.001 0 0.002 0 0.002 0 0.271 0 0.533 0.040 0.779 0.116l-0.019-0.005zM29.237 8.624c0.063 0.227 0.096 0.464 0.096 0.709v13.333c0 1.473-1.194 2.667-2.667 2.667v0h-21.333c-1.473 0-2.667-1.194-2.667-2.667v0-13.333c0-0.247 0.033-0.485 0.096-0.712l10.589 9.531c0.704 0.629 1.638 1.014 2.661 1.014s1.958-0.385 2.665-1.017l-0.004 0.003 10.563-9.528z"></path>
</svg>
