<!-- Generated by IcoMoon.io -->
<svg version="1.1" xmlns="http://www.w3.org/2000/svg" width="32" height="32" viewBox="0 0 32 32">
<title>grid</title>
<path d="M5.333 2.667h5.333c1.473 0 2.667 1.194 2.667 2.667v0 5.333c0 1.473-1.194 2.667-2.667 2.667v0h-5.333c-1.473 0-2.667-1.194-2.667-2.667v0-5.333c0-1.473 1.194-2.667 2.667-2.667v0zM21.333 2.667h5.333c1.473 0 2.667 1.194 2.667 2.667v0 5.333c0 1.473-1.194 2.667-2.667 2.667v0h-5.333c-1.473 0-2.667-1.194-2.667-2.667v0-5.333c0-1.473 1.194-2.667 2.667-2.667v0zM21.333 18.667h5.333c1.473 0 2.667 1.194 2.667 2.667v0 5.333c0 1.473-1.194 2.667-2.667 2.667v0h-5.333c-1.473 0-2.667-1.194-2.667-2.667v0-5.333c0-1.473 1.194-2.667 2.667-2.667v0zM5.333 18.667h5.333c1.473 0 2.667 1.194 2.667 2.667v0 5.333c0 1.473-1.194 2.667-2.667 2.667v0h-5.333c-1.473 0-2.667-1.194-2.667-2.667v0-5.333c0-1.473 1.194-2.667 2.667-2.667v0z"></path>
</svg>
