<!-- Generated by IcoMoon.io -->
<svg version="1.1" xmlns="http://www.w3.org/2000/svg" width="32" height="32" viewBox="0 0 32 32">
<title>heart</title>
<path d="M15.057 7.4l0.943 0.944 0.943-0.943c1.208-1.219 2.883-1.973 4.735-1.973 3.682 0 6.667 2.985 6.667 6.667 0 1.851-0.755 3.526-1.973 4.734l-9.427 9.428c-0.241 0.242-0.575 0.391-0.943 0.391s-0.702-0.149-0.943-0.391v0l-9.428-9.428c-1.242-1.212-2.013-2.903-2.013-4.774 0-3.682 2.985-6.667 6.667-6.667 1.87 0 3.561 0.77 4.772 2.011l0.001 0.001z"></path>
</svg>
