<!-- Generated by IcoMoon.io -->
<svg version="1.1" xmlns="http://www.w3.org/2000/svg" width="32" height="32" viewBox="0 0 32 32">
<title>help</title>
<path d="M16 29.191c-7.364 0-13.333-5.969-13.333-13.333 0-7.363 5.969-13.333 13.333-13.333s13.333 5.971 13.333 13.333c0 7.364-5.969 13.333-13.333 13.333zM17.701 18.233l0.525-0.411c1.096-0.862 1.793-2.188 1.793-3.677 0-2.577-2.089-4.667-4.667-4.667-1.088 0-2.090 0.373-2.883 0.997l0.010-0.008-0.525 0.411c-0.322 0.246-0.528 0.63-0.528 1.063 0 0.736 0.597 1.333 1.333 1.333 0.318 0 0.61-0.111 0.839-0.297l-0.002 0.002 0.525-0.411c0.335-0.262 0.762-0.42 1.226-0.42 1.105 0 2 0.895 2 2 0 0.636-0.297 1.203-0.759 1.569l-0.004 0.003-0.525 0.411c-0.313 0.246-0.512 0.625-0.512 1.051 0 0.737 0.597 1.334 1.334 1.334 0.311 0 0.597-0.107 0.824-0.285l-0.003 0.002zM16 22.524c0.736 0 1.333-0.597 1.333-1.333s-0.597-1.333-1.333-1.333v0c-0.736 0-1.333 0.597-1.333 1.333s0.597 1.333 1.333 1.333v0z"></path>
</svg>
