<!-- Generated by IcoMoon.io -->
<svg version="1.1" xmlns="http://www.w3.org/2000/svg" width="32" height="32" viewBox="0 0 32 32">
<title>home</title>
<path d="M26.667 26.667v-14.491l-10.667-6.4-10.667 6.4v14.491h5.333v-3.667c0-2.946 2.388-5.333 5.333-5.333s5.333 2.388 5.333 5.333v0 3.667h5.333zM18.667 29.333v-6.333c0-1.473-1.194-2.667-2.667-2.667s-2.667 1.194-2.667 2.667v0 6.333h-8c-1.473 0-2.667-1.194-2.667-2.667v0-14.491c0 0 0-0 0-0 0-0.966 0.514-1.812 1.283-2.28l0.012-0.007 10.667-6.4c0.392-0.239 0.865-0.38 1.372-0.38s0.98 0.141 1.384 0.387l-0.012-0.007 10.667 6.4c0.781 0.475 1.295 1.321 1.295 2.287 0 0 0 0 0 0v0 14.491c0 1.473-1.194 2.667-2.667 2.667v0h-8z"></path>
</svg>
