<!-- Generated by IcoMoon.io -->
<svg version="1.1" xmlns="http://www.w3.org/2000/svg" width="32" height="32" viewBox="0 0 32 32">
<title>instagram</title>
<path d="M10.4 2.667h11.2c4.267 0 7.733 3.467 7.733 7.733v11.2c0 4.267-3.467 7.733-7.733 7.733h-11.2c-4.267 0-7.733-3.467-7.733-7.733v-11.2c0-4.267 3.467-7.733 7.733-7.733zM10.133 5.333c-2.653 0-4.8 2.147-4.8 4.8v11.733c0 2.653 2.147 4.8 4.8 4.8h11.733c2.653 0 4.8-2.147 4.8-4.8v-11.733c0-2.653-2.147-4.8-4.8-4.8h-11.733zM23 7.333c0.92 0 1.667 0.747 1.667 1.667s-0.747 1.667-1.667 1.667c-0.92 0-1.667-0.747-1.667-1.667s0.747-1.667 1.667-1.667zM16 9.333c3.68 0 6.667 2.987 6.667 6.667s-2.987 6.667-6.667 6.667c-3.68 0-6.667-2.987-6.667-6.667s2.987-6.667 6.667-6.667zM16 12c-2.213 0-4 1.787-4 4s1.787 4 4 4c2.213 0 4-1.787 4-4s-1.787-4-4-4z"></path>
</svg>
