<!-- Generated by IcoMoon.io -->
<svg version="1.1" xmlns="http://www.w3.org/2000/svg" width="32" height="32" viewBox="0 0 32 32">
<title>play-circle</title>
<path d="M16 29.333c-7.364 0-13.333-5.969-13.333-13.333s5.969-13.333 13.333-13.333 13.333 5.969 13.333 13.333-5.969 13.333-13.333 13.333zM16 26.667c5.891 0 10.667-4.776 10.667-10.667s-4.776-10.667-10.667-10.667v0c-5.891 0-10.667 4.776-10.667 10.667s4.776 10.667 10.667 10.667v0zM21.501 18.328l-5.407 3.864c-1.207 0.861-2.84 0.519-3.649-0.768-0.279-0.441-0.445-0.978-0.445-1.554 0-0.002 0-0.004 0-0.006v0-7.728c0-1.547 1.177-2.803 2.629-2.803 0.521 0 1.032 0.165 1.465 0.475l5.407 3.864c1.207 0.863 1.528 2.603 0.72 3.889-0.192 0.304-0.432 0.558-0.712 0.761l-0.008 0.005zM14.629 12.136v7.728l5.407-3.864-5.407-3.864z"></path>
</svg>
