<!-- Generated by IcoMoon.io -->
<svg version="1.1" xmlns="http://www.w3.org/2000/svg" width="32" height="32" viewBox="0 0 32 32">
<title>play</title>
<path d="M23.76 16.697c0.128-0.198 0.204-0.44 0.204-0.699 0-0.473-0.252-0.887-0.63-1.115l-0.006-0.003-13.229-8.043c-0.203-0.125-0.449-0.199-0.712-0.199-0.001 0-0.001 0-0.002 0h0c-0.747 0-1.351 0.591-1.351 1.32v16.081c0 0.247 0.071 0.488 0.204 0.697 0.395 0.619 1.227 0.808 1.86 0.423l13.229-8.041c0.175-0.107 0.324-0.252 0.433-0.423zM24.755 19.36l-13.228 8.041c-1.9 1.156-4.4 0.587-5.581-1.268-0.384-0.592-0.612-1.316-0.612-2.093v-16.080c0-2.188 1.813-3.96 4.053-3.96 0.756 0 1.497 0.207 2.14 0.597l13.228 8.043c1.9 1.155 2.483 3.595 1.3 5.451-0.328 0.515-0.773 0.949-1.3 1.269z"></path>
</svg>
