<!-- Generated by IcoMoon.io -->
<svg version="1.1" xmlns="http://www.w3.org/2000/svg" width="32" height="32" viewBox="0 0 32 32">
<title>share-alt</title>
<path d="M24 10.667c1.473 0 2.667-1.194 2.667-2.667s-1.194-2.667-2.667-2.667v0c-1.473 0-2.667 1.194-2.667 2.667s1.194 2.667 2.667 2.667v0zM13.237 14.987c0.061 0.305 0.097 0.655 0.097 1.013 0 0.418-0.048 0.825-0.138 1.215l0.007-0.036 6.72 3.383c0.985-1.161 2.445-1.893 4.076-1.893 2.946 0 5.333 2.388 5.333 5.333s-2.388 5.333-5.333 5.333c-2.946 0-5.333-2.388-5.333-5.333 0-0.367 0.037-0.724 0.107-1.070l-0.006 0.034-6.787-3.416c-0.981 1.097-2.401 1.784-3.981 1.784-2.946 0-5.333-2.388-5.333-5.333s2.388-5.333 5.333-5.333c1.64 0 3.106 0.74 4.085 1.904l0.007 0.008 6.715-3.363c-0.089-0.365-0.141-0.785-0.141-1.216 0-2.946 2.388-5.333 5.333-5.333s5.333 2.388 5.333 5.333c0 2.946-2.388 5.333-5.333 5.333-1.566 0-2.974-0.675-3.95-1.75l-0.004-0.004-6.807 3.408zM8 18.667c1.473 0 2.667-1.194 2.667-2.667s-1.194-2.667-2.667-2.667v0c-1.473 0-2.667 1.194-2.667 2.667s1.194 2.667 2.667 2.667v0zM24 26.667c1.473 0 2.667-1.194 2.667-2.667s-1.194-2.667-2.667-2.667v0c-1.473 0-2.667 1.194-2.667 2.667s1.194 2.667 2.667 2.667v0z"></path>
</svg>
