<!-- Generated by IcoMoon.io -->
<svg version="1.1" xmlns="http://www.w3.org/2000/svg" width="32" height="32" viewBox="0 0 32 32">
<title>shopping-cart</title>
<path d="M13.333 26.667c-1.473 0-2.667-1.194-2.667-2.667s1.194-2.667 2.667-2.667v0c1.473 0 2.667 1.194 2.667 2.667s-1.194 2.667-2.667 2.667v0zM22.667 26.667c-1.473 0-2.667-1.194-2.667-2.667s1.194-2.667 2.667-2.667v0c1.473 0 2.667 1.194 2.667 2.667s-1.194 2.667-2.667 2.667v0zM5.283 7.897c-0.69-0.023-1.241-0.588-1.241-1.282s0.551-1.259 1.239-1.282l0.002-0h1.535c1.203 0 2.243 0.835 2.504 2.008l1.671 7.523c0.261 1.173 1.301 2.008 2.504 2.008h10.016l1.923-7.693h-12.46c-0.683-0.032-1.224-0.594-1.224-1.281s0.541-1.249 1.221-1.281l0.003-0h12.46c0 0 0 0 0.001 0 1.416 0 2.564 1.148 2.564 2.564 0 0.221-0.028 0.436-0.081 0.64l0.004-0.018-1.923 7.691c-0.288 1.125-1.292 1.943-2.488 1.943-0 0-0 0-0 0h-10.016c-0 0-0 0-0.001 0-2.438 0-4.479-1.701-4.999-3.982l-0.007-0.034-1.672-7.523h-1.535z"></path>
</svg>
