<!-- Generated by IcoMoon.io -->
<svg version="1.1" xmlns="http://www.w3.org/2000/svg" width="32" height="32" viewBox="0 0 32 32">
<title>switch-left</title>
<path d="M12 9.333c-3.682 0-6.667 2.985-6.667 6.667s2.985 6.667 6.667 6.667v0h8c3.682 0 6.667-2.985 6.667-6.667s-2.985-6.667-6.667-6.667v0h-8zM12 6.667h8c5.155 0 9.333 4.179 9.333 9.333s-4.179 9.333-9.333 9.333v0h-8c-5.155 0-9.333-4.179-9.333-9.333s4.179-9.333 9.333-9.333v0zM12 21.333c-2.946 0-5.333-2.388-5.333-5.333s2.388-5.333 5.333-5.333v0c2.946 0 5.333 2.388 5.333 5.333s-2.388 5.333-5.333 5.333v0zM12 18.667c1.473 0 2.667-1.194 2.667-2.667s-1.194-2.667-2.667-2.667v0c-1.473 0-2.667 1.194-2.667 2.667s1.194 2.667 2.667 2.667v0z"></path>
</svg>
