<!-- Generated by IcoMoon.io -->
<svg version="1.1" xmlns="http://www.w3.org/2000/svg" width="32" height="32" viewBox="0 0 32 32">
<title>whatsapp</title>
<path d="M15.355 2.683c-7.080 0.333-12.665 6.187-12.644 13.223 0.004 2.175 0.538 4.224 1.481 6.025l-0.034-0.072-1.411 6.801c-0.007 0.031-0.010 0.066-0.010 0.102 0 0.285 0.231 0.516 0.516 0.516 0.043 0 0.085-0.005 0.124-0.015l-0.004 0.001 6.712-1.579c1.665 0.841 3.626 1.346 5.702 1.376l0.010 0c7.236 0.111 13.268-5.593 13.493-12.773 0.243-7.7-6.156-13.975-13.936-13.607zM23.364 23.172c-1.877 1.87-4.466 3.027-7.326 3.027-0.012 0-0.024-0-0.036-0h0.002c-0.009 0-0.021 0-0.032 0-1.676 0-3.259-0.398-4.66-1.105l0.059 0.027-0.935-0.463-4.116 0.968 0.867-4.175-0.461-0.896c-0.713-1.353-1.131-2.957-1.131-4.658 0-0.011 0-0.022 0-0.033v0.002c0-2.76 1.083-5.356 3.048-7.307 1.889-1.871 4.49-3.027 7.36-3.028h0c2.781 0 5.395 1.075 7.36 3.027 1.883 1.856 3.049 4.435 3.049 7.286 0 0.007 0 0.014-0 0.022v-0.001c0 2.736-1.1 5.373-3.049 7.308z"></path>
<path d="M22.456 18.727l-2.575-0.733c-0.080-0.024-0.171-0.037-0.266-0.037-0.268 0-0.51 0.109-0.685 0.285l-0 0-0.629 0.637c-0.171 0.173-0.408 0.28-0.671 0.28-0.126 0-0.246-0.025-0.355-0.069l0.006 0.002c-1.217-0.489-3.78-2.751-4.435-3.883-0.077-0.132-0.123-0.291-0.123-0.461 0-0.217 0.074-0.416 0.199-0.573l-0.001 0.002 0.549-0.707c0.125-0.159 0.201-0.362 0.201-0.583 0-0.139-0.030-0.272-0.084-0.391l0.002 0.006-1.083-2.432c-0.155-0.338-0.49-0.568-0.879-0.568-0.237 0-0.455 0.086-0.622 0.228l0.001-0.001c-0.719 0.604-1.572 1.52-1.675 2.537-0.183 1.791 0.591 4.048 3.516 6.76 3.38 3.132 6.088 3.547 7.849 3.121 1-0.24 1.8-1.204 2.303-1.992 0.095-0.145 0.151-0.323 0.151-0.514 0-0.434-0.291-0.8-0.688-0.914l-0.007-0.002z"></path>
</svg>
