<?xml version="1.0" encoding="UTF-8"?>
<svg width="410px" height="410px" viewBox="0 0 410 410" version="1.1" xmlns="http://www.w3.org/2000/svg" xmlns:xlink="http://www.w3.org/1999/xlink">
    <!-- Generator: Sketch 53.2 (72643) - https://sketchapp.com -->
    <title>bootstrap</title>
    <desc>Created with Sketch.</desc>
    <g id="bootstrap" stroke="none" stroke-width="1" fill="none" fill-rule="evenodd">
        <g transform="translate(9.000000, 9.000000)" fill-rule="nonzero">
            <path d="M0,341.454969 C0,369.372719 22.6303438,392 50.5450313,392 L341.453438,392 C369.372719,392 392,369.369656 392,341.454969 L392,50.5465625 C392,22.6272812 369.369656,0 341.454969,0 L50.5465625,0 C22.6272812,0 0,22.6303438 0,50.5450313 L0,341.453438 L0,341.454969 Z" id="Path" fill="#563D7C"></path>
            <path d="M162.246353,173.928426 L162.246353,118.496419 L211.163213,118.496419 C215.823276,118.496419 220.314718,118.883265 224.640605,119.658484 C228.966492,120.432174 232.794181,121.814419 236.12214,123.806748 C239.448566,125.799077 242.11124,128.565097 244.108629,132.104806 C246.104485,135.646045 247.103946,140.182684 247.103946,145.713194 C247.103946,155.671781 244.108629,162.864348 238.117996,167.289368 C232.128896,171.715916 224.47505,173.928426 215.156458,173.928426 L162.246353,173.928426 L162.246353,173.928426 Z M110,78 L110,315 L225.140335,315 C235.789498,315 246.161203,313.6728 256.25545,311.016871 C266.349697,308.360942 275.334114,304.267723 283.210233,298.735684 C291.084819,293.203645 297.352909,286.066123 302.011439,277.326174 C306.671502,268.584697 309,258.239265 309,246.289877 C309,231.462852 305.394583,218.794819 298.185282,208.284252 C290.974449,197.772155 280.047828,190.414452 265.405421,186.209613 C276.054584,181.120994 284.097791,174.592026 289.533508,166.625768 C294.967693,158.65951 297.685552,148.702452 297.685552,136.751535 C297.685552,125.687458 295.855251,116.394 292.194649,108.869632 C288.534048,101.346794 283.375788,95.3162903 276.719869,90.7796516 C270.065484,86.2430129 262.078995,82.978529 252.760403,80.987729 C243.443344,78.9954 233.126824,78 221.812376,78 L110,78 Z M162.246353,274.503581 L162.246353,209.444787 L219.149702,209.444787 C230.46415,209.444787 239.560469,212.044142 246.43866,217.24591 C253.315318,222.446148 256.75518,231.131052 256.75518,243.302148 C256.75518,249.499316 255.700535,254.587935 253.592776,258.571065 C251.485017,262.554194 248.656789,265.708587 245.106557,268.031187 C241.557858,270.355316 237.452711,272.014316 232.794181,273.011245 C228.134119,274.005116 223.254849,274.503581 218.151774,274.503581 L162.246353,274.503581 L162.246353,274.503581 Z" id="Shape" fill="#FFFFFF"></path>
        </g>
    </g>
</svg>