<?xml version="1.0" encoding="UTF-8"?>
<svg width="410px" height="410px" viewBox="0 0 410 410" version="1.1" xmlns="http://www.w3.org/2000/svg" xmlns:xlink="http://www.w3.org/1999/xlink">
    <!-- Generator: Sketch 53.2 (72643) - https://sketchapp.com -->
    <title>chrome</title>
    <desc>Created with Sketch.</desc>
    <defs>
        <linearGradient x1="49.9996911%" y1="0.707287845%" x2="49.9996911%" y2="97.0083886%" id="linearGradient-1">
            <stop stop-color="#A2C0E6" offset="0%"></stop>
            <stop stop-color="#406CB1" offset="100%"></stop>
        </linearGradient>
    </defs>
    <g id="chrome" stroke="none" stroke-width="1" fill="none" fill-rule="evenodd">
        <g transform="translate(1.000000, 0.000000)" fill-rule="nonzero" id="Path">
            <path d="M203.447055,0.0365068493 C203.447055,0.0365068493 323.711849,-5.37680365 387.450936,115.48895 L193.220457,115.48895 C193.220457,115.48895 156.537626,114.282352 125.268105,158.787009 C116.249977,177.42984 106.63089,196.672694 117.452831,234.549954 C101.819475,208.097466 34.4690183,90.8365297 34.4690183,90.8365297 C34.4690183,90.8365297 81.9794064,4.84511416 203.447055,0.0365068493 Z" fill="#C6352E"></path>
            <path d="M381.190479,306.91121 C381.190479,306.91121 325.730959,413.757397 189.185046,408.506027 C206.02968,379.349224 286.323219,240.310548 286.323219,240.310548 C286.323219,240.310548 305.708356,209.149612 282.818562,159.816689 C271.182237,142.681872 259.332489,124.727055 221.113562,115.153836 C251.850457,114.848676 387.065274,115.173493 387.065274,115.173493 C387.065274,115.173493 437.770479,199.318037 381.190479,306.91121 Z" fill="#F4D911"></path>
            <path d="M26.5592009,307.722785 C26.5592009,307.722785 -38.2395205,206.257146 34.5907078,90.6399543 C51.4203653,119.807991 131.670845,258.871005 131.670845,258.871005 C131.670845,258.871005 148.959178,291.238539 203.131598,296.085525 C223.782306,294.579384 245.261438,293.294155 272.662169,264.98637 C257.554886,291.752443 189.657763,408.693242 189.657763,408.693242 C189.657763,408.693242 91.4365525,410.524201 26.5592009,307.722785 Z" fill="#81B354"></path>
            <path d="M189.185046,409.494521 L216.50621,295.487374 C216.50621,295.487374 246.546667,293.143447 271.717671,265.517123 C256.091804,293.004909 189.185046,409.494521 189.185046,409.494521 L189.185046,409.494521 Z" fill="#7BAA50"></path>
            <path d="M111.944977,206.023128 C111.944977,155.765365 152.682877,115.022785 202.94532,115.022785 C253.203082,115.022785 293.944726,155.764429 293.944726,206.023128 C293.944726,256.283699 253.204954,297.027215 202.94532,297.027215 C152.682877,297.027215 111.944977,256.284635 111.944977,206.023128 Z" fill="#FFFFFF"></path>
            <path d="M127.174886,206.023128 C127.174886,164.17879 161.096301,130.256438 202.94532,130.256438 C244.785913,130.256438 278.711073,164.17879 278.711073,206.023128 C278.711073,247.868402 244.785913,281.793562 202.94532,281.793562 C161.096301,281.794498 127.174886,247.86653 127.174886,206.023128 Z" fill="url(#linearGradient-1)"></path>
            <path d="M387.06621,115.173493 L274.566142,148.1579 C274.566142,148.1579 257.601689,123.2621 221.112626,115.153836 C252.729429,115.046187 387.06621,115.173493 387.06621,115.173493 Z" fill="#E7CE12"></path>
            <path d="M115.265228,230.458379 C99.4549543,203.078242 34.4727626,90.8337215 34.4727626,90.8337215 L117.810411,173.273676 C117.810411,173.273676 109.246279,190.890571 112.493516,216.052215 L115.265228,230.458379 Z" fill="#BC332C"></path>
        </g>
    </g>
</svg>