<?xml version="1.0" encoding="UTF-8"?>
<svg width="410px" height="410px" viewBox="0 0 410 410" version="1.1" xmlns="http://www.w3.org/2000/svg" xmlns:xlink="http://www.w3.org/1999/xlink">
    <!-- Generator: Sketch 53.2 (72643) - https://sketchapp.com -->
    <title>codeigniter</title>
    <desc>Created with Sketch.</desc>
    <g id="codeigniter" stroke="none" stroke-width="1" fill="none" fill-rule="evenodd">
        <g transform="translate(37.000000, 5.000000)" fill="#EE4323" fill-rule="nonzero" id="Shape">
            <path d="M17.2421053,378.034211 C10.3947368,378.034211 8.40394737,374.047368 8.40394737,368.073684 C8.40394737,366.082895 8.65394737,363.836842 8.96184211,361.471053 C10.4618421,351.140789 14.1236842,345.230263 22.9618421,345.230263 C28.9394737,345.230263 31.8539474,347.903947 31.8539474,352.759211 L31.8539474,355.126316 L37.7842105,355.126316 C37.85,355.126316 37.85,352.947368 37.85,352.451316 C37.85,345.356579 33.5539474,338.627632 22.9710526,338.627632 C8.59078947,338.627632 2.67763158,346.439474 0.498684211,361.753947 C0.186842105,363.809211 1.33226763e-15,365.727632 1.33226763e-15,367.775 C1.33226763e-15,376.801316 3.55131579,385.011842 16.2486842,385.011842 C25.8960526,385.011842 31.6263158,380.307895 34.9855263,374.518421 L29.3197368,370.702632 C25.6486842,376.493421 21.6618421,378.034211 17.2421053,378.034211 L17.2421053,378.034211 Z M56.15,349.523684 C44.6315789,349.523684 39.6552632,355.434211 37.975,367.197368 C37.7777252,368.558917 37.6722241,369.93219 37.6592105,371.307895 C37.6592105,378.9 41.2078947,384.942105 51.0407895,384.942105 C62.5592105,384.942105 67.6026316,378.777632 69.2828947,367.197368 C69.4697368,365.705263 69.5947368,364.335526 69.5947368,362.967105 C69.5973684,355.25 65.9263158,349.523684 56.15,349.523684 L56.15,349.523684 Z M60.9434211,367.201316 C59.6973684,375.731579 57.0236842,378.346053 51.9776316,378.346053 C47.9342105,378.346053 45.9434211,376.664474 45.9434211,371.622368 C45.9434211,370.376316 46.0697368,368.884211 46.3171053,367.201316 C47.5631579,358.736842 50.0526316,356.122368 55.1565789,356.122368 C59.2657895,356.122368 61.3171053,357.802632 61.3171053,362.906579 C61.3171053,364.151316 61.1907895,365.584211 60.9434211,367.201316 Z M98.5486842,339.246053 L96.6210526,350.673684 C96.4973684,351.667105 96.5605263,351.336842 96.9368421,352.271053 C95.1315789,350.902632 91.8921053,349.997368 89.7131579,349.997368 C79.3789474,349.997368 73.5921053,354.675 71.7263158,367.747368 C71.5084521,369.127291 71.4041549,370.52276 71.4144737,371.919737 C71.4144737,381.447368 77.0157895,384.998684 84.5460526,384.998684 C87.725,384.998684 90.8355263,385.064474 93.2605263,383.013158 L93.8802632,386.885526 L99.8578947,386.885526 L106.828947,339.246053 L98.5486842,339.246053 L98.5486842,339.246053 Z M92.6355263,376.538158 C89.8368421,378.214474 87.1,378.593421 85.4197368,378.593421 C80.875,378.593421 79.6302632,376.226316 79.6302632,372.431579 C79.6302632,370.998684 79.8171053,369.322368 80.0684211,367.511842 C81.4973684,357.615789 84.6736842,355.869737 88.7828947,355.869737 C91.4565789,355.869737 93.5092105,356.307895 95.4434211,357.368421 L92.6355263,376.538158 L92.6355263,376.538158 Z M125.007895,349.523684 C113.613158,349.523684 108.264474,354.935526 106.456579,367.197368 C106.267105,368.693421 106.142105,370.126316 106.142105,371.494737 C106.142105,379.898684 110.439474,384.942105 119.897368,384.942105 C127.243421,384.942105 132.726316,381.889474 135.65,376.286842 L129.361842,373.734211 C127.559211,376.471053 125.131579,378.339474 120.835526,378.339474 C116.230263,378.339474 114.361842,377.1 114.361842,372.990789 C114.361842,372.180263 114.425,371.002632 114.55,371.002632 L137.018421,371.002632 C137.334211,367.826316 137.702632,365.581579 137.702632,363.719737 C137.702632,357.498684 135.339474,349.522368 125.007895,349.522368 L125.007895,349.523684 Z M129.301316,364.653947 L115.606579,364.653947 C116.978947,361.477632 119.277632,356.561842 124.010526,356.561842 C127.681579,356.561842 129.489474,358.707895 129.489474,362.380263 C129.485526,363.002632 129.428947,364.653947 129.301316,364.653947 L129.301316,364.653947 Z M161.657895,348.773684 L162.403947,342.422368 L144.847368,342.422368 L144.103947,348.773684 L148.709211,348.773684 L143.732895,380.532895 L139.121053,380.532895 L138.378947,386.885526 L155.931579,386.885526 L156.681579,380.532895 L152.072368,380.532895 L157.05,348.773684 L161.657895,348.773684 Z M197.328947,358.301316 L199.572368,351.95 L193.534211,351.95 L189.180263,352.848684 C186.751316,351.296053 183.451316,350.130263 180.342105,350.130263 C171.436842,350.130263 163.846053,354.430263 163.846053,364.205263 C163.846053,366.947368 164.840789,369.160526 166.021053,370.656579 C164.157895,371.65 162.538158,373.314474 162.538158,375.559211 C162.538158,376.553947 162.909211,377.572368 163.659211,378.503947 C159.921053,380.748684 157.625,384.468421 157.625,388.822368 C157.625,397.230263 166.4,399.023684 173.122368,399.023684 C181.586842,399.023684 191.673684,397.089474 191.673684,386.319737 C191.673684,382.648684 189.371053,379.780263 182.710526,378.535526 L170.697368,376.290789 C169.328947,376.039474 169.017105,375.603947 169.017105,374.981579 C169.017105,374.047368 169.582895,373.552632 170.511842,373.552632 L171.322368,373.676316 C172.940789,374.048684 174.809211,374.238158 176.736842,374.238158 C185.392105,374.238158 193.109211,370.501316 193.109211,360.790789 C193.109211,359.419737 192.861842,358.492105 192.239474,356.996053 C193.296053,357.496053 194.668421,358.305263 195.223684,358.305263 L197.328947,358.305263 L197.328947,358.301316 L197.328947,358.301316 Z M180.214474,384.068421 C182.577632,384.506579 183.385526,385.376316 183.385526,386.932895 C183.385526,391.976316 177.969737,392.598684 174.05,392.598684 C168.073684,392.598684 165.834211,391.169737 165.834211,387.990789 C165.834211,385.188158 166.640789,383.884211 168.511842,381.889474 L180.214474,384.068421 Z M177.657895,367.763158 C174.047368,367.763158 172.055263,366.457895 172.055263,363.342105 C172.055263,358.736842 174.732895,356.059211 179.401316,356.059211 C183.136842,356.059211 184.943421,357.615789 184.943421,360.661842 C184.943421,365.269737 182.326316,367.763158 177.657895,367.763158 L177.657895,367.763158 Z M219.443421,349.523684 C215.956579,349.523684 212.847368,351.234211 208.985526,354.281579 L208.426316,351.95 L201.576316,351.95 L196.784211,386.884211 L205.063158,386.884211 L208.675,360.392105 C211.103947,358.898684 214.089474,356.730263 216.642105,356.730263 C219.752632,356.730263 220.876316,358.231579 220.876316,361.093421 C220.876316,361.778947 220.810526,363.809211 220.685526,364.555263 L217.639474,386.884211 L225.919737,386.884211 L228.965789,364.373684 C229.092105,363.321053 229.215789,361.585526 229.215789,360.592105 C229.219737,354.671053 226.414474,349.523684 219.443421,349.523684 L219.443421,349.523684 Z M244.943421,378.132895 L245.006579,377.277632 L248.614474,351.95 L234.856579,351.95 L233.989474,358.301316 L240.023684,358.301316 C239.525,358.301316 239.214474,358.857895 239.153947,359.359211 L236.663158,376.227632 C236.539474,377.039474 236.478947,378.728947 236.478947,379.409211 C236.478947,383.765789 238.842105,386.885526 243.694737,386.885526 L247.928947,386.885526 L248.863158,380.532895 L246.188158,380.532895 C245.251316,380.532895 244.943421,378.878947 244.943421,378.132895 L244.943421,378.132895 Z M250.294737,339.246053 L242.202632,339.246053 C241.703947,339.246053 241.703947,337.413158 241.643421,338.035526 L240.519737,346.985526 C240.455263,347.548684 240.455263,348.775 240.953947,348.775 L249.05,348.775 C249.548684,348.775 249.548684,346.598684 249.609211,346.032895 L250.732895,339.125 C250.796053,338.502632 250.796053,339.246053 250.294737,339.246053 Z M267.177632,378.344737 C265.126316,378.344737 264.128947,377.472368 264.128947,375.607895 L264.192105,375.480263 L266.806579,358.301316 L276.267105,358.301316 L279.128947,351.95 L267.676316,351.95 L269.603947,337.972368 L260.893421,340.757895 L259.334211,351.95 L254.293421,351.95 L253.423684,358.301316 L259.273684,358.301316 C258.714474,361.477632 258.152632,359.417105 258.092105,360.042105 L255.85,375.105263 C255.726316,375.792105 255.726316,376.289474 255.726316,376.909211 C255.726316,382.823684 260.082895,385.036842 265.317105,385.036842 C270.169737,385.036842 274.092105,383.619737 277.144737,381.063158 L273.282895,376.313158 C271.348684,377.493421 270.043421,378.344737 267.177632,378.344737 L267.177632,378.344737 Z M297.555263,349.523684 C286.164474,349.523684 280.811842,354.935526 279.005263,367.197368 C278.818421,368.693421 278.693421,370.126316 278.693421,371.494737 C278.693421,379.898684 282.988158,384.942105 292.448684,384.942105 C299.794737,384.942105 305.277632,381.889474 308.198684,376.286842 L301.913158,373.734211 C300.110526,376.471053 297.680263,378.339474 293.382895,378.339474 C288.780263,378.339474 286.909211,377.1 286.909211,372.990789 C286.909211,372.180263 286.976316,371.002632 287.101316,371.002632 L309.571053,371.002632 C309.881579,367.826316 310.255263,365.581579 310.255263,363.719737 C310.255263,357.498684 307.890789,349.522368 297.555263,349.522368 L297.555263,349.523684 Z M301.852632,364.653947 L288.157895,364.653947 C289.526316,361.477632 291.826316,356.561842 296.561842,356.561842 C300.232895,356.561842 302.040789,358.707895 302.040789,362.380263 C302.036842,363.002632 301.976316,364.653947 301.852632,364.653947 L301.852632,364.653947 Z M333.164474,349.522368 C330.176316,349.522368 327.375,351.235526 324.572368,353.906579 L324.075,351.95 L317.230263,351.95 L312.435526,386.884211 L320.777632,386.884211 L324.448684,359.831579 C326.628947,358.527632 329.118421,357.413158 331.484211,357.413158 C332.980263,357.413158 334.409211,357.175 335.777632,357.360526 L336.842105,350.143421 C335.590789,349.894737 334.346053,349.523684 333.164474,349.523684 L333.164474,349.522368 Z M121.763158,314.223684 C102.921053,306.078947 85.2894737,285.378947 85.2473684,264.198684 C85.1960526,241.106579 99.8302632,221.501316 118.031579,208.617105 C115.843421,216.884211 114.65,224.446053 120.071053,231.840789 C125.110526,238.715789 133.936842,242.056579 142.271053,240.243421 C161.744737,235.980263 162.638158,214.572368 151.093421,202.1 C139.678947,189.748684 128.636842,175.797368 132.981579,157.885526 C135.156579,148.906579 140.669737,140.496053 147.653947,134.484211 C142.285526,148.592105 157.540789,162.505263 167.592105,169.435526 C185.027632,181.459211 204.157895,190.546053 220.189474,204.640789 C237.052632,219.453947 249.505263,239.482895 246.990789,262.713158 C244.265789,287.892105 224.257895,305.403947 201.815789,314.244737 C249.239474,303.777632 298.240789,266.971053 299.244737,214.376316 C300.076316,171.106579 270.393421,137.806579 233.623684,118.742105 L231.702632,117.693421 C232.711842,120.142105 233.042105,122.225 233.003947,124.089474 C233.332895,122.714474 233.556579,121.301316 233.619737,119.843421 C233.610798,121.575399 233.384467,123.299404 232.946053,124.975 L233.003947,124.089474 C232.457958,126.386695 231.538253,128.578606 230.281579,130.577632 L230.821053,129.997368 C223.485526,142.164474 203.626316,144.806579 193.815789,132.207895 C178.044737,111.942105 194.146053,90.0921053 196.398684,68.6315789 C199.218421,41.7355263 182.351316,15.625 161.438158,0 C172.956579,18.6328947 157.781579,43.2842105 145.640789,57.0657895 C133.868421,70.425 119.551316,81.5789474 106.555263,93.7171053 C92.5947368,106.753947 79.1736842,120.486842 67.6986842,135.788158 C44.7486842,166.414474 30.6986842,204.932895 41.0236842,243.140789 C51.3421053,281.322368 84.4157895,305.627632 121.764474,314.222368 L121.763158,314.223684 Z"></path>
        </g>
    </g>
</svg>