<?xml version="1.0" encoding="UTF-8"?>
<svg width="410px" height="410px" viewBox="0 0 410 410" version="1.1" xmlns="http://www.w3.org/2000/svg" xmlns:xlink="http://www.w3.org/1999/xlink">
    <!-- Generator: Sketch 53.2 (72643) - https://sketchapp.com -->
    <title>nginx</title>
    <desc>Created with Sketch.</desc>
    <g id="nginx" stroke="none" stroke-width="1" fill="none" fill-rule="evenodd">
        <g transform="translate(0.000000, 163.000000)" fill="#009900" fill-rule="nonzero" id="Shape">
            <path d="M76.8257706,84.8303508 C74.5095687,84.8303508 72.2302338,83.9393087 70.5263427,82.2507682 L17.8147179,30.1073678 L17.8147179,76.0206085 C17.8147179,80.8880446 13.8274846,84.8311435 8.90735895,84.8311435 C3.99043911,84.8311435 0,80.8872519 0,76.0206085 L0,8.83572069 C0,5.26917426 2.17354305,2.058569 5.50117976,0.695052692 C8.8289256,-0.671822023 12.6616538,0.0826345592 15.2067868,2.60556101 L67.9184116,54.7489614 L67.9184116,8.83572069 C67.9184116,3.96828457 71.9056449,0.0251856692 76.8257706,0.0251856692 C81.7466977,0.0251856692 85.7331296,3.96907731 85.7331296,8.83572069 L85.7331296,76.0206085 C85.7304765,80.8854452 81.7440698,84.8285193 76.8257706,84.8311435 M118.073398,0.110009067 L115.625758,4.62863869 L96.6962178,38.6570907 L94.2485775,42.9537526 L96.6962178,47.245658 L115.62656,80.1761623 L118.183999,84.6900354 L167.733087,84.6900354 L170.180727,79.7353977 L184.32158,51.5407343 L190.667492,38.7656964 L176.305438,38.7656964 L140.120595,38.8750948 C135.414457,38.8116754 131.085003,43.0298558 131.085003,47.6856298 C131.085003,52.3406111 135.414457,56.5627552 140.120595,56.4961648 L161.943384,56.3867664 L156.599289,67.0681727 L128.540387,67.0681727 L114.619933,42.8395977 L128.650987,17.7302864 L158.497132,17.7302864 L165.455355,31.8545713 L183.383879,31.8545713 L172.083379,5.06861052 L169.631731,0.110009067 L118.0742,0.110009067 M208.310699,0.000610665998 C203.643031,0.0568953508 199.453832,4.30757816 199.513941,8.92054409 L199.513941,31.8807318 L217.328659,31.8807318 L217.328659,8.92054409 C217.38476,4.23226767 213.045689,-0.0588449869 208.310699,0.000610665998 M236.864098,84.9999976 C231.946501,84.996935 227.961271,81.0536052 227.959945,76.1894626 L227.959945,9.00457475 C227.959945,4.13793137 231.947178,0.194832466 236.867304,0.194832466 C241.788231,0.194832466 245.774663,4.13793137 245.774663,9.00536749 L245.774663,54.9178154 L298.487891,2.77362232 C301.033667,0.251884179 304.865618,-0.502419475 308.193498,0.863114005 C311.521475,2.22801576 313.690919,5.44102075 313.69067,9.00457475 L313.69067,76.1894626 C313.69067,81.0553132 309.703437,84.9992048 304.783311,84.9992048 C299.862384,84.9992048 295.875952,81.0553132 295.875952,76.1886698 L295.875952,30.2770146 L243.162725,82.420415 C241.492572,84.0736289 239.226118,85.0017299 236.863297,84.9999976 M379.671166,42.5296356 L407.379833,15.2220506 C410.864555,11.7894775 410.874973,6.21015906 407.401472,2.7601457 C403.931177,-0.686696682 398.294551,-0.69383136 394.806624,2.73874167 L367.05548,30.0938912 L339.303535,2.73874167 C335.815607,-0.697002328 330.178982,-0.68590394 326.709488,2.7601457 C323.235185,6.21015906 323.245604,11.7894775 326.72712,15.2220506 L354.435786,42.5304283 L326.808868,69.7611174 C323.320941,73.1976541 323.313728,78.7730089 326.787229,82.2190585 C328.455483,83.8830982 330.72784,84.8172188 333.097076,84.8129105 C335.3708,84.8129105 337.643724,83.9567491 339.382077,82.2404625 L367.05548,54.9669654 L394.724875,82.2404625 C396.392213,83.8901878 398.654748,84.8157701 401.013083,84.8129105 C403.300432,84.8129105 405.58137,83.9496144 407.32293,82.2190585 C410.793225,78.7730089 410.786012,73.1976541 407.30129,69.7619101 L379.671166,42.5296356 M208.310699,84.7494911 C203.643031,84.6939992 199.453832,80.4433163 199.513941,75.8303504 L199.513941,38.9496125 L217.328659,38.9496125 L217.328659,75.8303504 C217.38476,80.5138704 213.045689,84.8057758 208.310699,84.7494911"></path>
        </g>
    </g>
</svg>