<?xml version="1.0" encoding="UTF-8"?>
<svg width="410px" height="410px" viewBox="0 0 410 410" version="1.1" xmlns="http://www.w3.org/2000/svg" xmlns:xlink="http://www.w3.org/1999/xlink">
    <!-- Generator: Sketch 53.2 (72643) - https://sketchapp.com -->
    <title>php</title>
    <desc>Created with Sketch.</desc>
    <g id="php" stroke="none" stroke-width="1" fill="none" fill-rule="evenodd">
        <g transform="translate(0.000000, 99.000000)" fill-rule="nonzero">
            <ellipse id="Oval" fill="#FFFFFF" cx="205" cy="106.5" rx="205" ry="106.5"></ellipse>
            <path d="M205,213 C91.7816263,213 0,165.318326 0,106.5 C0,47.6816741 91.7816263,1.70530257e-13 205,1.70530257e-13 C318.218374,1.70530257e-13 410,47.6816741 410,106.5 C410,165.318326 318.218374,213 205,213 Z M57.5681641,169.559253 L84.2469922,169.559253 L89.8636719,140.131495 L115.134727,140.131495 C139.006016,141.533273 165.683242,121.914768 165.683242,88.2832733 C165.683242,68.6631697 154.449883,57.4537371 131.984766,56.0519586 L80.0348828,56.0519586 L57.5681641,169.559253 Z M95.47875,119.11281 L102.5,77.0722422 L120.753008,77.0722422 C130.581797,77.0722422 137.601445,81.2759793 137.601445,89.6834534 C136.198477,113.507294 124.965117,117.711031 112.328789,119.11281 L95.4803516,119.11281 L95.47875,119.11281 Z M160.46375,140.131495 L187.142578,140.131495 L199.778906,77.0722422 L220.841055,77.0722422 C230.668242,77.0722422 230.668242,81.2759793 229.265273,88.2832733 L219.436484,140.131495 L247.518281,140.131495 L257.34707,82.6777578 C260.154609,68.6631697 251.730391,57.4537371 229.263672,56.0519586 L203.991016,56.0519586 L209.607695,26.6257992 L182.928867,26.6257992 L160.46375,140.131495 Z M245.719727,169.559253 L272.396953,169.559253 L278.013633,140.131495 L303.287891,140.131495 C327.157578,141.533273 353.836406,121.914768 353.836406,88.2832733 C353.836406,68.6631697 342.603047,57.4537371 320.136328,56.0519586 L268.184844,56.0519586 L245.719727,169.559253 Z M283.628711,119.11281 L290.649961,77.0722422 L308.90457,77.0722422 C318.733359,77.0722422 325.753008,81.2759793 325.753008,89.6834534 C324.350039,113.507294 313.11668,117.711031 300.480352,119.11281 L283.630313,119.11281 L283.628711,119.11281 Z" id="Combined-Shape" fill="#474A8A"></path>
        </g>
    </g>
</svg>