<?xml version="1.0" encoding="UTF-8"?>
<svg width="400px" height="400px" viewBox="0 0 400 400" version="1.1" xmlns="http://www.w3.org/2000/svg" xmlns:xlink="http://www.w3.org/1999/xlink">
    <!-- Generator: Sketch 53.2 (72643) - https://sketchapp.com -->
    <title>css3</title>
    <desc>Created with Sketch.</desc>
    <g id="css3" stroke="none" stroke-width="1" fill="none" fill-rule="evenodd">
        <g transform="translate(59.000000, 1.000000)" fill-rule="nonzero">
            <polygon id="Path" fill="#264DE4" points="140.827557 397.792969 25.6641998 365.80425 0 77.7929688 282 77.7929688 256.309271 365.760009"></polygon>
            <polygon id="Path" fill="#2965F1" points="234.097759 347.000396 256 101.792969 141 101.792969 141 372.792969 234.097759 347.000396"></polygon>
            <path d="M59.3206423,208.277545 L62.4655795,243.595731 L141,243.595731 L141,208.277545 L59.3206423,208.277545 Z M53,136.792969 L56.1899904,172.111155 L141,172.111155 L141,136.792969 L53,136.792969 L53,136.792969 Z M141,300.002869 L140.84616,300.043786 L101.76191,289.423005 L99.263102,261.255377 L64.0336526,261.255377 L68.9499519,316.71036 L140.838468,336.792969 L141,336.748734 L141,300.002869 Z" id="Shape" fill="#EBEBEB"></path>
            <path d="M66,0.79296875 L108.645762,0.79296875 L108.645762,18.5359356 L83.834484,18.5359356 L83.834484,36.2789024 L108.647967,36.2789024 L108.647967,54.0207724 L66,54.0207724 L66,0.79296875 Z M117.176017,0.79296875 L159.822881,0.79296875 L159.822881,16.2215402 L135.010501,16.2215402 L135.010501,19.3070351 L159.822881,19.3070351 L159.822881,54.7929687 L117.177119,54.7929687 L117.177119,38.5911041 L141.989499,38.5911041 L141.989499,35.5056092 L117.174914,35.5056092 L117.174914,0.79296875 L117.176017,0.79296875 Z M168.353136,0.79296875 L211,0.79296875 L211,16.2215402 L186.18762,16.2215402 L186.18762,19.3070351 L211,19.3070351 L211,54.7929687 L168.353136,54.7929687 L168.353136,38.5911041 L193.165516,38.5911041 L193.165516,35.5056092 L168.354238,35.5056092 L168.354238,0.79296875 L168.353136,0.79296875 Z" id="Shape" fill="#000000"></path>
            <polygon id="Path" fill="#FFFFFF" points="222.658738 208.283474 229 136.792969 141.0011 136.792969 141.0011 172.114085 190.501444 172.114085 187.304964 208.283474 141.0011 208.283474 141.0011 243.60459 184.259178 243.60459 180.180531 289.413546 141 300.046267 141 336.792969 213.017599 316.725284 213.54558 310.757512 221.80187 217.768206 222.658738 208.283474"></polygon>
        </g>
    </g>
</svg>