<?xml version="1.0" encoding="UTF-8"?>
<svg width="410px" height="410px" viewBox="0 0 410 410" version="1.1" xmlns="http://www.w3.org/2000/svg" xmlns:xlink="http://www.w3.org/1999/xlink">
    <!-- Generator: Sketch 53.2 (72643) - https://sketchapp.com -->
    <title>javascript</title>
    <desc>Created with Sketch.</desc>
    <g id="javascript" stroke="none" stroke-width="1" fill="none" fill-rule="evenodd">
        <g fill-rule="nonzero">
            <polygon id="Path" fill="#F7DF1E" points="0 0 410 0 410 410 0 410"></polygon>
            <path d="M107.804375,342.625469 L139.178984,323.637344 C145.232891,334.369414 150.739063,343.450273 163.947148,343.450273 C176.6075,343.450273 184.591289,338.498242 184.591289,319.234648 L184.591289,188.230039 L223.120078,188.230039 L223.120078,319.77918 C223.120078,359.685313 199.727656,377.850234 165.598359,377.850234 C134.776289,377.850234 116.885234,361.887461 107.802773,342.622266 M244.047695,338.496641 L275.419102,320.33332 C283.678359,333.820078 294.412031,343.727344 313.400156,343.727344 C329.366133,343.727344 339.545664,335.745156 339.545664,324.736016 C339.545664,311.526328 329.087461,306.846563 311.473477,299.143047 L301.843281,295.011016 C274.044961,283.180273 255.606172,268.317773 255.606172,236.943164 C255.606172,208.04457 277.622852,186.026289 312.026016,186.026289 C336.520313,186.026289 354.134297,194.559414 366.793047,216.851562 L336.792578,236.118359 C330.186133,224.284414 323.033555,219.60625 312.024414,219.60625 C300.739805,219.60625 293.584023,226.762031 293.584023,236.118359 C293.584023,247.676836 300.739805,252.358203 317.251914,259.513984 L326.883711,263.641211 C359.635664,277.678906 378.074453,291.988867 378.074453,324.18668 C378.074453,358.866914 350.828672,377.855039 314.224961,377.855039 C278.447656,377.855039 255.329102,360.791992 244.046094,338.498242" id="Shape" fill="#000000"></path>
        </g>
    </g>
</svg>