<?xml version="1.0" encoding="UTF-8"?>
<svg width="400px" height="400px" viewBox="0 0 400 400" version="1.1" xmlns="http://www.w3.org/2000/svg" xmlns:xlink="http://www.w3.org/1999/xlink">
    <!-- Generator: Sketch 53.2 (72643) - https://sketchapp.com -->
    <title>laravel</title>
    <desc>Created with Sketch.</desc>
    <g id="laravel" stroke="none" stroke-width="1" fill="none" fill-rule="evenodd">
        <g transform="translate(13.000000, 13.000000)" fill="#F35045" fill-rule="nonzero">
            <path d="M234.049886,304.454854 C236.979091,308.681885 238.768836,308.357067 241.046293,307.381148 C243.32375,306.405229 360.493434,266.900263 364.072923,265.600988 C367.652412,264.300251 366.514415,263.161922 365.376419,261.372494 C364.236958,259.584528 325.180397,206.586422 323.226617,203.497719 C321.274301,200.409015 320.297411,201.058653 317.205635,202.034572 L193,234.321834 C193,234.321834 231.12068,300.226359 234.049886,304.454854 Z M374,250.486681 L374,188.452179 C360.026225,192.171499 342.351399,196.874053 335.374032,198.72786 C345.900132,212.79748 362.356408,234.816378 374,250.486681 Z M335.253935,122.323792 C333.339699,122.758347 290.954096,130.410605 288.342709,130.757371 C285.732787,131.1056 286.602761,132.583378 287.647023,134.061157 L324.946061,185.187898 C324.946061,185.187898 370.552325,173.885089 373.338,173.27642 C373.563548,173.226673 373.784703,173.173999 374,173.119863 L374,166.349882 C365.710349,155.848877 343.126174,127.257524 341.173859,124.585817 C338.824636,121.368357 337.169635,121.890701 335.253935,122.323792 L335.253935,122.323792 Z" id="Shape"></path>
            <path d="M69.5321785,41.7539264 C78.6818056,41.3383411 79.516908,43.4177258 83.5362033,49.3715318 L184.522274,218 L311.501638,187.618528 C304.466046,177.657605 272.527759,132.431719 269.439924,128.115465 C265.971037,123.262595 269.527522,121.009686 275.167383,120.057485 C280.805785,119.103826 329.39064,110.958355 333.554473,110.351746 C337.719765,109.745137 341.017835,108.272361 347.783333,116.417833 C351.24638,120.585351 362.984532,135.184789 374,148.86994 L374,69.993311 C374,50.7130702 367.145445,34.2267291 353.439253,20.5357458 C339.731602,6.84622074 323.22519,0 303.921477,0 L70.3264018,0 C51.0226887,0 34.5162767,6.84622074 20.8086257,20.5357458 C12.9466914,28.3910368 7.35062937,37.16499 4,46.8576054 C26.8893975,44.9794515 63.1302135,42.0455652 69.5336385,41.7539264 L69.5321785,41.7539264 Z" id="Path"></path>
            <path d="M245.859711,326.68453 C235.145195,329.925835 230.340172,331.534818 223.361273,321.809443 C218.134039,314.525988 189.866359,263.689136 176.006445,238.6281 C149.775312,245.487063 101.770367,257.997159 87.9265234,261.318695 C74.4157734,264.56 68.6450703,256.471324 66.4259062,251.486833 C64.8700078,247.988791 25.2581484,162.714165 0,108 L0,303.980806 C0,323.269635 6.85910156,339.759155 20.5743828,353.45666 C34.291125,367.151248 50.8084844,374 70.125,374 L303.875,374 C323.191516,374 339.708875,367.151248 353.425617,353.45666 C367.140898,339.759155 374,323.269635 374,303.980806 L374,280.960537 C345.307187,291.440077 253.078203,324.500806 245.859711,326.68453 Z" id="Path"></path>
            <path d="M87.9882756,241.549334 C91.7778581,240.681519 162.778601,223.678163 164.294434,223.352914 C165.810267,223.027665 166.783899,222.161308 165.160208,219.346376 C163.536518,216.531444 70.5168427,55.8615445 70.5168427,55.8615445 C69.6583565,54.3869868 69.9032218,53.8954676 67.5697135,54.0179828 C65.4898158,54.1288299 12.8568874,58.8281619 0.671922128,59.8462046 C0.312237372,62.4244442 0.0879551727,65.0197894 0,67.6215427 C12.3700718,92.963223 83.3693575,239.488454 83.7672637,240.681519 C84.2001506,241.982513 84.2001506,242.415692 87.9882756,241.549334 Z" id="Path"></path>
        </g>
    </g>
</svg>