<?xml version="1.0" encoding="UTF-8"?>
<svg width="85px" height="85px" viewBox="0 0 85 85" version="1.1" xmlns="http://www.w3.org/2000/svg" xmlns:xlink="http://www.w3.org/1999/xlink">
    <!-- Generator: Sketch 53.2 (72643) - https://sketchapp.com -->
    <title>laravel</title>
    <desc>Created with Sketch.</desc>
    <g id="laravel" stroke="none" stroke-width="1" fill="none" fill-rule="evenodd">
        <g transform="translate(0.000000, 13.000000)" fill="#FB503B" fill-rule="nonzero" id="Shape">
            <path d="M83.8,27.9 C83.2,27.3 75.5,17.6 74.2,16 C72.8,14.4 72.2,14.7 71.3,14.8 C70.4,14.9 60.7,16.6 59.6,16.7 C58.5,16.9 57.8,17.3 58.5,18.3 C59.1,19.2 65.5,28.2 66.9,30.3 L41.4,36.4 L21.2,2.5 C20.4,1.3 20.2,0.9 18.4,1 C16.6,1.1 2.5,2.3 1.5,2.3 C0.5,2.4 -0.6,2.8 0.4,5.2 C1.4,7.6 17.4,42 17.8,43 C18.2,44 19.4,45.6 22.1,45 C24.9,44.3 34.5,41.8 39.8,40.4 C42.6,45.4 48.2,55.6 49.3,57.1 C50.7,59.1 51.7,58.7 53.8,58.1 C55.5,57.6 80,48.8 81.1,48.3 C82.2,47.8 82.9,47.5 82.1,46.4 C81.5,45.6 75.1,36.9 71.7,32.4 C74,31.8 82.3,29.6 83.2,29.3 C84.2,29 84.4,28.5 83.8,27.9 Z M37.5,37.4 C37.2,37.5 22.9,40.9 22.2,41.1 C21.4,41.3 21.4,41.2 21.4,40.9 C21.2,40.6 4.4,5.8 4.1,5.4 C3.9,5 3.9,4.6 4.1,4.6 C4.3,4.6 17.6,3.4 18,3.4 C18.5,3.4 18.4,3.5 18.6,3.8 C18.6,3.8 37.3,36.1 37.6,36.6 C38,37.1 37.8,37.3 37.5,37.4 L37.5,37.4 Z M77.7,44.9 C77.9,45.3 78.2,45.5 77.4,45.7 C76.7,46 53.3,53.9 52.8,54.1 C52.3,54.3 52,54.4 51.4,53.5 C50.8,52.6 43.2,39.5 43.2,39.5 L68.1,33 C68.7,32.8 68.9,32.7 69.3,33.3 C69.7,34 77.5,44.6 77.7,44.9 Z M79.3,27.3 C78.7,27.4 69.6,29.7 69.6,29.7 L62.1,19.5 C61.9,19.2 61.7,18.9 62.2,18.8 C62.7,18.7 71.2,17.2 71.6,17.1 C72,17 72.3,16.9 72.8,17.6 C73.3,18.2 79.7,26.4 80,26.7 C80.3,27 79.9,27.2 79.3,27.3 Z"></path>
        </g>
    </g>
</svg>