<?xml version="1.0" encoding="UTF-8"?>
<svg width="92px" height="92px" viewBox="0 0 92 92" version="1.1" xmlns="http://www.w3.org/2000/svg" xmlns:xlink="http://www.w3.org/1999/xlink">
    <!-- Generator: Sketch 53.2 (72643) - https://sketchapp.com -->
    <title>responsive</title>
    <desc>Created with Sketch.</desc>
    <defs>
        <linearGradient x1="50%" y1="88.7514962%" x2="50%" y2="100%" id="linearGradient-1">
            <stop stop-color="#C6C6C6" offset="0%"></stop>
            <stop stop-color="#CAC8C8" offset="100%"></stop>
        </linearGradient>
        <linearGradient x1="50%" y1="0%" x2="50%" y2="100%" id="linearGradient-2">
            <stop stop-color="#191919" offset="0%"></stop>
            <stop stop-color="#070707" offset="100%"></stop>
        </linearGradient>
        <linearGradient x1="50%" y1="0%" x2="50%" y2="100%" id="linearGradient-3">
            <stop stop-color="#D8D8D8" offset="0%"></stop>
            <stop stop-color="#D6D6D6" offset="100%"></stop>
        </linearGradient>
        <linearGradient x1="50%" y1="0%" x2="50%" y2="100%" id="linearGradient-4">
            <stop stop-color="#F1F3EF" offset="0%"></stop>
            <stop stop-color="#E9E9E4" offset="100%"></stop>
        </linearGradient>
        <linearGradient x1="50%" y1="0%" x2="50%" y2="100%" id="linearGradient-5">
            <stop stop-color="#DEDED3" offset="0%"></stop>
            <stop stop-color="#EEEEE8" offset="100%"></stop>
        </linearGradient>
        <linearGradient x1="53.2745854%" y1="43.6996491%" x2="72.4019449%" y2="55.2882012%" id="linearGradient-6">
            <stop stop-color="#FFFFFF" stop-opacity="0.05" offset="0%"></stop>
            <stop stop-color="#FFFFFF" stop-opacity="0" offset="100%"></stop>
        </linearGradient>
        <linearGradient x1="50%" y1="0%" x2="50%" y2="100%" id="linearGradient-7">
            <stop stop-color="#39413D" offset="0%"></stop>
            <stop stop-color="#000000" offset="100%"></stop>
        </linearGradient>
        <linearGradient x1="50%" y1="0%" x2="50%" y2="100%" id="linearGradient-8">
            <stop stop-color="#1B2220" offset="0%"></stop>
            <stop stop-color="#141615" offset="100%"></stop>
        </linearGradient>
        <linearGradient x1="50%" y1="14.4228182%" x2="50%" y2="100%" id="linearGradient-9">
            <stop stop-color="#101111" offset="0%"></stop>
            <stop stop-color="#191A19" offset="53.4568939%"></stop>
            <stop stop-color="#1B1F1C" offset="100%"></stop>
        </linearGradient>
        <linearGradient x1="50%" y1="0%" x2="50%" y2="100%" id="linearGradient-10">
            <stop stop-color="#29305F" offset="0%"></stop>
            <stop stop-color="#20274C" offset="100%"></stop>
        </linearGradient>
    </defs>
    <g id="responsive" stroke="none" stroke-width="1" fill="none" fill-rule="evenodd">
        <g transform="translate(4.000000, 16.000000)" fill-rule="nonzero">
            <g id="iMac">
                <path d="M45.9585569,53.1593407 L46.8558096,59.5104261 C46.8940083,59.7808104 46.7028615,60 46.4290656,60 L30.4678245,60 C30.1939416,60 30.00282,59.7812479 30.0410805,59.5104261 L30.9383332,53.1593407 L45.9585569,53.1593407 Z" id="base" fill="url(#linearGradient-1)"></path>
                <path d="M46.8583547,59.6703297 C46.7903461,59.8625243 46.6066415,60 46.3906911,60 L30.5103983,60 C30.2949906,60 30.1110315,59.86239 30.0428448,59.6703297 L46.8583547,59.6703297 Z" id="Rectangle-14" fill="#F0EFEF"></path>
                <polygon id="shadow" fill="#000000" opacity="0.11" points="31.004609 52.6648352 30.87174 53.6538462 46.02761 53.6538462 45.882851 52.6648352"></polygon>
                <g id="upper">
                    <path d="M1.65368572,0 C0.740380319,0 0,0.737794624 0,1.64773677 L0,46.1538462 L77.7237354,46.1538462 L77.7237354,1.64773677 C77.7237354,0.737716881 76.9840302,0 76.0700497,0 L1.65368572,0 Z" id="bezel" fill="url(#linearGradient-2)"></path>
                    <rect id="panel" fill="#2A2A2A" x="3.05933852" y="2.96703297" width="71.6050584" height="40.2197802"></rect>
                    <path d="M0,46.1538462 L0,51.5102227 C0,52.4210054 0.739705241,53.1593407 1.65368572,53.1593407 L76.0700497,53.1593407 C76.9833551,53.1593407 77.7237354,52.4212209 77.7237354,51.5102227 L77.7237354,46.1538462 L0,46.1538462 Z" id="frame-bottom" fill="url(#linearGradient-3)"></path>
                </g>
                <path d="M38.2391106,48.6835873 C38.3403784,48.6835873 38.4625566,48.7045255 38.6056738,48.746431 C38.7501159,48.7883652 38.845969,48.8093036 38.8932331,48.8093036 C38.9539765,48.8093036 39.0532283,48.7856543 39.1909307,48.7383268 C39.3286331,48.6910282 39.4481327,48.66735 39.5493718,48.66735 C39.7154442,48.66735 39.863285,48.7119664 39.9928941,48.8011993 C40.0657919,48.8525645 40.1380274,48.9221857 40.2095716,49.0100632 C40.101564,49.1020071 40.0225889,49.1837991 39.9726462,49.2554392 C39.8821791,49.385222 39.8369599,49.5285311 39.8369599,49.6853375 C39.8369599,49.8570258 39.8848864,50.0118134 39.9807396,50.1497293 C40.0765927,50.2876164 40.185954,50.3748016 40.3088521,50.4113138 C40.2574982,50.5776088 40.1724458,50.7514601 40.0536375,50.9325793 C39.8740857,51.204258 39.6958588,51.3400973 39.5190144,51.3400973 C39.4487952,51.3400973 39.3515883,51.3178901 39.2273941,51.2731871 C39.1045247,51.2284841 39.0005782,51.2062768 38.9155259,51.2062768 C38.8304447,51.2062768 38.7312218,51.2293493 38.6178282,51.2752059 C38.5057596,51.3225045 38.41463,51.3461538 38.3444107,51.3461538 C38.1324567,51.3461538 37.9245349,51.1664768 37.7206742,50.8068341 C37.5168136,50.4512004 37.4148833,50.1024018 37.4148833,49.7603809 C37.414883,49.4426726 37.4925133,49.1837991 37.6477735,48.9837028 C37.8043729,48.7836065 38.001491,48.6835873 38.2391077,48.6835873 M39.5149505,47.8846154 C39.5203365,47.9021926 39.5237352,47.9177417 39.5250888,47.9312565 C39.5264137,47.9447798 39.527105,47.9582974 39.527105,47.971815 C39.527105,48.0583398 39.5068571,48.152963 39.4663615,48.2557221 C39.4258371,48.3584524 39.3617238,48.4537707 39.2739641,48.5416481 C39.1983587,48.6159992 39.1234159,48.6660089 39.0491643,48.6917059 C39.001929,48.7065876 38.930356,48.7180662 38.8345029,48.7261704 C38.8372103,48.520681 38.8905228,48.3429073 38.9944981,48.1928496 C39.0997982,48.0427918 39.2732728,47.9400471 39.5149505,47.8846298" id="branding" fill="#000000"></path>
                <g id="camera" transform="translate(38.117704, 1.401099)">
                    <circle id="lens" fill="#141414" cx="0.5" cy="0.5" r="1"></circle>
                    <circle id="aperture" fill-opacity="0.695714614" fill="#190E37" cx="0.5" cy="0.5" r="1"></circle>
                </g>
            </g>
            <g id="iPad-Minimus" transform="translate(51.678016, 23.818681)">
                <g id="Page-1">
                    <g id="Artboard-2">
                        <g id="Dribbble-Shot">
                            <g id="base">
                                <path d="M1.38013392,0.0467333654 C0.649936955,0.0467333654 0.0579953842,0.636939725 0.0579953842,1.36475272 L0.0579953842,34.7866882 C0.0579953842,35.5146101 0.650829042,36.1047075 1.38013392,36.1047075 L26.7327065,36.1047075 C27.4629035,36.1047075 28.0548451,35.5145012 28.0548451,34.7866882 L28.0548451,1.36475272 C28.0548451,0.636830728 27.4620114,0.0467333654 26.7327065,0.0467333654 L1.38013392,0.0467333654 L1.38013392,0.0467333654 Z" id="Base" fill="url(#linearGradient-4)"></path>
                                <polygon id="screen" stroke="#000000" stroke-width="2" fill="#2A2A2A" points="2.85768032 3.21124154 2.85768032 32.9401994 25.2551601 32.9401994 25.2551601 3.21124154"></polygon>
                            </g>
                            <g id="home-button" transform="translate(13.146887, 33.626374)">
                                <path d="M0.909533074,1.78156146 C1.38467464,1.78156146 1.76985297,1.39811596 1.76985297,0.925111978 C1.76985297,0.452107995 1.38467464,0.0686625 0.909533074,0.0686625 C0.434391508,0.0686625 0.0492131809,0.452107995 0.0492131809,0.925111978 C0.0492131809,1.39811596 0.434391508,1.78156146 0.909533074,1.78156146 L0.909533074,1.78156146 Z" id="home" fill="url(#linearGradient-5)"></path>
                                <path d="M0.769050233,0.620274066 C0.677518546,0.620274066 0.603317515,0.693815192 0.603317515,0.785261126 L0.603317515,1.06496283 C0.603317515,1.15608272 0.677191031,1.22994997 0.769050233,1.22994997 L1.05001591,1.22994997 C1.1415476,1.22994997 1.21574863,1.15640876 1.21574863,1.06496283 L1.21574863,0.785261126 C1.21574863,0.694141319 1.14187512,0.620274066 1.05001591,0.620274066 L0.769050233,0.620274066 L0.769050233,0.620274066 Z" id="home-icon" stroke="#B3B5B7" fill="#D8D8D8" opacity="0.5"></path>
                            </g>
                            <g id="camera" transform="translate(13.808366, 1.483516)">
                                <path d="M0.5,0.851915183 C0.7272595,0.851915183 0.911489667,0.667919133 0.911489667,0.440948467 C0.911489667,0.213977817 0.7272595,0.0299817667 0.5,0.0299817667 C0.2727405,0.0299817667 0.0885103333,0.213977817 0.0885103333,0.440948467 C0.0885103333,0.667919133 0.2727405,0.851915183 0.5,0.851915183 L0.5,0.851915183 Z" id="frame" fill="#D4D4D4"></path>
                                <path d="M0.5,0.617077067 C0.597396833,0.617077067 0.676352667,0.538221617 0.676352667,0.440948467 C0.676352667,0.343675333 0.597396833,0.264819883 0.5,0.264819883 C0.402603167,0.264819883 0.323647333,0.343675333 0.323647333,0.440948467 C0.323647333,0.538221617 0.402603167,0.617077067 0.5,0.617077067 L0.5,0.617077067 Z" id="aperture" fill="#444EAA" opacity="0.8"></path>
                            </g>
                            <path d="M17.2987001,0.0467333654 L21.1379788,0.0467333654 C25.2486934,0.0467333654 28.5797861,3.36748607 28.5797861,7.46384209 L28.5797861,28.716631 C28.5797861,32.8135048 25.2479754,36.1337398 21.1379788,36.1337398 L20.8839962,36.1337398 L14.589872,0.553358283 C15.4293021,0.226274769 16.3429609,0.0467333654 17.2987001,0.0467333654 L17.2987001,0.0467333654 Z" id="Rectangle-5" fill="url(#linearGradient-6)" opacity="0.6"></path>
                        </g>
                    </g>
                </g>
            </g>
            <g id="MinimusSVG" transform="translate(75.656615, 40.302198)">
                <g id="Page-1">
                    <g id="Artboard-1">
                        <g id="Ta-Da!">
                            <g id="Minimus-Sketch">
                                <g id="base" transform="translate(0.082685, 0.082418)">
                                    <path d="M1.18379405,0.046849407 C0.533127989,0.046849407 0.00565890573,0.572576839 0.00565890573,1.22125071 L0.00565890573,18.3626627 C0.00565890573,19.0112665 0.533066148,19.5370639 1.18379405,19.5370639 L8.07416756,19.5370639 C8.7248336,19.5370639 9.25230267,19.0113365 9.25230267,18.3626627 L9.25230267,1.22125071 C9.25230267,0.572646781 8.72489545,0.046849407 8.07416756,0.046849407 L1.18379405,0.046849407 L1.18379405,0.046849407 Z" id="antenna-edging" fill="url(#linearGradient-7)"></path>
                                    <path d="M1.30148934,0.164260338 C0.650876488,0.164260338 0.123450546,0.689908988 0.123450546,1.33843451 L0.123450546,18.2454789 C0.123450546,18.8939573 0.651005235,19.419653 1.30148934,19.419653 L7.95647228,19.419653 C8.60708512,19.419653 9.13451111,18.8940044 9.13451111,18.2454789 L9.13451111,1.33843451 C9.13451111,0.68995601 8.60695638,0.164260338 7.95647228,0.164260338 L1.30148934,0.164260338 L1.30148934,0.164260338 Z" id="glass" fill="url(#linearGradient-8)"></path>
                                    <polygon id="view-port" stroke="#000000" stroke-width="2" fill="#2A2A2A" points="0.65351293 2.80600629 0.65351293 16.8366125 8.60444871 16.8366125 8.60444871 2.80600629"></polygon>
                                </g>
                                <g id="edge-buttons" fill="#000000">
                                    <polygon id="Rectangle-4-copy" points="0 4.67894056 0 5.35405342 0.1 5.35405342 0.1 4.67894056"></polygon>
                                    <polygon id="Rectangle-4-copy-2" points="0 6.3226936 0 6.99780645 0.1 6.99780645 0.1 6.3226936"></polygon>
                                    <polygon id="Rectangle-4" points="0 2.8297184 0 3.71030038 0.1 3.71030038 0.1 2.8297184"></polygon>
                                    <polygon id="Rectangle-8" points="6.27240488 0.0412087912 6.27240488 0.141208791 7.74480038 0.141208791 7.74480038 0.0412087912"></polygon>
                                </g>
                                <path d="M4.71166563,19.1791905 C5.18331099,19.1791905 5.56565503,18.7980823 5.56565503,18.3279613 C5.56565503,17.8578403 5.18331099,17.476732 4.71166563,17.476732 C4.24002028,17.476732 3.85767624,17.8578403 3.85767624,18.3279613 C3.85767624,18.7980823 4.24002028,19.1791905 4.71166563,19.1791905 L4.71166563,19.1791905 Z" id="home" fill="url(#linearGradient-9)"></path>
                                <g id="top-elements" transform="translate(3.886187, 0.906593)">
                                    <path d="M0.162683293,0.895779346 C0.105880748,0.895779346 0.0598331977,0.94189064 0.0598331977,0.998513909 L0.0598331977,0.998513909 C0.0598331977,1.05525265 0.106078903,1.10124848 0.162683293,1.10124848 L1.48827443,1.10124848 C1.54507698,1.10124848 1.59112453,1.05513719 1.59112453,0.998513909 L1.59112453,0.998513909 C1.59112453,0.941775173 1.54487882,0.895779346 1.48827443,0.895779346 L0.162683293,0.895779346 L0.162683293,0.895779346 Z" id="ear-piece" fill="#060707" opacity="0.443963068"></path>
                                    <g id="Camera" transform="translate(0.578794, 0.000000)">
                                        <path d="M0.497239748,0.89163052 C0.693934053,0.89163052 0.853386238,0.700287898 0.853386238,0.464254732 C0.853386238,0.228221566 0.693934053,0.0368789432 0.497239748,0.0368789432 C0.300545442,0.0368789432 0.141093257,0.228221566 0.141093257,0.464254732 C0.141093257,0.700287898 0.300545442,0.89163052 0.497239748,0.89163052 L0.497239748,0.89163052 Z" id="Oval-2" fill="#1A1E1D"></path>
                                        <path d="M0.526918622,0.677942626 C0.608874577,0.677942626 0.675312993,0.598216528 0.675312993,0.49986938 C0.675312993,0.401522234 0.608874577,0.321796136 0.526918622,0.321796136 C0.444962667,0.321796136 0.37852425,0.401522234 0.37852425,0.49986938 C0.37852425,0.598216528 0.444962667,0.677942626 0.526918622,0.677942626 L0.526918622,0.677942626 Z" id="Oval-3" fill="url(#linearGradient-10)" opacity="0.545170455"></path>
                                    </g>
                                </g>
                            </g>
                        </g>
                    </g>
                </g>
            </g>
        </g>
    </g>
</svg>