<svg id="Sketch" xmlns="http://www.w3.org/2000/svg" viewBox="0 0 128 128" width="32" height="32" fill="currentColor"><defs><style>.cls-sketch-original-1{fill:#fdb300;}.cls-sketch-original-2{fill:#ea6c00;}.cls-sketch-original-3{fill:#fdad00;}.cls-sketch-original-4{fill:#fdd231;}.cls-sketch-original-5{fill:#feeeb7;}</style></defs><title>Artboard 12</title><g id="original"><path class="cls-sketch-original-1" d="M29.62,12.85,64,9.24l34.38,3.61L125,48.29,64,118.76,3,48.29Z"/><polygon class="cls-sketch-original-2" points="27.71 48.29 64 118.76 3 48.29 27.71 48.29"/><polygon class="cls-sketch-original-2" points="100.29 48.29 64 118.76 125 48.29 100.29 48.29"/><polygon class="cls-sketch-original-3" points="27.71 48.29 100.29 48.29 64 118.76 27.71 48.29"/><polygon class="cls-sketch-original-4" points="64 9.24 29.62 12.85 27.71 48.29 64 9.24"/><polygon class="cls-sketch-original-4" points="64 9.24 98.38 12.85 100.29 48.29 64 9.24"/><polygon class="cls-sketch-original-3" points="125 48.29 98.38 12.85 100.29 48.29 125 48.29"/><polygon class="cls-sketch-original-5" points="64 9.24 27.71 48.29 100.29 48.29 64 9.24"/><polygon class="cls-sketch-original-3" points="3 48.29 29.62 12.85 27.71 48.29 3 48.29"/></g></svg>