<?xml version="1.0" encoding="UTF-8"?>
<svg width="95px" height="95px" viewBox="0 0 95 95" version="1.1" xmlns="http://www.w3.org/2000/svg" xmlns:xlink="http://www.w3.org/1999/xlink">
    <!-- Generator: Sketch 53.2 (72643) - https://sketchapp.com -->
    <title>yeoman</title>
    <desc>Created with Sketch.</desc>
    <defs>
        <path d="M67.5107914,21.3784173 L67.5107914,21.2791367 L69.694964,10.2920863 C69.694964,10.2920863 64.8302158,-0.926618705 48.4820144,0.430215827 C32.1669065,1.78705036 30.1151079,5.55971223 27.4345324,10.0604317 L29.0230216,17.2417266 L25.9784173,19.1942446 C25.9784173,19.1942446 24.8863309,15.9179856 23.1654676,15.7856115 C23.1654676,15.7856115 25.7136691,12.1122302 23.8935252,9.56402878 C22.0733813,7.01582734 12.3107914,7.24748201 8.5381295,20.1539568 C8.5381295,20.1539568 8.04172662,16.2489209 6.45323741,16.2489209 C4.8647482,16.2489209 -0.992805755,18.3669065 0.595683453,24.4561151 C2.18417266,30.5453237 7.67769784,32.3654676 9.49784173,33.1266187 C9.49784173,33.1266187 10.3582734,34.218705 9.9942446,35.6748201 C9.79568345,36.4359712 5.3942446,50.1035971 9.0676259,62.7453237 C11.8143885,72.1769784 20.6503597,80.3841727 20.6503597,80.3841727 C27.4014388,86.8043165 36.4690647,90.742446 46.4633094,90.742446 C67.2129496,90.742446 84.057554,73.7654676 84.057554,52.8172662 C84.0906475,39.7453237 77.505036,28.1956835 67.5107914,21.3784173 Z" id="path-1"></path>
    </defs>
    <g id="yeoman" stroke="none" stroke-width="1" fill="none" fill-rule="evenodd">
        <g transform="translate(5.000000, 2.000000)">
            <path d="M46.4633094,91.7352518 C25.1841727,91.7352518 7.87625899,74.294964 7.87625899,52.8172662 C7.87625899,31.3726619 25.1841727,13.8992806 46.4633094,13.8992806 C67.742446,13.8992806 85.0503597,31.3726619 85.0503597,52.8172662 C85.0503597,74.294964 67.742446,91.7352518 46.4633094,91.7352518 Z M46.4633094,15.8517986 C26.276259,15.8517986 9.82877698,32.4316547 9.82877698,52.8172662 C9.82877698,73.2028777 26.276259,89.7827338 46.4633094,89.7827338 C66.6503597,89.7827338 83.0978417,73.2028777 83.0978417,52.8172662 C83.0978417,32.4316547 66.6834532,15.8517986 46.4633094,15.8517986 Z" id="Shape" fill="#020202" fill-rule="nonzero"></path>
            <g id="Clipped">
                <mask id="mask-2" fill="white">
                    <use xlink:href="#path-1"></use>
                </mask>
                <g id="a"></g>
                <g id="Group" mask="url(#mask-2)" fill-rule="nonzero">
                    <g transform="translate(1.985612, 1.323741)">
                        <path d="M57.7482014,65.3266187 C57.7482014,65.3266187 85.0834532,69.7280576 88.094964,107.951079 C88.094964,107.951079 82.9985612,111.194245 77.6705036,111.425899 C77.6705036,111.425899 78.1338129,82.0057554 57.7482014,65.3266187 Z" id="Path" fill="#050505"></path>
                        <path d="M84.6532374,91.1064748 C83.1640288,91.8345324 79.9870504,93.0920863 75.0892086,93.5884892 L75.5856115,95.4748201 C77.5381295,95.1769784 81.0460432,94.4489209 85.2489209,92.7942446 L84.6532374,91.1064748 L84.6532374,91.1064748 Z M73.7323741,89.2201439 C73.9309353,89.8489209 74.1625899,90.4446043 74.3280576,91.0733813 C76.1151079,90.8748201 80.152518,90.3122302 83.7266187,88.723741 C83.4618705,88.1280576 83.2302158,87.5323741 82.9654676,86.9697842 C81.6417266,87.5654676 78.7294964,88.6244604 73.7323741,89.2201439 L73.7323741,89.2201439 Z M88.094964,107.951079 C87.8302158,104.443165 87.3338129,101.233094 86.705036,98.2877698 C84.6201439,99.5784173 81.3107914,101.133813 76.8431655,101.729496 C77.7697842,107.520863 77.7035971,111.425899 77.7035971,111.425899 C82.9985612,111.194245 88.094964,107.951079 88.094964,107.951079 Z" id="Shape" fill="#DD002A"></path>
                        <circle id="Oval" fill="#F4CF8C" cx="29.552518" cy="36.3697842" r="5.85755396"></circle>
                        <circle id="Oval" fill="#F4CF8C" cx="29.552518" cy="36.3697842" r="5.85755396"></circle>
                        <path d="M23.694964,36.3697842 C23.694964,36.5352518 23.694964,36.7338129 23.7280576,36.8992806 C24.1582734,36.7338129 24.5884892,36.5021583 25.0517986,36.171223 C27.8316547,34.3841727 27.8978417,32.2661871 27.3021583,30.942446 C25.1841727,31.8690647 23.694964,33.9539568 23.694964,36.3697842 L23.694964,36.3697842 Z" id="Path" fill="#F4CF8C"></path>
                        <circle id="Oval" fill="#F4CF8C" cx="26.5410072" cy="36.3697842" r="2.84604317"></circle>
                        <path d="M26.5410072,33.5568345 C26.4417266,33.5568345 26.3093525,33.5568345 26.2100719,33.5899281 C27.3021583,33.7553957 28.1625899,34.9467626 28.1625899,36.4028777 C28.1625899,37.8589928 27.3021583,39.0503597 26.2100719,39.2158273 C26.3093525,39.2158273 26.4417266,39.2489209 26.5410072,39.2489209 C28.0964029,39.2489209 29.3870504,37.9913669 29.3870504,36.4028777 C29.3539568,34.8143885 28.0964029,33.5568345 26.5410072,33.5568345 Z" id="Path" fill="#D8AF6F"></path>
                        <path d="M26.1769784,33.5899281 C26.0776978,33.5899281 26.0115108,33.5568345 25.9122302,33.5568345 C24.6877698,33.5568345 23.694964,34.8143885 23.694964,36.4028777 C23.694964,34.9467626 24.7870504,33.7553957 26.1769784,33.5899281 Z M23.694964,36.3697842 C23.694964,37.9251799 24.6877698,39.2158273 25.9122302,39.2158273 C26.0115108,39.2158273 26.0776978,39.2158273 26.1769784,39.1827338 C24.7870504,39.0172662 23.694964,37.8258993 23.694964,36.3697842 Z" id="Shape" fill="#F4CF8C"></path>
                        <circle id="Oval" fill="#F4CF8C" cx="63.8705036" cy="36.3697842" r="5.85755396"></circle>
                        <circle id="Oval" fill="#F4CF8C" cx="63.8705036" cy="36.3697842" r="5.85755396"></circle>
                        <circle id="Oval" fill="#F4CF8C" cx="66.8820144" cy="36.3697842" r="2.84604317"></circle>
                        <path d="M65.2604317,36.3697842 C65.2604317,34.9136691 66.1208633,33.7223022 67.2129496,33.5568345 C67.1136691,33.5568345 66.981295,33.523741 66.8820144,33.523741 C65.3266187,33.523741 64.0359712,34.781295 64.0359712,36.3697842 C64.0359712,37.9251799 65.2935252,39.2158273 66.8820144,39.2158273 C66.981295,39.2158273 67.1136691,39.2158273 67.2129496,39.1827338 C66.1208633,39.0172662 65.2604317,37.8258993 65.2604317,36.3697842 Z" id="Path" fill="#D8AF6F"></path>
                        <path d="M69.7280576,36.3697842 C69.7280576,34.8143885 68.7352518,33.523741 67.5107914,33.523741 C67.4115108,33.523741 67.3453237,33.523741 67.2460432,33.5568345 C68.6359712,33.7553957 69.7280576,34.9467626 69.7280576,36.3697842 Z M67.2460432,39.1827338 C67.3453237,39.1827338 67.4115108,39.2158273 67.5107914,39.2158273 C68.7352518,39.2158273 69.7280576,37.9582734 69.7280576,36.3697842 C69.7280576,37.8258993 68.6359712,39.0172662 67.2460432,39.1827338 Z M13.171223,40.142446 C13.171223,40.142446 18.7640288,40.8705036 18.0359712,35.2776978 C18.0359712,35.2776978 19.9884892,38.3223022 24.3568345,35.5093525 C28.7251799,32.7294964 26.4086331,29.0561151 25.2172662,28.9568345 C23.9928058,28.8244604 22.305036,27.5007194 18.0359712,31.8690647 L15.6201439,26.276259 L18.4,22.6359712 C18.4,22.6359712 18.7971223,27.8978417 22.8345324,26.4086331 C26.905036,24.9194245 23.8604317,15.9510791 20.2201439,15.9510791 L13.6676259,19.723741 C13.6676259,19.723741 14.8920863,16.3151079 20.2201439,13.5352518 C20.2201439,13.5352518 22.2719424,12.3107914 21.0805755,9.26618705 C19.8561151,6.22158273 8.30647482,8.4057554 6.48633094,23.2316547 C6.48633094,23.2316547 4.43453237,21.2791367 4.89784173,18.2345324 C5.36115108,15.1899281 -1.05899281,16.0503597 0.165467626,22.6028777 C1.38992806,29.1553957 7.71079137,30.5122302 7.71079137,30.5122302 C7.71079137,30.5122302 9.8618705,33.9870504 8.30647482,37.9251799 C8.30647482,37.9582734 10.7553957,40.9697842 13.171223,40.142446 L13.171223,40.142446 Z M24.3568345,35.5093525 C28.7251799,32.7294964 26.4086331,29.0561151 25.2172662,28.9568345 C24.4561151,28.8906475 23.5294964,28.3611511 21.9410072,28.9568345 L23.3640288,31.9021583 C23.3640288,31.9021583 23.0661871,36.105036 18.3669065,35.0460432 C18.3669065,35.0460432 18.3338129,35.2115108 18.2014388,35.476259 C18.7309353,36.105036 20.6834532,37.8589928 24.3568345,35.5093525 L24.3568345,35.5093525 Z M18.0690647,35.6748201 C17.3410072,36.9654676 14.8258993,39.4805755 8.73669065,36.3697842 C8.63741007,36.9323741 8.50503597,37.3956835 8.30647482,37.9582734 C8.30647482,37.9582734 10.7223022,41.0028777 13.171223,40.142446 C13.171223,40.142446 18.4992806,40.8374101 18.0690647,35.6748201 L18.0690647,35.6748201 Z M18.4,22.6359712 C18.4,22.6359712 18.7971223,27.8978417 22.8345324,26.4086331 C24.4892086,25.8129496 24.952518,23.9266187 24.6877698,21.9410072 C23.6618705,23 20.5510791,25.647482 19.3266187,20.0215827 L13.7669065,26.5079137 L9.36546763,29.0561151 L14.8589928,27.6661871 L18.0690647,31.8359712 L15.6532374,26.2431655 L18.4,22.6359712 L18.4,22.6359712 Z M14.5942446,18.1352518 C15.4877698,16.8776978 17.2086331,15.0906475 20.2532374,13.5021583 C20.2532374,13.5021583 22.305036,12.2776978 21.1136691,9.23309353 C21.0805755,9.16690647 21.0805755,9.13381295 21.047482,9.0676259 C20.7496403,9.9942446 20.1870504,11.0863309 19.094964,11.847482 C16.8446043,13.4028777 8.8028777,18.9956835 11.3510791,27.4345324 C11.3179856,27.5007194 10.2589928,22.2719424 14.5942446,18.1352518 L14.5942446,18.1352518 Z M6.38705036,23.1323741 C5.95683453,22.6690647 4.50071942,20.8820144 4.93093525,18.2676259 C5.1294964,17.076259 4.23597122,16.4805755 3.17697842,16.6129496 C2.94532374,19.8561151 3.40863309,26.4748201 9.82877698,28.3611511 C9.82877698,28.3611511 7.41294964,27.2359712 6.38705036,23.1323741 L6.38705036,23.1323741 Z" id="Shape" fill="#F4CF8C"></path>
                        <path d="M8.30647482,37.9582734 L13.171223,40.142446 C13.171223,40.142446 8.8028777,64.2014388 31.6374101,65.1942446 C31.6374101,65.1942446 31.8028777,80.6820144 17.705036,80.4172662 C17.705036,80.4172662 -0.926618705,65.5913669 8.30647482,37.9582734 Z" id="Path" fill="#050505"></path>
                        <path d="M14.1309353,53.2143885 C14.0647482,52.9827338 13.9985612,52.7841727 13.9323741,52.552518 C12.8402878,53.1151079 9.96115108,54.3726619 5.79136691,54.3395683 L5.89064748,55.9280576 C7.97553957,55.9280576 11.4503597,55.6633094 14.4618705,54.0417266 L14.4618705,54.0086331 C14.3625899,53.7769784 14.2964029,53.5453237 14.2302158,53.3136691 L14.1309353,53.2143885 L14.1309353,53.2143885 Z M15.6863309,56.6561151 C15.5870504,56.457554 15.4546763,56.2589928 15.3553957,56.0604317 C14.0978417,56.6561151 10.6561151,58.0460432 6.08920863,58.0791367 C6.15539568,58.6748201 6.25467626,59.2705036 6.35395683,59.8330935 C8.83597122,59.8330935 12.476259,59.4028777 16.0503597,57.3179856 L16.0503597,57.2848921 C15.9179856,57.0863309 15.818705,56.8877698 15.6863309,56.6892086 L15.6863309,56.6561151 Z M8.30647482,37.9582734 C6.98273381,41.5654676 6.42014388,44.9079137 5.98992806,48.018705 C8.30647482,48.4489209 10.6230216,48.5151079 12.9064748,47.0258993 C12.6086331,43.1208633 13.171223,40.142446 13.171223,40.142446 L8.30647482,37.9582734 L8.30647482,37.9582734 Z" id="Shape" fill="#DD002A"></path>
                        <path d="M15.3884892,99.6776978 L45.1726619,138.066187 C45.1726619,138.066187 46.3309353,138.496403 46.8273381,137.900719 L46.8273381,99.6776978 L15.3884892,99.6776978 Z M78.0345324,99.6776978 L48.2503597,138.066187 C48.2503597,138.066187 47.0920863,138.496403 46.5956835,137.900719 L46.5956835,99.6776978 L78.0345324,99.6776978 Z M60.428777,64.5654676 L33.0273381,64.5654676 C3.83884892,77.3726619 10.6230216,125.722302 10.6230216,125.722302 L46.8935252,125.722302 L46.8935252,103.615827 L48.9122302,125.722302 L82.8,125.722302 C82.8,125.689209 89.6172662,77.3726619 60.428777,64.5654676 Z" id="Shape" fill="#050505"></path>
                        <path d="M85.0172662,109.539568 C84.6201439,99.1482014 82.5352518,85.8115108 75.5194245,75.7841727 C67.1467626,66.8489209 57.7482014,65.3266187 57.7482014,65.3266187 C78.1338129,82.0057554 77.6705036,111.425899 77.6705036,111.425899 C80.3841727,111.293525 83.0647482,110.4 85.0172662,109.539568 L85.0172662,109.539568 Z" id="Path" fill="#930023"></path>
                        <path d="M11.781295,94.6805755 C11.6820144,95.1107914 11.5827338,95.5741007 11.5165468,96.0043165 C19.5913669,93.0258993 32.3323741,91.1064748 46.694964,91.1064748 C61.057554,91.1064748 73.8316547,93.0258993 81.8733813,96.0043165 C81.7741007,95.5741007 81.7079137,95.1107914 81.6086331,94.6805755 C73.5338129,91.7683453 60.8920863,89.8820144 46.694964,89.8820144 C32.4978417,89.8820144 19.8561151,91.7683453 11.781295,94.6805755 Z M13.4028777,88.5582734 C13.2705036,88.9553957 13.171223,89.352518 13.0388489,89.7496403 C21.1467626,87.0690647 33.2258993,85.381295 46.7280576,85.381295 C60.2302158,85.381295 72.3093525,87.0690647 80.4172662,89.7496403 C80.2848921,89.352518 80.1856115,88.9553957 80.0532374,88.5582734 C71.9453237,85.9438849 60.0316547,84.3223022 46.7280576,84.3223022 C33.4244604,84.3223022 21.4776978,85.9769784 13.4028777,88.5582734 Z M24.7208633,69.8604317 C18.4661871,77.9021583 19.1611511,87.7309353 19.1611511,87.7309353 L20.8489209,86.9697842 C20.3194245,78.4316547 24.2244604,71.647482 26.6733813,68.2719424 C26.0115108,68.7683453 25.3496403,69.2978417 24.7208633,69.8604317 L24.7208633,69.8604317 Z M66.7496403,68.2719424 C69.1985612,71.647482 73.1035971,78.3985612 72.5741007,86.9697842 L74.2618705,87.7309353 C74.2618705,87.7309353 74.923741,77.9352518 68.7021583,69.8604317 C68.0733813,69.2978417 67.4115108,68.7683453 66.7496403,68.2719424 L66.7496403,68.2719424 Z M46.8935252,103.615827 L48.9122302,125.722302 L82.8,125.722302 C82.8,125.722302 84.8848921,110.896403 81.7741007,95.4748201 L80.0532374,94.9122302 C82.8992806,102.689209 81.5755396,123.670504 81.5755396,123.670504 L50.7323741,123.670504 L47.8201439,91.0733813 L45.4705036,91.0733813 L45.1726619,123.670504 L12.2115108,123.670504 C10.6892086,108.877698 13.0388489,94.9784173 13.0388489,94.9784173 L11.6489209,95.3755396 C8.50503597,110.830216 10.6230216,125.722302 10.6230216,125.722302 L46.8935252,125.722302 L46.8935252,103.615827 L46.8935252,103.615827 Z" id="Shape" fill="#DD002A"></path>
                        <path d="M61.8848921,63.5395683 C61.8848921,63.5395683 56.0604317,68.8345324 46.4633094,68.8345324 C35.0791367,68.8345324 31.5381295,63.5395683 31.5381295,63.5395683 L29.5194245,26.4086331 L63.8705036,26.4086331 L61.8848921,63.5395683 Z M61.8848921,63.5395683 C61.8848921,63.5395683 56.0604317,68.8345324 46.4633094,68.8345324 C35.0791367,68.8345324 31.5381295,63.5395683 31.5381295,63.5395683 L29.5194245,26.4086331 L63.8705036,26.4086331 L61.8848921,63.5395683 Z M61.8848921,63.5395683 C61.8848921,63.5395683 56.0604317,68.8345324 46.4633094,68.8345324 C35.0791367,68.8345324 31.5381295,63.5395683 31.5381295,63.5395683 L29.5194245,26.4086331 L63.8705036,26.4086331 L61.8848921,63.5395683 Z" id="Shape" fill="#F4CF8C"></path>
                        <path d="M51.0633094,32.7625899 L51.923741,31.6705036 C51.923741,31.6705036 55.0014388,31.505036 59.7669065,34.0532374 C59.7669065,34.0532374 56.3251799,29.8172662 51.1625899,31.2402878 L51.3280576,30.3136691 L49.8719424,32.6964029 C49.8719424,32.6964029 50.4014388,35.9064748 49.8388489,38.2230216 L43.6503597,38.2230216 C43.0877698,35.9064748 43.6172662,32.6964029 43.6172662,32.6964029 L42.1611511,30.3136691 L42.3266187,31.2402878 C37.1640288,29.8172662 33.7223022,34.0532374 33.7223022,34.0532374 C38.4546763,31.505036 41.5654676,31.6705036 41.5654676,31.6705036 L42.4258993,32.7625899 C40.771223,36.0719424 36.8661871,36.3366906 36.8661871,36.3366906 C40.9697842,36.7669065 42.4589928,34.218705 42.4589928,34.218705 C42.2273381,36.2374101 42.657554,38.8848921 42.657554,38.8848921 L46.7611511,41.7971223 L46.7942446,41.7640288 L46.8273381,41.7971223 L50.9309353,38.8848921 C50.9309353,38.8848921 51.3611511,36.2374101 51.1294964,34.218705 C51.1294964,34.218705 52.618705,36.7669065 56.7223022,36.3366906 C56.6230216,36.3366906 52.7179856,36.0719424 51.0633094,32.7625899 L51.0633094,32.7625899 Z" id="Path" fill="#B27D30"></path>
                        <ellipse id="Oval" fill="#050505" cx="46.694964" cy="44.7755396" rx="5.62589928" ry="3.37553957"></ellipse>
                        <path d="M46.694964,48.3165468 C47.9856115,48.3165468 49.1438849,47.8863309 50.1035971,47.4561151 C49.4417266,46.7280576 48.1841727,46.2647482 46.694964,46.2647482 C45.2388489,46.2647482 43.9482014,46.7611511 43.2863309,47.4561151 C44.2460432,47.8863309 45.4374101,48.3165468 46.694964,48.3165468 Z" id="Path" fill="#DD002A"></path>
                        <path d="M46.694964,41.4 C43.5841727,41.4 41.0690647,42.9223022 41.0690647,44.7755396 C41.0690647,44.8748201 41.0690647,44.9741007 41.1021583,45.0733813 L52.3208633,45.0733813 C52.3208633,44.9741007 52.3539568,44.8748201 52.3539568,44.7755396 C52.3539568,42.9223022 49.8388489,41.4 46.694964,41.4 Z" id="Path" fill="#FFFFFF"></path>
                        <path d="M46.694964,50.3352518 C45.5366906,50.3352518 44.4776978,50.1366906 43.5841727,49.7726619 C44.3122302,50.6992806 45.4043165,51.294964 46.694964,51.294964 C47.952518,51.294964 49.0776978,50.6992806 49.8057554,49.7726619 C48.9122302,50.1366906 47.8532374,50.3352518 46.694964,50.3352518 Z M46.694964,60.3956835 C44.742446,60.3956835 42.9223022,60.0316547 41.4,59.4359712 C42.6244604,61.0244604 44.5438849,62.0172662 46.694964,62.0172662 C48.8460432,62.0172662 50.7654676,60.9913669 51.9899281,59.4359712 C50.4676259,60.0316547 48.6805755,60.3956835 46.694964,60.3956835 Z" id="Shape" fill="#C98C28"></path>
                        <polygon id="Path" fill="#CEA063" points="29.8503597 32.5309353 63.5395683 32.5309353 63.8705036 26.4417266 29.5194245 26.4417266 29.8503597 32.5309353"></polygon>
                        <path d="M63.9697842,26.4086331 L66.981295,8.96834532 C66.981295,8.96834532 62.447482,0.0330935252 46.7942446,0.0330935252 C27.7985612,0.0330935252 26.4086331,8.96834532 26.4086331,8.96834532 L29.4532374,26.4086331 L63.9697842,26.4086331 Z" id="Path" fill="#050505"></path>
                        <polygon id="Path" fill="#DD002A" points="28.1625899 18.9294964 29.4532374 26.4086331 63.9697842 26.4086331 65.2604317 18.9294964 28.1625899 18.9294964"></polygon>
                        <polygon id="Path" fill="#050505" points="69.1654676 30.5784173 24.257554 30.5784173 22.8676259 26.4086331 70.5884892 26.4086331"></polygon>
                        <circle id="Oval" fill="#050505" cx="46.694964" cy="21.3453237" r="5.55971223"></circle>
                        <path d="M46.694964,26.2100719 C44.0143885,26.2100719 41.8302158,24.0258993 41.8302158,21.3453237 C41.8302158,18.6647482 44.0143885,16.4805755 46.694964,16.4805755 C49.3755396,16.4805755 51.5597122,18.6647482 51.5597122,21.3453237 C51.5928058,24.0258993 49.4086331,26.2100719 46.694964,26.2100719 Z M46.694964,17.1093525 C44.3453237,17.1093525 42.4589928,18.9956835 42.4589928,21.3453237 C42.4589928,23.694964 44.3453237,25.581295 46.694964,25.581295 C49.0446043,25.581295 50.9309353,23.694964 50.9309353,21.3453237 C50.9640288,18.9956835 49.0446043,17.1093525 46.694964,17.1093525 Z M46.694964,24.8532374 C44.742446,24.8532374 43.1870504,23.2647482 43.1870504,21.3453237 C43.1870504,19.3928058 44.7755396,17.8374101 46.694964,17.8374101 C48.647482,17.8374101 50.2028777,19.4258993 50.2028777,21.3453237 C50.2359712,23.2647482 48.647482,24.8532374 46.694964,24.8532374 Z M46.694964,18.2676259 C45.0071942,18.2676259 43.6503597,19.6244604 43.6503597,21.3122302 C43.6503597,23 45.0071942,24.3568345 46.694964,24.3568345 C48.3827338,24.3568345 49.7395683,23 49.7395683,21.3122302 C49.7726619,19.657554 48.3827338,18.2676259 46.694964,18.2676259 L46.694964,18.2676259 Z M47.5884892,20.0877698 L49.1769784,18.9294964 L47.952518,20.4848921 L49.8719424,19.9884892 L48.1841727,21.0143885 L50.1366906,21.2460432 L48.1841727,21.5769784 L49.971223,22.5035971 L48.0517986,22.1064748 L49.342446,23.5956835 L47.6877698,22.5366906 L48.3496403,24.3899281 L47.1913669,22.8014388 L47.1582734,24.7870504 L46.6618705,22.8676259 L45.9007194,24.6877698 L46.0992806,22.7352518 L44.742446,24.1582734 L45.6359712,22.4043165 L43.8489209,23.2316547 L45.3381295,21.9079137 L43.352518,22.0402878 L45.2057554,21.3453237 L43.3194245,20.7496403 L45.305036,20.7827338 L43.7496403,19.5582734 L45.5697842,20.2863309 L44.5769784,18.5985612 L46,19.9553957 L45.6690647,18.0028777 L46.5294964,19.7899281 L46.9266187,17.8705036 L47.0920863,19.8561151 L48.1841727,18.2014388 L47.5884892,20.0877698 L47.5884892,20.0877698 Z" id="Shape" fill="#DD002A"></path>
                        <path d="M47.7539568,21.3453237 C47.7539568,21.9410072 47.2906475,22.4043165 46.694964,22.4043165 C46.0992806,22.4043165 45.6359712,21.9410072 45.6359712,21.3453237 C45.6359712,20.7496403 46.0992806,20.2863309 46.694964,20.2863309 C47.2906475,20.2863309 47.7539568,20.7496403 47.7539568,21.3453237 Z" id="Path" fill="#050505"></path>
                        <path d="M46.4633094,68.8676259 C35.0791367,68.8676259 31.5381295,63.5726619 31.5381295,63.5726619 L31.9352518,71.1179856 C31.9352518,71.1179856 35.3438849,76.2805755 46.4633094,76.2805755 C55.7956835,76.2805755 61.4546763,71.1179856 61.4546763,71.1179856 L61.8848921,63.5395683 C61.8517986,63.5395683 56.0273381,68.8676259 46.4633094,68.8676259 Z" id="Path" fill="#DD002A"></path>
                        <path d="M46.694964,76.1482014 C46.9597122,75.1553957 47.1251799,73.8978417 47.1251799,72.5410072 C47.1251799,71.1510791 46.9597122,69.8935252 46.694964,68.9338129 C46.4302158,69.9266187 46.2647482,71.1841727 46.2647482,72.5410072 C46.2647482,73.8978417 46.4302158,75.1884892 46.694964,76.1482014 Z" id="Path" fill="#050505"></path>
                        <circle id="Oval" fill="#930023" cx="49.4086331" cy="72.7726619" r="1.02589928"></circle>
                        <circle id="Oval" fill="#FFFFFF" cx="49.1769784" cy="72.5410072" r="1.02589928"></circle>
                        <path d="M50.4014388,82.9323741 L43.0215827,82.9323741 C41.8633094,82.9323741 40.9035971,83.8920863 40.9035971,85.0503597 L40.9035971,90.3122302 C40.9035971,91.4705036 41.8633094,92.4302158 43.0215827,92.4302158 L50.4014388,92.4302158 C51.5597122,92.4302158 52.5194245,91.4705036 52.5194245,90.3122302 L52.5194245,85.0503597 C52.5194245,83.8589928 51.5597122,82.9323741 50.4014388,82.9323741 Z M49.8388489,85.8776978 L49.8388489,89.4848921 C49.8388489,89.6834532 49.6733813,89.8820144 49.4417266,89.8820144 L43.981295,89.8820144 C43.7827338,89.8820144 43.5841727,89.7165468 43.5841727,89.4848921 L43.5841727,85.8776978 C43.5841727,85.6791367 43.7496403,85.4805755 43.981295,85.4805755 L49.4417266,85.4805755 C49.6402878,85.4805755 49.8388489,85.6460432 49.8388489,85.8776978 Z" id="Shape" fill="#FFB000"></path>
                        <polygon id="Path" fill="#C98C28" points="42.6244604 38.8848921 46.694964 41.7640288 46.7280576 41.7309353 46.7611511 41.7640288 50.8316547 38.8848921 42.6244604 38.8848921"></polygon>
                        <path d="M46.694964,41.1352518 C46.694964,41.1352518 43.2532374,37.0316547 35.1784173,39.0503597 L22.9669065,51.0633094 C22.9669065,51.0633094 27.3683453,54.3395683 34.2517986,53.4460432 C41.1352518,52.552518 46.7611511,45.2057554 46.694964,41.1352518 Z M46.694964,41.1352518 C46.694964,41.1352518 50.1366906,37.0316547 58.2115108,39.0503597 C66.2863309,41.0690647 70.4230216,51.0633094 70.4230216,51.0633094 C70.4230216,51.0633094 66.0215827,54.3395683 59.1381295,53.4460432 C52.2546763,52.552518 46.6618705,45.2057554 46.694964,41.1352518 Z" id="Shape" fill="#4F1907"></path>
                        <polygon id="Path" fill="#DD002A" points="63.4402878 76.2143885 64.1683453 76.2143885 62.8776978 77.7697842 61.6201439 76.2143885 62.3482014 76.2143885 62.3482014 75.5194245 59.6345324 75.5194245 59.6345324 76.2143885 60.6935252 76.2143885 62.4805755 78.4316547 62.4805755 79.8215827 61.4215827 79.8215827 61.4215827 80.5165468 64.2676259 80.5165468 64.2676259 79.8215827 63.2086331 79.8215827 63.2086331 78.4316547 64.9956835 76.2143885 66.0546763 76.2143885 66.0546763 75.5194245 63.3410072 75.5194245 63.4402878 76.2143885"></polygon>
                    </g>
                </g>
            </g>
        </g>
    </g>
</svg>