<svg aria-hidden="true" style="position: absolute; width: 0; height: 0; overflow: hidden;" version="1.1" xmlns="http://www.w3.org/2000/svg" xmlns:xlink="http://www.w3.org/1999/xlink">
<defs>
<symbol id="icon-facebook-circle" viewBox="0 0 32 32">
<title>facebook-circle</title>
<path d="M14.26 11.916v1.836h-1.344v2.244h1.344v6.671h2.763v-6.671h1.853s0.175-1.076 0.259-2.253h-2.101v-1.533c0-0.231 0.301-0.539 0.6-0.539h1.504v-2.337h-2.047c-2.899 0-2.831 2.247-2.831 2.583z"></path>
<path d="M16 26.667c5.891 0 10.667-4.776 10.667-10.667s-4.776-10.667-10.667-10.667v0c-5.891 0-10.667 4.776-10.667 10.667s4.776 10.667 10.667 10.667v0zM16 29.333c-7.364 0-13.333-5.969-13.333-13.333s5.969-13.333 13.333-13.333 13.333 5.969 13.333 13.333-5.969 13.333-13.333 13.333z"></path>
</symbol>
<symbol id="icon-facebook-square" viewBox="0 0 32 32">
<title>facebook-square</title>
<path d="M14.26 11.916v1.836h-1.344v2.244h1.344v6.671h2.763v-6.671h1.853s0.175-1.076 0.259-2.253h-2.101v-1.533c0-0.231 0.301-0.539 0.6-0.539h1.504v-2.337h-2.047c-2.899 0-2.831 2.247-2.831 2.583z"></path>
<path d="M8 5.333c-1.473 0-2.667 1.194-2.667 2.667v0 16c0 1.473 1.194 2.667 2.667 2.667v0h16c1.473 0 2.667-1.194 2.667-2.667v0-16c0-1.473-1.194-2.667-2.667-2.667v0h-16zM8 2.667h16c2.946 0 5.333 2.388 5.333 5.333v0 16c0 2.946-2.388 5.333-5.333 5.333v0h-16c-2.946 0-5.333-2.388-5.333-5.333v0-16c0-2.946 2.388-5.333 5.333-5.333v0z"></path>
</symbol>
<symbol id="icon-alert" viewBox="0 0 32 32">
<title>alert</title>
<path d="M16 29.333c-7.364 0-13.333-5.969-13.333-13.333s5.969-13.333 13.333-13.333 13.333 5.969 13.333 13.333-5.969 13.333-13.333 13.333zM16 26.667c5.891 0 10.667-4.776 10.667-10.667s-4.776-10.667-10.667-10.667v0c-5.891 0-10.667 4.776-10.667 10.667s4.776 10.667 10.667 10.667v0zM16 9.333c0.736 0 1.333 0.597 1.333 1.333v0 6.667c0 0.736-0.597 1.333-1.333 1.333s-1.333-0.597-1.333-1.333v0-6.667c0-0.736 0.597-1.333 1.333-1.333v0zM16 22.667c-0.736 0-1.333-0.597-1.333-1.333s0.597-1.333 1.333-1.333v0c0.736 0 1.333 0.597 1.333 1.333s-0.597 1.333-1.333 1.333v0z"></path>
</symbol>
<symbol id="icon-arrow-left" viewBox="0 0 32 32">
<title>arrow-left</title>
<path d="M11.219 16.876l5.267 5.267c0.223 0.238 0.361 0.559 0.361 0.912 0 0.736-0.597 1.333-1.333 1.333-0.353 0-0.675-0.138-0.913-0.362l0.001 0.001-7.543-7.541c-0.242-0.241-0.392-0.574-0.392-0.943s0.15-0.702 0.392-0.943l7.543-7.543c0.243-0.251 0.583-0.407 0.959-0.407 0.736 0 1.333 0.597 1.333 1.333 0 0.376-0.156 0.716-0.407 0.959l-5.267 5.267h12.781c0.736 0 1.333 0.597 1.333 1.333s-0.597 1.333-1.333 1.333v0h-12.781z"></path>
</symbol>
<symbol id="icon-arrow-right" viewBox="0 0 32 32">
<title>arrow-right</title>
<path d="M20.781 14.209l-5.267-5.267c-0.232-0.24-0.374-0.566-0.374-0.926 0-0.736 0.597-1.333 1.333-1.333 0.36 0 0.687 0.143 0.927 0.375l7.542 7.542c0.242 0.241 0.392 0.574 0.392 0.943s-0.15 0.702-0.392 0.943l-7.543 7.543c-0.243 0.251-0.583 0.407-0.959 0.407-0.736 0-1.333-0.597-1.333-1.333 0-0.376 0.156-0.716 0.407-0.959l5.267-5.267h-12.781c-0.736 0-1.333-0.597-1.333-1.333s0.597-1.333 1.333-1.333v0h12.781z"></path>
</symbol>
<symbol id="icon-behance" viewBox="0 0 32 32">
<title>behance</title>
<path d="M26.7 9.692h-6.668v-1.656h6.668v1.656zM15.593 16.484c0.429 0.667 0.644 1.476 0.644 2.425 0 0.983-0.243 1.864-0.735 2.643-0.312 0.513-0.703 0.944-1.161 1.292l-0.011 0.008c-0.525 0.4-1.155 0.691-1.841 0.827l-0.029 0.005c-0.679 0.142-1.459 0.223-2.259 0.223-0.028 0-0.055-0-0.083-0l0.004 0h-7.457v-16.559h7.997c2.015 0.033 3.443 0.617 4.288 1.764 0.507 0.704 0.757 1.547 0.757 2.529 0 1.012-0.253 1.821-0.765 2.437-0.284 0.345-0.704 0.659-1.26 0.943 0.841 0.308 1.48 0.793 1.908 1.463zM6.487 13.877h3.503c0.72 0 1.303-0.137 1.751-0.411s0.672-0.76 0.672-1.456c0-0.771-0.296-1.281-0.889-1.528-0.511-0.171-1.163-0.259-1.955-0.259h-3.083v3.653zM12.749 18.673c0-0.86-0.352-1.455-1.053-1.773-0.393-0.183-0.947-0.275-1.656-0.281h-3.555v4.413h3.501c0.719 0 1.275-0.095 1.676-0.291 0.724-0.361 1.088-1.048 1.088-2.068zM29.173 15.98c0.080 0.541 0.117 1.327 0.103 2.355h-8.636c0.048 1.192 0.459 2.025 1.24 2.503 0.471 0.299 1.040 0.445 1.709 0.445 0.704 0 1.279-0.179 1.72-0.545 0.241-0.193 0.453-0.467 0.637-0.813h3.165c-0.083 0.704-0.464 1.419-1.148 2.144-1.061 1.153-2.549 1.732-4.461 1.732-1.579 0-2.971-0.488-4.179-1.46-1.204-0.976-1.808-2.557-1.808-4.752 0-2.057 0.543-3.632 1.632-4.728 1.093-1.099 2.504-1.645 4.243-1.645 1.032 0 1.96 0.184 2.789 0.555 0.827 0.371 1.509 0.955 2.048 1.756 0.487 0.707 0.8 1.523 0.947 2.453zM26.057 16.288c-0.057-0.824-0.333-1.448-0.828-1.875-0.492-0.427-1.107-0.641-1.839-0.641-0.797 0-1.413 0.229-1.849 0.68-0.44 0.449-0.715 1.061-0.827 1.836h5.343z"></path>
</symbol>
<symbol id="icon-calendar" viewBox="0 0 32 32">
<title>calendar</title>
<path d="M26.667 13.333v-2.667c0-0.736-0.597-1.333-1.333-1.333v0h-1.333v1.333c0 0.736-0.597 1.333-1.333 1.333s-1.333-0.597-1.333-1.333v0-1.333h-10.667v1.333c0 0.736-0.597 1.333-1.333 1.333s-1.333-0.597-1.333-1.333v0-1.333h-1.333c-0.736 0-1.333 0.597-1.333 1.333v0 2.667h21.333zM26.667 16h-21.333v8c0 0.736 0.597 1.333 1.333 1.333v0h18.667c0.736 0 1.333-0.597 1.333-1.333v0-8zM24 6.667h1.333c2.209 0 4 1.791 4 4v0 13.333c0 2.209-1.791 4-4 4v0h-18.667c-2.209 0-4-1.791-4-4v0-13.333c0-2.209 1.791-4 4-4v0h1.333v-1.333c0-0.736 0.597-1.333 1.333-1.333s1.333 0.597 1.333 1.333v0 1.333h10.667v-1.333c0-0.736 0.597-1.333 1.333-1.333s1.333 0.597 1.333 1.333v0 1.333z"></path>
</symbol>
<symbol id="icon-card" viewBox="0 0 32 32">
<title>card</title>
<path d="M5.333 7.333h21.333c1.473 0 2.667 1.108 2.667 2.476v12.381c0 1.368-1.193 2.476-2.667 2.476h-21.333c-1.473 0-2.667-1.108-2.667-2.476v-12.381c0-1.368 1.193-2.476 2.667-2.476zM17.333 11.333c-0.736 0-1.333 0.597-1.333 1.333s0.597 1.333 1.333 1.333v0h8c0.736 0 1.333-0.597 1.333-1.333s-0.597-1.333-1.333-1.333v0h-8zM17.333 15.333c-0.736 0-1.333 0.597-1.333 1.333s0.597 1.333 1.333 1.333v0h8c0.736 0 1.333-0.597 1.333-1.333s-0.597-1.333-1.333-1.333v0h-8zM6.667 11.333c-0.736 0-1.333 0.597-1.333 1.333v0 4c0 0.736 0.597 1.333 1.333 1.333v0h4c0.736 0 1.333-0.597 1.333-1.333v0-4c0-0.736-0.597-1.333-1.333-1.333v0h-4z"></path>
</symbol>
<symbol id="icon-category" viewBox="0 0 32 32">
<title>category</title>
<path d="M17.107 8h8.227c2.209 0 4 1.791 4 4v0 10.667c0 2.209-1.791 4-4 4v0h-18.667c-2.209 0-4-1.791-4-4v0-13.333c0-2.209 1.791-4 4-4v0h6.667c1.741 0 3.223 1.113 3.773 2.667z"></path>
</symbol>
<symbol id="icon-check" viewBox="0 0 32 32">
<title>check</title>
<path d="M13.981 22.307c-0.001 0-0.002 0-0.003 0-0.367 0-0.699-0.149-0.94-0.389l-5.656-5.657c-0.252-0.243-0.408-0.583-0.408-0.96 0-0.736 0.597-1.333 1.333-1.333 0.376 0 0.716 0.156 0.958 0.406l4.714 4.714 8.487-8.484c0.241-0.242 0.575-0.391 0.943-0.391 0.737 0 1.334 0.597 1.334 1.334 0 0.368-0.149 0.701-0.39 0.943l-9.429 9.429c-0.241 0.241-0.573 0.389-0.94 0.389-0.001 0-0.002 0-0.003 0h0z"></path>
</symbol>
<symbol id="icon-chevron-left" viewBox="0 0 32 32">
<title>chevron-left</title>
<path d="M14.343 16l6.6 6.6c0.251 0.243 0.407 0.583 0.407 0.959 0 0.736-0.597 1.333-1.333 1.333-0.376 0-0.716-0.156-0.959-0.407l-7.543-7.543c-0.241-0.241-0.39-0.575-0.39-0.943s0.149-0.701 0.39-0.943l7.543-7.543c0.24-0.232 0.566-0.374 0.926-0.374 0.736 0 1.333 0.597 1.333 1.333 0 0.36-0.143 0.687-0.375 0.927l-6.6 6.6z"></path>
</symbol>
<symbol id="icon-chevron-right" viewBox="0 0 32 32">
<title>chevron-right</title>
<path d="M17.752 16.095l-6.6-6.6c-0.232-0.24-0.374-0.566-0.374-0.926 0-0.736 0.597-1.333 1.333-1.333 0.36 0 0.687 0.143 0.927 0.375l7.542 7.542c0.241 0.241 0.39 0.575 0.39 0.943s-0.149 0.701-0.39 0.943l-7.543 7.543c-0.24 0.232-0.566 0.374-0.926 0.374-0.736 0-1.333-0.597-1.333-1.333 0-0.36 0.143-0.687 0.375-0.927l6.6-6.6z"></path>
</symbol>
<symbol id="icon-chevron-square-up-f" viewBox="0 0 32 32">
<title>chevron-square-up-f</title>
<path d="M16 14.896l4.715 4.713c0.24 0.232 0.566 0.374 0.926 0.374 0.736 0 1.333-0.597 1.333-1.333 0-0.36-0.143-0.687-0.375-0.927l-5.657-5.657c-0.241-0.241-0.575-0.39-0.943-0.39s-0.701 0.149-0.943 0.39l-5.657 5.657c-0.232 0.24-0.374 0.566-0.374 0.926 0 0.736 0.597 1.333 1.333 1.333 0.36 0 0.687-0.143 0.927-0.375l4.714-4.713zM8 2.667h16c2.946 0 5.333 2.388 5.333 5.333v0 16c0 2.946-2.388 5.333-5.333 5.333v0h-16c-2.946 0-5.333-2.388-5.333-5.333v0-16c0-2.946 2.388-5.333 5.333-5.333v0z"></path>
</symbol>
<symbol id="icon-chevron-up" viewBox="0 0 32 32">
<title>chevron-up</title>
<path d="M16.095 13.771l-6.6 6.6c-0.24 0.232-0.566 0.374-0.926 0.374-0.736 0-1.333-0.597-1.333-1.333 0-0.36 0.143-0.687 0.375-0.927l7.542-7.542c0.241-0.241 0.575-0.39 0.943-0.39s0.701 0.149 0.943 0.39l7.543 7.543c0.232 0.24 0.374 0.566 0.374 0.926 0 0.736-0.597 1.333-1.333 1.333-0.36 0-0.687-0.143-0.927-0.375l-6.6-6.6z"></path>
</symbol>
<symbol id="icon-chevrons-down" viewBox="0 0 32 32">
<title>chevrons-down</title>
<path d="M16.095 13.752l6.6-6.6c0.243-0.251 0.583-0.407 0.959-0.407 0.736 0 1.333 0.597 1.333 1.333 0 0.376-0.156 0.716-0.407 0.959l-7.543 7.543c-0.241 0.241-0.575 0.39-0.943 0.39s-0.701-0.149-0.943-0.39l-7.543-7.543c-0.251-0.243-0.407-0.583-0.407-0.959 0-0.736 0.597-1.333 1.333-1.333 0.376 0 0.716 0.156 0.959 0.407l6.6 6.6zM16.095 21.752l6.6-6.6c0.243-0.251 0.583-0.407 0.959-0.407 0.736 0 1.333 0.597 1.333 1.333 0 0.376-0.156 0.716-0.407 0.959l-7.543 7.543c-0.241 0.241-0.575 0.39-0.943 0.39s-0.701-0.149-0.943-0.39l-7.543-7.543c-0.251-0.243-0.407-0.583-0.407-0.959 0-0.736 0.597-1.333 1.333-1.333 0.376 0 0.716 0.156 0.959 0.407l6.6 6.6z"></path>
</symbol>
<symbol id="icon-clock" viewBox="0 0 32 32">
<title>clock</title>
<path d="M17.333 14.667h5.333c0.736 0 1.333 0.597 1.333 1.333s-0.597 1.333-1.333 1.333v0h-6.667c-0.736 0-1.333-0.597-1.333-1.333v0-8c0-0.736 0.597-1.333 1.333-1.333s1.333 0.597 1.333 1.333v0 6.667zM16 29.333c-7.364 0-13.333-5.969-13.333-13.333s5.969-13.333 13.333-13.333 13.333 5.969 13.333 13.333-5.969 13.333-13.333 13.333zM16 26.667c5.891 0 10.667-4.776 10.667-10.667s-4.776-10.667-10.667-10.667v0c-5.891 0-10.667 4.776-10.667 10.667s4.776 10.667 10.667 10.667v0z"></path>
</symbol>
<symbol id="icon-close" viewBox="0 0 32 32">
<title>close</title>
<path d="M17.752 15.867l4.713-4.715c0.251-0.243 0.407-0.583 0.407-0.959 0-0.736-0.597-1.333-1.333-1.333-0.376 0-0.716 0.156-0.959 0.407l-4.715 4.714-4.713-4.713c-0.243-0.251-0.583-0.407-0.959-0.407-0.736 0-1.333 0.597-1.333 1.333 0 0.376 0.156 0.716 0.407 0.959l4.714 4.714-4.713 4.715c-0.251 0.243-0.407 0.583-0.407 0.959 0 0.736 0.597 1.333 1.333 1.333 0.376 0 0.716-0.156 0.959-0.407l4.714-4.714 4.715 4.713c0.243 0.251 0.583 0.407 0.959 0.407 0.736 0 1.333-0.597 1.333-1.333 0-0.376-0.156-0.716-0.407-0.959l-4.714-4.715z"></path>
</symbol>
<symbol id="icon-codepen" viewBox="0 0 32 32">
<title>codepen</title>
<path d="M16.732 3.013c-0.324-0.217-0.722-0.347-1.151-0.347-0.445 0-0.858 0.14-1.197 0.378l0.007-0.004-10.487 7.307c-0.56 0.389-0.893 1.027-0.893 1.709v7.871c0 0.7 0.352 1.352 0.936 1.737l10.659 7.047c0.323 0.216 0.721 0.345 1.149 0.345s0.825-0.129 1.156-0.35l-0.008 0.005 10.871-7.181c0.584-0.387 0.935-1.040 0.935-1.739v-7.733c0-0.699-0.351-1.351-0.933-1.737l-11.043-7.307zM24.852 11.537l-4.019 2.697-3.768-2.74-0.024-5.389 7.809 5.432zM14.316 6.111v5.276l-3.863 2.699-3.849-2.583 7.712-5.392zM5.547 14.101l2.493 1.671-2.493 1.744v-3.413zM14.38 25.345l-7.775-5.212 3.884-2.716 3.893 2.611v5.32zM12.907 15.728l2.517-1.76 2.933 1.927-2.6 1.747-2.851-1.913zM17.129 25.345v-5.32l3.72-2.493 4.004 2.633-7.724 5.18zM25.963 17.605l-2.64-1.733 2.64-1.772v3.507z"></path>
</symbol>
<symbol id="icon-coffee" viewBox="0 0 32 32">
<title>coffee</title>
<path d="M2.667 8h22.667c2.209 0 4 1.791 4 4s-1.791 4-4 4v0h-1.669c-1.223 4.643-5.383 8.011-10.331 8.011-5.891 0-10.667-4.776-10.667-10.667 0-0.004 0-0.007 0-0.011v0.001-5.333zM24 13.333h1.333c0.736 0 1.333-0.597 1.333-1.333s-0.597-1.333-1.333-1.333v0h-1.333v2.667z"></path>
</symbol>
<symbol id="icon-comment" viewBox="0 0 32 32">
<title>comment</title>
<path d="M11.971 22.625c0-0.016 0.001-0.031 0.003-0.046l-0 0.002-0.003 0.044zM11.972 22.403c0.004 0.014 0.005 0.015 0.005 0.017l-0.004-0.013v-0.004zM12.025 24.936c3.571-3.283 4.009-3.541 5.057-3.645 4.736-0.471 8.251-3.944 8.251-7.952 0-4.347-4.113-8.004-9.333-8.004s-9.333 3.659-9.333 8.004c0 2.524 1.567 5.023 4.072 6.609 1.044 0.66 1.277 1.489 1.255 2.371-0.002 0.075-0.007 0.145-0.013 0.213l0.001-0.013c0.029 0.44 0.043 1.227 0.044 2.419zM17.345 23.945c-0.247 0.024-2.167 1.701-5.76 5.032-0.237 0.22-0.556 0.356-0.907 0.356-0.736 0-1.333-0.597-1.333-1.333 0-0.004 0-0.008 0-0.012v0.001c0.027-3.149 0.015-4.945-0.032-5.387-0.024-0.231 0.043-0.373 0-0.4-3.036-1.919-5.313-5.168-5.313-8.861 0-5.895 5.373-10.673 12-10.673s12 4.779 12 10.672c0 5.489-4.66 10.012-10.653 10.607z"></path>
</symbol>
<symbol id="icon-disqus" viewBox="0 0 32 32">
<title>disqus</title>
<path d="M16.487 28.333c-0.012 0-0.025 0-0.039 0-3.15 0-6.039-1.12-8.289-2.983l0.022 0.017-5.513 0.721 2.127-5.073c-0.729-1.51-1.155-3.283-1.155-5.156 0-0.009 0-0.019 0-0.028v0.001c0-6.905 5.755-12.5 12.847-12.5 7.101 0 12.848 5.595 12.848 12.5s-5.747 12.5-12.847 12.5zM16.568 9.167h-4.735v13.333h4.668c4.417 0 6.999-2.859 6.999-6.703v-0.037c0-3.843-2.548-6.595-6.932-6.595z"></path>
<path d="M20.005 15.841c0 2.16-1.351 3.379-3.387 3.379h-1.384v-6.783h1.384c2.036 0 3.387 1.236 3.387 3.369v0.035z"></path>
</symbol>
<symbol id="icon-download" viewBox="0 0 32 32">
<title>download</title>
<path d="M17.333 15.521l1.495-1.493c0.24-0.232 0.567-0.375 0.927-0.375 0.736 0 1.333 0.597 1.333 1.333 0 0.36-0.142 0.686-0.374 0.926l0-0-3.772 3.772c-0.241 0.242-0.574 0.392-0.943 0.392s-0.702-0.15-0.943-0.392l-3.772-3.772c-0.241-0.241-0.39-0.575-0.39-0.943 0-0.737 0.597-1.334 1.334-1.334 0.369 0 0.703 0.15 0.944 0.391l1.493 1.495v-7.521c0-0.736 0.597-1.333 1.333-1.333s1.333 0.597 1.333 1.333v0 7.521zM8 22.667h16c0.736 0 1.333 0.597 1.333 1.333s-0.597 1.333-1.333 1.333v0h-16c-0.736 0-1.333-0.597-1.333-1.333s0.597-1.333 1.333-1.333v0z"></path>
</symbol>
<symbol id="icon-dribbble" viewBox="0 0 32 32">
<title>dribbble</title>
<path d="M16 32c-8.82 0-16-7.18-16-16s7.18-16 16-16 16 7.18 16 16-7.18 16-16 16zM29.493 18.189c-0.467-0.147-4.227-1.271-8.512-0.584 1.787 4.912 2.516 8.912 2.656 9.744 3.067-2.073 5.248-5.36 5.86-9.16zM21.34 28.6c-0.204-1.2-1-5.376-2.92-10.36l-0.088 0.027c-7.72 2.687-10.48 8.033-10.72 8.533 2.307 1.811 5.227 2.888 8.387 2.888 1.893 0 3.693-0.387 5.333-1.085zM5.847 25.16c0.309-0.533 4.060-6.74 11.109-9.020 0.18-0.060 0.36-0.112 0.54-0.16-0.347-0.78-0.72-1.556-1.109-2.32-6.827 2.040-13.445 1.953-14.045 1.94l-0.005 0.416c0 3.511 1.331 6.716 3.512 9.14zM2.62 13.22c0.613 0.011 6.244 0.035 12.636-1.664-2.264-4.024-4.707-7.411-5.067-7.904-3.824 1.8-6.68 5.32-7.568 9.56zM12.8 2.736c0.376 0.507 2.86 3.885 5.096 8 4.86-1.82 6.92-4.587 7.164-4.936-2.413-2.147-5.587-3.448-9.060-3.448-1.1 0-2.173 0.133-3.2 0.38zM26.58 7.38c-0.291 0.387-2.58 3.324-7.632 5.387 0.32 0.653 0.627 1.313 0.907 1.981 0.107 0.24 0.2 0.48 0.293 0.707 4.547-0.573 9.067 0.347 9.52 0.44-0.027-3.227-1.173-6.187-3.080-8.507z"></path>
</symbol>
<symbol id="icon-envelope-f" viewBox="0 0 32 32">
<title>envelope-f</title>
<path d="M27.429 6.777l-10.528 9.383c-0.235 0.21-0.546 0.338-0.887 0.338s-0.653-0.128-0.889-0.339l0.001 0.001-10.572-9.377c0.233-0.074 0.5-0.116 0.778-0.116 0 0 0 0 0.001 0h21.333c0.001 0 0.002 0 0.002 0 0.271 0 0.533 0.040 0.779 0.116l-0.019-0.005zM29.237 8.624c0.063 0.227 0.096 0.464 0.096 0.709v13.333c0 1.473-1.194 2.667-2.667 2.667v0h-21.333c-1.473 0-2.667-1.194-2.667-2.667v0-13.333c0-0.247 0.033-0.485 0.096-0.712l10.589 9.531c0.704 0.629 1.638 1.014 2.661 1.014s1.958-0.385 2.665-1.017l-0.004 0.003 10.563-9.528z"></path>
</symbol>
<symbol id="icon-facebook" viewBox="0 0 32 32">
<title>facebook</title>
<path d="M12.061 7.82v3.664h-2.685v4.48h2.685v13.315h5.512v-13.313h3.7s0.347-2.148 0.515-4.497h-4.192v-3.064c0-0.457 0.6-1.073 1.195-1.073h3.005v-4.664h-4.085c-5.787 0-5.649 4.484-5.649 5.153z"></path>
</symbol>
<symbol id="icon-github-circle" viewBox="0 0 32 32">
<title>github-circle</title>
<path d="M13.573 22.677c0.16 0 0.281-0.005 0.361-0.016 0.097-0.020 0.18-0.071 0.239-0.142l0.001-0.001c0.080-0.084 0.12-0.205 0.12-0.365l-0.005-0.743c-0.004-0.473-0.005-0.849-0.005-1.125l-0.251 0.044c-0.15 0.025-0.323 0.039-0.5 0.039-0.038 0-0.075-0.001-0.112-0.002l0.005 0c-0.272-0.005-0.534-0.032-0.789-0.081l0.029 0.005c-0.28-0.053-0.527-0.168-0.734-0.331l0.004 0.003c-0.221-0.168-0.388-0.397-0.477-0.661l-0.003-0.010-0.109-0.252c-0.099-0.212-0.214-0.395-0.348-0.561l0.004 0.005c-0.123-0.174-0.283-0.315-0.469-0.413l-0.007-0.003-0.076-0.053c-0.053-0.039-0.1-0.083-0.14-0.132l-0.001-0.001c-0.039-0.044-0.072-0.094-0.097-0.148l-0.002-0.004c-0.021-0.051-0.004-0.093 0.053-0.125 0.078-0.032 0.17-0.051 0.265-0.051 0.018 0 0.037 0.001 0.055 0.002l-0.002-0 0.219 0.033c0.147 0.028 0.327 0.116 0.541 0.261 0.213 0.147 0.391 0.335 0.529 0.568 0.168 0.299 0.369 0.527 0.607 0.683 0.199 0.142 0.446 0.229 0.713 0.235l0.001 0c0.24 0 0.448-0.017 0.623-0.053 0.186-0.039 0.351-0.096 0.505-0.171l-0.013 0.006c0.065-0.487 0.243-0.863 0.533-1.124-0.421-0.042-0.801-0.112-1.171-0.209l0.052 0.012c-0.391-0.109-0.732-0.255-1.048-0.438l0.021 0.011c-0.346-0.19-0.638-0.435-0.876-0.725l-0.004-0.005c-0.232-0.292-0.423-0.673-0.573-1.147-0.142-0.463-0.223-0.994-0.223-1.545 0-0.033 0-0.066 0.001-0.098l-0 0.005c0-0.88 0.288-1.631 0.863-2.249-0.269-0.663-0.244-1.405 0.076-2.228 0.212-0.067 0.525-0.017 0.94 0.147s0.72 0.304 0.912 0.421c0.193 0.116 0.347 0.213 0.464 0.293 0.622-0.179 1.336-0.283 2.074-0.283 0.008 0 0.016 0 0.024 0h-0.001c0.72 0 1.42 0.093 2.097 0.284l0.413-0.263c0.285-0.173 0.62-0.335 1.005-0.48 0.387-0.147 0.681-0.187 0.885-0.12 0.328 0.823 0.357 1.565 0.087 2.227 0.576 0.62 0.864 1.369 0.864 2.251 0 0.619-0.075 1.167-0.224 1.644s-0.343 0.859-0.579 1.147c-0.245 0.293-0.539 0.536-0.87 0.719l-0.016 0.008c-0.295 0.172-0.636 0.317-0.995 0.419l-0.031 0.008c-0.318 0.085-0.699 0.154-1.089 0.193l-0.031 0.003c0.379 0.327 0.568 0.844 0.568 1.551v2.609c0 0.124 0.019 0.224 0.055 0.301 0.035 0.074 0.097 0.131 0.173 0.158l0.002 0.001c0.080 0.028 0.152 0.047 0.213 0.053 0.063 0.008 0.151 0.012 0.267 0.012h-5.591z"></path>
<path d="M16 26.667c5.891 0 10.667-4.776 10.667-10.667s-4.776-10.667-10.667-10.667v0c-5.891 0-10.667 4.776-10.667 10.667s4.776 10.667 10.667 10.667v0zM16 29.333c-7.364 0-13.333-5.969-13.333-13.333s5.969-13.333 13.333-13.333 13.333 5.969 13.333 13.333-5.969 13.333-13.333 13.333z"></path>
</symbol>
<symbol id="icon-github" viewBox="0 0 32 32">
<title>github</title>
<path d="M27.84 4.132c-0.977-0.977-2.153-1.465-3.529-1.465h-16.649c-1.376 0-2.552 0.488-3.529 1.465s-1.465 2.153-1.465 3.529v16.649c0 1.376 0.488 2.552 1.465 3.529s2.153 1.465 3.529 1.465h3.885c0.253 0 0.444-0.009 0.572-0.027 0.154-0.032 0.285-0.112 0.381-0.224l0.001-0.001c0.127-0.133 0.191-0.327 0.191-0.58l-0.009-1.18c-0.005-0.752-0.008-1.347-0.008-1.787l-0.4 0.069c-0.253 0.047-0.573 0.067-0.961 0.061-0.432-0.008-0.847-0.052-1.252-0.129l0.046 0.007c-0.445-0.084-0.838-0.267-1.169-0.525l0.006 0.005c-0.351-0.267-0.616-0.631-0.758-1.051l-0.005-0.016-0.173-0.4c-0.158-0.337-0.34-0.628-0.553-0.892l0.007 0.008c-0.248-0.324-0.5-0.543-0.755-0.659l-0.12-0.087c-0.085-0.062-0.16-0.13-0.225-0.206l-0.001-0.002c-0.062-0.070-0.114-0.15-0.154-0.237l-0.002-0.006c-0.035-0.081-0.005-0.148 0.087-0.2 0.093-0.053 0.26-0.079 0.504-0.079l0.347 0.053c0.231 0.045 0.517 0.184 0.857 0.415 0.344 0.237 0.626 0.539 0.834 0.89l0.007 0.013c0.267 0.473 0.587 0.835 0.963 1.084 0.376 0.248 0.755 0.373 1.136 0.373s0.711-0.029 0.989-0.087c0.295-0.062 0.556-0.152 0.801-0.27l-0.021 0.009c0.104-0.773 0.387-1.371 0.849-1.787-0.669-0.067-1.273-0.177-1.86-0.33l0.083 0.018c-0.621-0.173-1.162-0.404-1.665-0.694l0.034 0.018c-0.549-0.303-1.013-0.692-1.389-1.154l-0.007-0.009c-0.369-0.463-0.673-1.069-0.911-1.82-0.236-0.752-0.355-1.62-0.355-2.603 0-1.399 0.456-2.589 1.369-3.573-0.427-1.051-0.387-2.231 0.121-3.536 0.336-0.105 0.833-0.027 1.492 0.233s1.141 0.483 1.448 0.667c0.307 0.187 0.552 0.343 0.737 0.469 0.989-0.286 2.126-0.451 3.301-0.451 0.010 0 0.020 0 0.030 0h-0.002c1.145 0 2.255 0.151 3.331 0.451l0.659-0.416c0.455-0.278 0.981-0.535 1.532-0.742l0.064-0.021c0.613-0.232 1.080-0.295 1.405-0.191 0.52 1.307 0.565 2.485 0.137 3.537 0.913 0.983 1.371 2.173 1.371 3.573 0 0.983-0.119 1.853-0.356 2.609-0.236 0.757-0.543 1.364-0.919 1.821s-0.844 0.84-1.404 1.153c-0.56 0.312-1.104 0.537-1.631 0.676-0.504 0.136-1.109 0.246-1.727 0.309l-0.050 0.004c0.6 0.52 0.901 1.34 0.901 2.461v4.147c0 0.196 0.028 0.355 0.087 0.476 0.055 0.118 0.153 0.208 0.274 0.251l0.003 0.001c0.128 0.045 0.24 0.075 0.339 0.085 0.099 0.013 0.24 0.017 0.424 0.017h3.885c1.376 0 2.552-0.488 3.529-1.465 0.976-0.976 1.465-2.153 1.465-3.529v-16.648c0-1.376-0.489-2.552-1.467-3.529z"></path>
</symbol>
<symbol id="icon-grid" viewBox="0 0 32 32">
<title>grid</title>
<path d="M5.333 2.667h5.333c1.473 0 2.667 1.194 2.667 2.667v0 5.333c0 1.473-1.194 2.667-2.667 2.667v0h-5.333c-1.473 0-2.667-1.194-2.667-2.667v0-5.333c0-1.473 1.194-2.667 2.667-2.667v0zM21.333 2.667h5.333c1.473 0 2.667 1.194 2.667 2.667v0 5.333c0 1.473-1.194 2.667-2.667 2.667v0h-5.333c-1.473 0-2.667-1.194-2.667-2.667v0-5.333c0-1.473 1.194-2.667 2.667-2.667v0zM21.333 18.667h5.333c1.473 0 2.667 1.194 2.667 2.667v0 5.333c0 1.473-1.194 2.667-2.667 2.667v0h-5.333c-1.473 0-2.667-1.194-2.667-2.667v0-5.333c0-1.473 1.194-2.667 2.667-2.667v0zM5.333 18.667h5.333c1.473 0 2.667 1.194 2.667 2.667v0 5.333c0 1.473-1.194 2.667-2.667 2.667v0h-5.333c-1.473 0-2.667-1.194-2.667-2.667v0-5.333c0-1.473 1.194-2.667 2.667-2.667v0z"></path>
</symbol>
<symbol id="icon-heart-alt" viewBox="0 0 32 32">
<title>heart-alt</title>
<path d="M7.515 14.944l8.485 8.485 8.485-8.485c0.724-0.724 1.172-1.724 1.172-2.829 0-2.209-1.791-4-4-4-1.105 0-2.105 0.448-2.829 1.172v0l-2.828 2.828-2.828-2.827c-0.722-0.71-1.712-1.149-2.806-1.149-2.209 0-4 1.791-4 4 0 1.093 0.438 2.084 1.149 2.806l-0.001-0.001zM15.057 7.4l0.943 0.943 0.943-0.943c1.208-1.219 2.883-1.973 4.735-1.973 3.682 0 6.667 2.985 6.667 6.667 0 1.851-0.755 3.526-1.973 4.734l-9.427 9.428c-0.241 0.242-0.575 0.391-0.943 0.391s-0.702-0.149-0.943-0.391v0l-9.428-9.427c-1.242-1.212-2.013-2.903-2.013-4.774 0-3.682 2.985-6.667 6.667-6.667 1.87 0 3.561 0.77 4.772 2.011l0.001 0.001z"></path>
</symbol>
<symbol id="icon-heart" viewBox="0 0 32 32">
<title>heart</title>
<path d="M15.057 7.4l0.943 0.944 0.943-0.943c1.208-1.219 2.883-1.973 4.735-1.973 3.682 0 6.667 2.985 6.667 6.667 0 1.851-0.755 3.526-1.973 4.734l-9.427 9.428c-0.241 0.242-0.575 0.391-0.943 0.391s-0.702-0.149-0.943-0.391v0l-9.428-9.428c-1.242-1.212-2.013-2.903-2.013-4.774 0-3.682 2.985-6.667 6.667-6.667 1.87 0 3.561 0.77 4.772 2.011l0.001 0.001z"></path>
</symbol>
<symbol id="icon-help" viewBox="0 0 32 32">
<title>help</title>
<path d="M16 29.191c-7.364 0-13.333-5.969-13.333-13.333 0-7.363 5.969-13.333 13.333-13.333s13.333 5.971 13.333 13.333c0 7.364-5.969 13.333-13.333 13.333zM17.701 18.233l0.525-0.411c1.096-0.862 1.793-2.188 1.793-3.677 0-2.577-2.089-4.667-4.667-4.667-1.088 0-2.090 0.373-2.883 0.997l0.010-0.008-0.525 0.411c-0.322 0.246-0.528 0.63-0.528 1.063 0 0.736 0.597 1.333 1.333 1.333 0.318 0 0.61-0.111 0.839-0.297l-0.002 0.002 0.525-0.411c0.335-0.262 0.762-0.42 1.226-0.42 1.105 0 2 0.895 2 2 0 0.636-0.297 1.203-0.759 1.569l-0.004 0.003-0.525 0.411c-0.313 0.246-0.512 0.625-0.512 1.051 0 0.737 0.597 1.334 1.334 1.334 0.311 0 0.597-0.107 0.824-0.285l-0.003 0.002zM16 22.524c0.736 0 1.333-0.597 1.333-1.333s-0.597-1.333-1.333-1.333v0c-0.736 0-1.333 0.597-1.333 1.333s0.597 1.333 1.333 1.333v0z"></path>
</symbol>
<symbol id="icon-home" viewBox="0 0 32 32">
<title>home</title>
<path d="M26.667 26.667v-14.491l-10.667-6.4-10.667 6.4v14.491h5.333v-3.667c0-2.946 2.388-5.333 5.333-5.333s5.333 2.388 5.333 5.333v0 3.667h5.333zM18.667 29.333v-6.333c0-1.473-1.194-2.667-2.667-2.667s-2.667 1.194-2.667 2.667v0 6.333h-8c-1.473 0-2.667-1.194-2.667-2.667v0-14.491c0 0 0-0 0-0 0-0.966 0.514-1.812 1.283-2.28l0.012-0.007 10.667-6.4c0.392-0.239 0.865-0.38 1.372-0.38s0.98 0.141 1.384 0.387l-0.012-0.007 10.667 6.4c0.781 0.475 1.295 1.321 1.295 2.287 0 0 0 0 0 0v0 14.491c0 1.473-1.194 2.667-2.667 2.667v0h-8z"></path>
</symbol>
<symbol id="icon-info" viewBox="0 0 32 32">
<title>info</title>
<path d="M16 29.333c-7.364 0-13.333-5.969-13.333-13.333s5.969-13.333 13.333-13.333 13.333 5.969 13.333 13.333-5.969 13.333-13.333 13.333zM16 26.667c5.891 0 10.667-4.776 10.667-10.667s-4.776-10.667-10.667-10.667v0c-5.891 0-10.667 4.776-10.667 10.667s4.776 10.667 10.667 10.667v0zM16 13.333c0.736 0 1.333 0.597 1.333 1.333v0 6.667c0 0.736-0.597 1.333-1.333 1.333s-1.333-0.597-1.333-1.333v0-6.667c0-0.736 0.597-1.333 1.333-1.333v0zM16 12c-0.736 0-1.333-0.597-1.333-1.333s0.597-1.333 1.333-1.333v0c0.736 0 1.333 0.597 1.333 1.333s-0.597 1.333-1.333 1.333v0z"></path>
</symbol>
<symbol id="icon-instagram" viewBox="0 0 32 32">
<title>instagram</title>
<path d="M16 0c-4.347 0-4.889 0.020-6.596 0.096-1.704 0.080-2.864 0.348-3.884 0.744-1.052 0.408-1.945 0.956-2.835 1.845s-1.439 1.781-1.845 2.835c-0.396 1.020-0.665 2.18-0.744 3.884-0.080 1.707-0.096 2.249-0.096 6.596s0.020 4.889 0.096 6.596c0.080 1.703 0.348 2.864 0.744 3.884 0.408 1.051 0.956 1.945 1.845 2.835 0.889 0.888 1.781 1.439 2.835 1.845 1.021 0.395 2.181 0.665 3.884 0.744 1.707 0.080 2.249 0.096 6.596 0.096s4.889-0.020 6.596-0.096c1.703-0.080 2.864-0.349 3.884-0.744 1.051-0.408 1.945-0.957 2.835-1.845 0.888-0.889 1.439-1.78 1.845-2.835 0.395-1.020 0.665-2.181 0.744-3.884 0.080-1.707 0.096-2.249 0.096-6.596s-0.020-4.889-0.096-6.596c-0.080-1.703-0.349-2.865-0.744-3.884-0.408-1.052-0.957-1.945-1.845-2.835-0.889-0.889-1.78-1.439-2.835-1.845-1.020-0.396-2.181-0.665-3.884-0.744-1.707-0.080-2.249-0.096-6.596-0.096zM16 2.88c4.271 0 4.78 0.021 6.467 0.095 1.56 0.073 2.407 0.332 2.969 0.553 0.749 0.289 1.28 0.636 1.843 1.195 0.559 0.56 0.905 1.092 1.195 1.841 0.219 0.563 0.48 1.409 0.551 2.969 0.076 1.688 0.093 2.195 0.093 6.467s-0.020 4.78-0.099 6.467c-0.081 1.56-0.341 2.407-0.561 2.969-0.299 0.749-0.639 1.28-1.199 1.843-0.559 0.559-1.099 0.905-1.84 1.195-0.56 0.219-1.42 0.48-2.98 0.551-1.699 0.076-2.199 0.093-6.479 0.093-4.281 0-4.781-0.020-6.479-0.099-1.561-0.081-2.421-0.341-2.981-0.561-0.759-0.299-1.28-0.639-1.839-1.199-0.561-0.559-0.92-1.099-1.2-1.84-0.22-0.56-0.479-1.42-0.56-2.98-0.060-1.68-0.081-2.199-0.081-6.459 0-4.261 0.021-4.781 0.081-6.481 0.081-1.56 0.34-2.419 0.56-2.979 0.28-0.76 0.639-1.28 1.2-1.841 0.559-0.559 1.080-0.919 1.839-1.197 0.56-0.221 1.401-0.481 2.961-0.561 1.7-0.060 2.2-0.080 6.479-0.080l0.060 0.040zM16 7.784c-4.54 0-8.216 3.68-8.216 8.216 0 4.54 3.68 8.216 8.216 8.216 4.54 0 8.216-3.68 8.216-8.216 0-4.54-3.68-8.216-8.216-8.216zM16 21.333c-2.947 0-5.333-2.387-5.333-5.333s2.387-5.333 5.333-5.333 5.333 2.387 5.333 5.333-2.387 5.333-5.333 5.333zM26.461 7.46c0 1.060-0.861 1.92-1.92 1.92-1.060 0-1.92-0.861-1.92-1.92s0.861-1.919 1.92-1.919c1.057-0.001 1.92 0.86 1.92 1.919z"></path>
</symbol>
<symbol id="icon-lightbulb-f" viewBox="0 0 32 32">
<title>lightbulb-f</title>
<path d="M21.333 21.42h-4v-10.667c0-0.736-0.597-1.333-1.333-1.333s-1.333 0.597-1.333 1.333v0 10.667h-4v-1.673c-2.431-1.709-4-4.501-4-7.659 0-5.155 4.179-9.333 9.333-9.333s9.333 4.179 9.333 9.333c0 3.159-1.569 5.951-3.97 7.64l-0.030 0.020v1.673zM21.333 24.087v2.667c0 1.473-1.194 2.667-2.667 2.667v0h-5.333c-1.473 0-2.667-1.194-2.667-2.667v0-2.667h10.667z"></path>
</symbol>
<symbol id="icon-lightbulb" viewBox="0 0 32 32">
<title>lightbulb</title>
<path d="M18.667 21.333v-3.064l1.141-0.796c1.737-1.22 2.859-3.215 2.859-5.472 0-3.682-2.985-6.667-6.667-6.667s-6.667 2.985-6.667 6.667c0 2.257 1.121 4.252 2.837 5.458l0.021 0.014 1.141 0.796v3.064h1.333v-10.667c0-0.736 0.597-1.333 1.333-1.333s1.333 0.597 1.333 1.333v0 10.667h1.333zM18.667 24h-5.333v2.667h5.333v-2.667zM6.667 12c0-5.154 4.179-9.333 9.333-9.333s9.333 4.179 9.333 9.333c0 3.159-1.569 5.951-3.97 7.64l-0.030 0.020v7.007c0 1.473-1.194 2.667-2.667 2.667v0h-5.333c-1.473 0-2.667-1.194-2.667-2.667v0-7.007c-2.431-1.706-4-4.497-4-7.654 0-0.002 0-0.004 0-0.007v0z"></path>
</symbol>
<symbol id="icon-link" viewBox="0 0 32 32">
<title>link</title>
<path d="M8.253 16.46c0.234-0.233 0.557-0.378 0.913-0.378s0.679 0.144 0.913 0.378l-0-0c0.233 0.233 0.378 0.555 0.378 0.911s-0.144 0.678-0.378 0.911l-2.74 2.736c-0.467 0.466-0.756 1.111-0.756 1.823s0.289 1.357 0.756 1.823l0 0c0.468 0.467 1.114 0.755 1.827 0.755s1.359-0.289 1.827-0.755l-0 0 6.392-6.383c0.233-0.233 0.378-0.555 0.378-0.911s-0.144-0.678-0.378-0.911v0c-0.234-0.233-0.378-0.556-0.378-0.912s0.145-0.679 0.378-0.912l0-0c0.234-0.233 0.557-0.378 0.913-0.378s0.679 0.144 0.913 0.378l-0-0c0.701 0.7 1.135 1.667 1.135 2.735s-0.434 2.036-1.135 2.735l-6.393 6.383c-0.936 0.934-2.227 1.511-3.653 1.511s-2.718-0.577-3.653-1.511l0 0c-0.934-0.933-1.513-2.222-1.513-3.647s0.578-2.714 1.513-3.647l2.741-2.737zM23.747 15.54c-0.234 0.233-0.557 0.378-0.913 0.378s-0.679-0.144-0.913-0.378l0 0c-0.233-0.233-0.378-0.555-0.378-0.911s0.144-0.678 0.378-0.911l2.74-2.736c0.467-0.466 0.756-1.111 0.756-1.823s-0.289-1.357-0.756-1.823l-0-0c-0.468-0.467-1.114-0.755-1.827-0.755s-1.359 0.289-1.827 0.755l0-0-6.391 6.383c-0.233 0.233-0.378 0.555-0.378 0.911s0.144 0.678 0.378 0.911v0c0.234 0.233 0.379 0.556 0.379 0.912s-0.145 0.679-0.378 0.912l-0 0c-0.234 0.233-0.557 0.378-0.913 0.378s-0.679-0.144-0.913-0.378l0 0c-0.701-0.7-1.135-1.667-1.135-2.735s0.434-2.036 1.135-2.735l6.393-6.383c0.936-0.934 2.227-1.511 3.653-1.511s2.718 0.577 3.653 1.511l-0-0c0.934 0.933 1.513 2.222 1.513 3.647s-0.578 2.714-1.513 3.647l-2.743 2.737z"></path>
</symbol>
<symbol id="icon-linkedin" viewBox="0 0 32 32">
<title>linkedin</title>
<path d="M29.279 18.292v9.839h-5.704v-9.18c0-2.307-0.825-3.88-2.889-3.88-1.576 0-2.515 1.061-2.927 2.087-0.151 0.367-0.189 0.877-0.189 1.391v9.583h-5.707s0.077-15.547 0-17.159h5.707v2.432l-0.037 0.056h0.037v-0.056c0.757-1.167 2.111-2.835 5.141-2.835 3.753 0 6.568 2.453 6.568 7.723zM5.895 2.701c-1.951 0-3.228 1.28-3.228 2.964 0 1.647 1.24 2.965 3.153 2.965h0.037c1.991 0 3.227-1.319 3.227-2.965-0.035-1.684-1.235-2.964-3.188-2.964zM3.005 28.131h5.704v-17.159h-5.704v17.159z"></path>
</symbol>
<symbol id="icon-map-marker" viewBox="0 0 32 32">
<title>map-marker</title>
<path d="M16 29.42c-6.223-8.12-9.333-13.897-9.333-17.333 0-5.155 4.179-9.333 9.333-9.333s9.333 4.179 9.333 9.333v0c0 3.436-3.111 9.213-9.333 17.333zM16 17.42c2.946 0 5.333-2.388 5.333-5.333s-2.388-5.333-5.333-5.333v0c-2.946 0-5.333 2.388-5.333 5.333s2.388 5.333 5.333 5.333v0z"></path>
</symbol>
<symbol id="icon-menu" viewBox="0 0 32 32">
<title>menu</title>
<path d="M8 9.333h6.667c0.736 0 1.333 0.597 1.333 1.333s-0.597 1.333-1.333 1.333v0h-6.667c-0.736 0-1.333-0.597-1.333-1.333s0.597-1.333 1.333-1.333v0zM17.333 20h6.667c0.736 0 1.333 0.597 1.333 1.333s-0.597 1.333-1.333 1.333v0h-6.667c-0.736 0-1.333-0.597-1.333-1.333s0.597-1.333 1.333-1.333v0zM8 14.667h16c0.736 0 1.333 0.597 1.333 1.333s-0.597 1.333-1.333 1.333v0h-16c-0.736 0-1.333-0.597-1.333-1.333s0.597-1.333 1.333-1.333v0z"></path>
</symbol>
<symbol id="icon-moon-f" viewBox="0 0 32 32">
<title>moon-f</title>
<path d="M21.671 3.113c-2.853 2.48-4.647 6.114-4.647 10.168 0 0.018 0 0.037 0 0.055v-0.003c0 6.176 4.091 11.371 9.643 12.887-2.222 1.934-5.145 3.113-8.344 3.113h-0c-7.173 0-12.989-5.969-12.989-13.333s5.816-13.333 12.989-13.333c1.157 0 2.28 0.156 3.348 0.447z"></path>
</symbol>
<symbol id="icon-moon" viewBox="0 0 32 32">
<title>moon</title>
<path d="M8 16c0 5.907 4.637 10.667 10.323 10.667 0.877 0 1.736-0.113 2.563-0.331-3.995-2.933-6.528-7.715-6.528-13.003 0-2.787 0.703-5.46 1.985-7.804-4.744 0.955-8.343 5.267-8.343 10.471zM17.024 13.333c0 6.176 4.091 11.371 9.643 12.887-2.222 1.934-5.145 3.113-8.344 3.113h-0c-7.173 0-12.989-5.969-12.989-13.333s5.816-13.333 12.989-13.333c1.157 0 2.28 0.156 3.348 0.447-2.853 2.48-4.647 6.114-4.647 10.168 0 0.018 0 0.037 0 0.055v-0.003z"></path>
</symbol>
<symbol id="icon-more-vertical" viewBox="0 0 32 32">
<title>more-vertical</title>
<path d="M16 10.667c-2.209 0-4-1.791-4-4s1.791-4 4-4v0c2.209 0 4 1.791 4 4s-1.791 4-4 4v0zM16 29.333c-2.209 0-4-1.791-4-4s1.791-4 4-4v0c2.209 0 4 1.791 4 4s-1.791 4-4 4v0zM16 20c-2.209 0-4-1.791-4-4s1.791-4 4-4v0c2.209 0 4 1.791 4 4s-1.791 4-4 4v0z"></path>
</symbol>
<symbol id="icon-npm" viewBox="0 0 32 32">
<title>npm</title>
<path d="M2.667 10.667h26.667v9.143h-13.333v1.524h-5.925v-1.524h-7.408v-9.143zM4.148 18.285h2.963v-4.571h1.481v4.571h1.483v-6.095h-5.928v6.095zM11.556 12.191v7.619h2.963v-1.524h2.963v-6.095h-5.925zM18.963 12.191v6.095h2.963v-4.571h1.483v4.571h1.48v-4.571h1.483v4.571h1.48v-6.095h-8.888z"></path>
<path d="M16 16.933h-1.333v-3.333h1.333z"></path>
</symbol>
<symbol id="icon-paypal" viewBox="0 0 32 32">
<title>paypal</title>
<path d="M11.104 24.169l-0.015 0.093c-0.102 0.567-0.592 0.992-1.181 0.992-0.001 0-0.001 0-0.002 0h-3.373c-0 0-0 0-0 0-0.657 0-1.189-0.532-1.189-1.189 0-0.070 0.006-0.138 0.018-0.204l-0.001 0.007 3.4-20.208c0.097-0.567 0.585-0.993 1.173-0.993 0 0 0 0 0 0h9.227c0 0 0.001 0 0.001 0 3.049 0 5.521 2.472 5.521 5.521v0c0 0.364-0.023 0.72-0.067 1.072 1.241 0.888 2.040 2.324 2.040 3.947 0 0.001 0 0.002 0 0.002v-0c0 4.213-3.414 7.628-7.627 7.629h-0.777c-0.871 0-1.615 0.629-1.76 1.489v0c0.147-0.85 0.879-1.489 1.76-1.489h0.776c4.214 0 7.629-3.416 7.629-7.629v0c0-0.001 0-0.001 0-0.002 0-1.623-0.799-3.059-2.025-3.937l-0.015-0.010c-0.552 4.318-4.203 7.621-8.627 7.621h-2.577c-0.586 0.001-1.080 0.391-1.238 0.926l-0.002 0.009-1.54 9.149c-0.107 0.64 0.385 1.221 1.033 1.221h2.952c0.517 0 0.947-0.375 1.032-0.867l0.001-0.006c-0.087 0.499-0.516 0.873-1.033 0.873h-2.951c-0.001 0-0.002 0-0.003 0-0.319 0-0.605-0.143-0.796-0.369l-0.001-0.002c-0.154-0.181-0.248-0.417-0.248-0.675 0-0.062 0.005-0.123 0.016-0.182l-0.001 0.006 0.469-2.796z"></path>
<path d="M25.933 10.66c0.487 0.756 0.771 1.656 0.771 2.623 0 4.214-3.416 7.629-7.629 7.629v0h-0.775c-0.872 0-1.616 0.629-1.76 1.489l-0.84 4.985c-0.087 0.498-0.515 0.873-1.032 0.873h-2.704l1.533-9.111c0.157-0.547 0.66-0.933 1.24-0.933h2.576c0 0 0 0 0 0 4.4 0 8.037-3.269 8.614-7.511l0.005-0.045zM11.964 28.26h-0.249c-0.579-0-1.048-0.469-1.048-1.048 0-0.061 0.005-0.121 0.015-0.18l-0.001 0.006 0.076-0.451h0.473c0 0 0.001 0 0.001 0 0.588 0 1.078-0.424 1.179-0.983l0.001-0.007 0.016-0.093-0.464 2.756z"></path>
</symbol>
<symbol id="icon-play-circle" viewBox="0 0 32 32">
<title>play-circle</title>
<path d="M16 29.333c-7.364 0-13.333-5.969-13.333-13.333s5.969-13.333 13.333-13.333 13.333 5.969 13.333 13.333-5.969 13.333-13.333 13.333zM16 26.667c5.891 0 10.667-4.776 10.667-10.667s-4.776-10.667-10.667-10.667v0c-5.891 0-10.667 4.776-10.667 10.667s4.776 10.667 10.667 10.667v0zM21.501 18.328l-5.407 3.864c-1.207 0.861-2.84 0.519-3.649-0.768-0.279-0.441-0.445-0.978-0.445-1.554 0-0.002 0-0.004 0-0.006v0-7.728c0-1.547 1.177-2.803 2.629-2.803 0.521 0 1.032 0.165 1.465 0.475l5.407 3.864c1.207 0.863 1.528 2.603 0.72 3.889-0.192 0.304-0.432 0.558-0.712 0.761l-0.008 0.005zM14.629 12.136v7.728l5.407-3.864-5.407-3.864z"></path>
</symbol>
<symbol id="icon-play" viewBox="0 0 32 32">
<title>play</title>
<path d="M23.76 16.697c0.128-0.198 0.204-0.44 0.204-0.699 0-0.473-0.252-0.887-0.63-1.115l-0.006-0.003-13.229-8.043c-0.203-0.125-0.449-0.199-0.712-0.199-0.001 0-0.001 0-0.002 0h0c-0.747 0-1.351 0.591-1.351 1.32v16.081c0 0.247 0.071 0.488 0.204 0.697 0.395 0.619 1.227 0.808 1.86 0.423l13.229-8.041c0.175-0.107 0.324-0.252 0.433-0.423zM24.755 19.36l-13.228 8.041c-1.9 1.156-4.4 0.587-5.581-1.268-0.384-0.592-0.612-1.316-0.612-2.093v-16.080c0-2.188 1.813-3.96 4.053-3.96 0.756 0 1.497 0.207 2.14 0.597l13.228 8.043c1.9 1.155 2.483 3.595 1.3 5.451-0.328 0.515-0.773 0.949-1.3 1.269z"></path>
</symbol>
<symbol id="icon-plus-circle" viewBox="0 0 32 32">
<title>plus-circle</title>
<path d="M16 29.333c-7.364 0-13.333-5.969-13.333-13.333s5.969-13.333 13.333-13.333 13.333 5.969 13.333 13.333-5.969 13.333-13.333 13.333zM16 26.667c5.891 0 10.667-4.776 10.667-10.667s-4.776-10.667-10.667-10.667v0c-5.891 0-10.667 4.776-10.667 10.667s4.776 10.667 10.667 10.667v0zM17.333 17.333v5.333c0 0.736-0.597 1.333-1.333 1.333s-1.333-0.597-1.333-1.333v0-5.333h-5.333c-0.736 0-1.333-0.597-1.333-1.333s0.597-1.333 1.333-1.333v0h5.333v-5.333c0-0.736 0.597-1.333 1.333-1.333s1.333 0.597 1.333 1.333v0 5.333h5.333c0.736 0 1.333 0.597 1.333 1.333s-0.597 1.333-1.333 1.333v0h-5.333z"></path>
</symbol>
<symbol id="icon-plus" viewBox="0 0 32 32">
<title>plus</title>
<path d="M17.867 15.2v-6.667c0-0.736-0.597-1.333-1.333-1.333s-1.333 0.597-1.333 1.333v0 6.667h-6.667c-0.736 0-1.333 0.597-1.333 1.333s0.597 1.333 1.333 1.333v0h6.667v6.667c0 0.736 0.597 1.333 1.333 1.333s1.333-0.597 1.333-1.333v0-6.667h6.667c0.736 0 1.333-0.597 1.333-1.333s-0.597-1.333-1.333-1.333v0h-6.667z"></path>
</symbol>
<symbol id="icon-power" viewBox="0 0 32 32">
<title>power</title>
<path d="M20 8.8c-0.483-0.194-0.818-0.656-0.823-1.197v-0.001c0-0.715 0.597-1.296 1.333-1.296 0.155 0 0.304 0.027 0.443 0.073 0.001-0.004 0.003-0.005 0.005-0.004 4.153 1.835 7.041 5.901 7.041 10.627 0 6.44-5.373 11.664-12 11.664s-12-5.223-12-11.665c0-4.692 2.849-8.735 6.957-10.588 0.152-0.064 0.33-0.101 0.516-0.101 0.002 0 0.005 0 0.007 0h-0c0.736 0 1.333 0.58 1.333 1.295-0.003 0.539-0.335 0.999-0.805 1.192l-0.009 0.003c-3.153 1.456-5.333 4.581-5.333 8.2 0 5.011 4.179 9.073 9.333 9.073s9.333-4.063 9.333-9.073c0-3.619-2.18-6.744-5.333-8.2zM16 3.333c0.736 0 1.333 0.597 1.333 1.333v0 8c0 0.736-0.597 1.333-1.333 1.333s-1.333-0.597-1.333-1.333v0-8c0-0.736 0.597-1.333 1.333-1.333v0z"></path>
</symbol>
<symbol id="icon-rss-feed" viewBox="0 0 32 32">
<title>rss-feed</title>
<path d="M7.995 26.627c-1.47 0-2.661-1.192-2.661-2.661s1.192-2.661 2.661-2.661v0c1.47 0 2.661 1.192 2.661 2.661s-1.192 2.661-2.661 2.661v0zM6.827 15.969c-0.039 0.004-0.085 0.006-0.131 0.006-0.735 0-1.331-0.596-1.331-1.331 0-0.665 0.488-1.216 1.125-1.315l0.007-0.001c0.402-0.053 0.868-0.083 1.34-0.083 5.967 0 10.804 4.837 10.804 10.803v1.247c0 0.735-0.596 1.331-1.331 1.331s-1.331-0.596-1.331-1.331v0-1.245c-0.001-4.497-3.647-8.143-8.144-8.143-0.356 0-0.706 0.023-1.050 0.067l0.041-0.004zM5.333 6.753c-0.002-0.027-0.003-0.058-0.003-0.090 0-0.704 0.547-1.28 1.239-1.328l0.004-0c10.383-0.692 19.357 7.163 20.049 17.544 0.056 0.835 0.056 1.672 0 2.507-0.048 0.696-0.624 1.242-1.328 1.242-0.735 0-1.331-0.596-1.331-1.331 0-0.031 0.001-0.062 0.003-0.093l-0 0.004c0.048-0.717 0.048-1.436 0-2.152-0.593-8.915-8.3-15.66-17.213-15.065-0.028 0.002-0.060 0.003-0.092 0.003-0.704 0-1.281-0.547-1.328-1.239l-0-0.004z"></path>
</symbol>
<symbol id="icon-search" viewBox="0 0 32 32">
<title>search</title>
<path d="M14 22c4.418 0 8-3.582 8-8s-3.582-8-8-8v0c-4.418 0-8 3.582-8 8s3.582 8 8 8v0zM22.427 20.541l4.773 4.773c0.251 0.243 0.406 0.582 0.406 0.958 0 0.736-0.597 1.333-1.333 1.333-0.377 0-0.717-0.156-0.959-0.407l-0-0-4.773-4.773c-1.787 1.397-4.065 2.241-6.541 2.241-5.891 0-10.667-4.776-10.667-10.667s4.776-10.667 10.667-10.667c5.891 0 10.667 4.776 10.667 10.667 0 2.476-0.843 4.754-2.258 6.564l0.018-0.024z"></path>
</symbol>
<symbol id="icon-share-alt" viewBox="0 0 32 32">
<title>share-alt</title>
<path d="M24 10.667c1.473 0 2.667-1.194 2.667-2.667s-1.194-2.667-2.667-2.667v0c-1.473 0-2.667 1.194-2.667 2.667s1.194 2.667 2.667 2.667v0zM13.237 14.987c0.061 0.305 0.097 0.655 0.097 1.013 0 0.418-0.048 0.825-0.138 1.215l0.007-0.036 6.72 3.383c0.985-1.161 2.445-1.893 4.076-1.893 2.946 0 5.333 2.388 5.333 5.333s-2.388 5.333-5.333 5.333c-2.946 0-5.333-2.388-5.333-5.333 0-0.367 0.037-0.724 0.107-1.070l-0.006 0.034-6.787-3.416c-0.981 1.097-2.401 1.784-3.981 1.784-2.946 0-5.333-2.388-5.333-5.333s2.388-5.333 5.333-5.333c1.64 0 3.106 0.74 4.085 1.904l0.007 0.008 6.715-3.363c-0.089-0.365-0.141-0.785-0.141-1.216 0-2.946 2.388-5.333 5.333-5.333s5.333 2.388 5.333 5.333c0 2.946-2.388 5.333-5.333 5.333-1.566 0-2.974-0.675-3.95-1.75l-0.004-0.004-6.807 3.408zM8 18.667c1.473 0 2.667-1.194 2.667-2.667s-1.194-2.667-2.667-2.667v0c-1.473 0-2.667 1.194-2.667 2.667s1.194 2.667 2.667 2.667v0zM24 26.667c1.473 0 2.667-1.194 2.667-2.667s-1.194-2.667-2.667-2.667v0c-1.473 0-2.667 1.194-2.667 2.667s1.194 2.667 2.667 2.667v0z"></path>
</symbol>
<symbol id="icon-share" viewBox="0 0 32 32">
<title>share</title>
<path d="M17.333 11.219v7.523c0 0.736-0.597 1.333-1.333 1.333s-1.333-0.597-1.333-1.333v0-7.523l-1.495 1.496c-0.241 0.241-0.575 0.391-0.943 0.391-0.737 0-1.335-0.598-1.335-1.335 0-0.369 0.149-0.702 0.391-0.944l3.772-3.769c0.241-0.242 0.574-0.392 0.943-0.392s0.702 0.15 0.943 0.392l3.772 3.771c0.241 0.241 0.391 0.575 0.391 0.943 0 0.737-0.598 1.335-1.335 1.335-0.369 0-0.702-0.149-0.944-0.391v0l-1.493-1.496zM10.667 14.667c0.736 0 1.333 0.597 1.333 1.333s-0.597 1.333-1.333 1.333v0h-1.333v5.333h13.333v-5.333h-1.333c-0.736 0-1.333-0.597-1.333-1.333s0.597-1.333 1.333-1.333v0h1.333c1.473 0 2.667 1.194 2.667 2.667v0 5.333c0 1.473-1.194 2.667-2.667 2.667v0h-13.333c-1.473 0-2.667-1.194-2.667-2.667v0-5.333c0-1.473 1.194-2.667 2.667-2.667v0h1.333z"></path>
</symbol>
<symbol id="icon-shopping-cart" viewBox="0 0 32 32">
<title>shopping-cart</title>
<path d="M13.333 26.667c-1.473 0-2.667-1.194-2.667-2.667s1.194-2.667 2.667-2.667v0c1.473 0 2.667 1.194 2.667 2.667s-1.194 2.667-2.667 2.667v0zM22.667 26.667c-1.473 0-2.667-1.194-2.667-2.667s1.194-2.667 2.667-2.667v0c1.473 0 2.667 1.194 2.667 2.667s-1.194 2.667-2.667 2.667v0zM5.283 7.897c-0.69-0.023-1.241-0.588-1.241-1.282s0.551-1.259 1.239-1.282l0.002-0h1.535c1.203 0 2.243 0.835 2.504 2.008l1.671 7.523c0.261 1.173 1.301 2.008 2.504 2.008h10.016l1.923-7.693h-12.46c-0.683-0.032-1.224-0.594-1.224-1.281s0.541-1.249 1.221-1.281l0.003-0h12.46c0 0 0 0 0.001 0 1.416 0 2.564 1.148 2.564 2.564 0 0.221-0.028 0.436-0.081 0.64l0.004-0.018-1.923 7.691c-0.288 1.125-1.292 1.943-2.488 1.943-0 0-0 0-0 0h-10.016c-0 0-0 0-0.001 0-2.438 0-4.479-1.701-4.999-3.982l-0.007-0.034-1.672-7.523h-1.535z"></path>
</symbol>
<symbol id="icon-skype" viewBox="0 0 32 32">
<title>skype</title>
<path d="M28.168 17.9c0.096-0.579 0.151-1.246 0.151-1.926 0-6.819-5.528-12.347-12.347-12.347-0.68 0-1.348 0.055-1.998 0.161l0.071-0.010c-1.114-0.698-2.468-1.112-3.918-1.112-4.121 0-7.461 3.341-7.461 7.461 0 1.45 0.414 2.804 1.13 3.95l-0.018-0.031c-0.096 0.58-0.152 1.248-0.152 1.929 0 6.818 5.527 12.345 12.345 12.345 0.681 0 1.348-0.055 1.999-0.161l-0.071 0.010c1.139 0.7 2.48 1.108 3.919 1.108 0 0 0 0 0 0 4.121 0 7.461-3.341 7.461-7.461 0-1.45-0.414-2.803-1.129-3.949l0.018 0.031zM21.835 21.588c-0.523 0.752-1.289 1.339-2.293 1.761-1.004 0.424-2.191 0.635-3.563 0.635-1.643 0-3.004-0.288-4.077-0.868-0.754-0.411-1.377-0.974-1.846-1.652l-0.012-0.018c-0.476-0.696-0.719-1.379-0.719-2.043 0-0.392 0.149-0.733 0.44-1.012 0.295-0.28 0.673-0.42 1.12-0.42 0.367 0 0.681 0.111 0.939 0.329 0.253 0.219 0.467 0.536 0.641 0.955 0.209 0.487 0.436 0.893 0.677 1.216 0.24 0.32 0.579 0.587 1.016 0.796 0.433 0.209 1.009 0.315 1.729 0.315 0.987 0 1.784-0.213 2.395-0.635 0.613-0.424 0.907-0.941 0.907-1.565 0-0.499-0.157-0.893-0.484-1.203-0.328-0.312-0.752-0.551-1.28-0.716-0.528-0.168-1.237-0.347-2.128-0.533-1.195-0.261-2.193-0.564-3.003-0.913s-1.455-0.827-1.933-1.432c-0.48-0.609-0.719-1.368-0.719-2.267 0-0.856 0.253-1.621 0.757-2.288 0.505-0.668 1.236-1.18 2.187-1.536 0.949-0.356 2.067-0.533 3.347-0.533 1.024 0 1.909 0.117 2.659 0.353 0.747 0.237 1.369 0.551 1.867 0.943 0.496 0.393 0.86 0.807 1.091 1.24 0.231 0.436 0.347 0.861 0.347 1.276 0 0.387-0.149 0.736-0.44 1.043-0.293 0.307-0.665 0.463-1.1 0.461-0.392 0-0.7-0.091-0.913-0.281-0.208-0.187-0.427-0.48-0.663-0.893-0.299-0.573-0.656-1.020-1.072-1.34-0.405-0.313-1.073-0.477-2.003-0.475-0.86 0-1.547 0.175-2.067 0.52-0.523 0.348-0.773 0.753-0.773 1.227 0 0.299 0.087 0.549 0.259 0.764 0.173 0.216 0.417 0.404 0.729 0.561 0.313 0.16 0.631 0.285 0.951 0.373 0.323 0.093 0.86 0.225 1.605 0.4 0.935 0.203 1.783 0.427 2.545 0.672 0.76 0.247 1.409 0.544 1.947 0.899 0.539 0.353 0.961 0.804 1.263 1.348 0.304 0.545 0.456 1.211 0.456 1.993 0 0.944-0.261 1.792-0.787 2.543z"></path>
</symbol>
<symbol id="icon-star-full" viewBox="0 0 32 32">
<title>star-full</title>
<path d="M16 24.276l-8.231 4.328 1.572-9.165-6.661-6.492 9.203-1.337 4.117-8.339 4.116 8.339 9.203 1.337-6.66 6.492 1.573 9.165z"></path>
</symbol>
<symbol id="icon-star" viewBox="0 0 32 32">
<title>star</title>
<path d="M16 21.405l4.689 2.467-0.896-5.223 3.795-3.699-5.243-0.761-2.345-4.751-2.345 4.751-5.243 0.761 3.795 3.699-0.896 5.221 4.689-2.465zM16 24.419l-8.231 4.328 1.572-9.167-6.661-6.491 9.203-1.337 4.117-8.339 4.116 8.339 9.203 1.337-6.66 6.491 1.573 9.167-8.232-4.328z"></path>
</symbol>
<symbol id="icon-switch-left-f" viewBox="0 0 32 32">
<title>switch-left-f</title>
<path d="M10.667 8h10.667c4.418 0 8 3.582 8 8s-3.582 8-8 8v0h-10.667c-4.418 0-8-3.582-8-8s3.582-8 8-8v0zM12 21.333c2.946 0 5.333-2.388 5.333-5.333s-2.388-5.333-5.333-5.333v0c-2.946 0-5.333 2.388-5.333 5.333s2.388 5.333 5.333 5.333v0zM12 18.667c-1.473 0-2.667-1.194-2.667-2.667s1.194-2.667 2.667-2.667v0c1.473 0 2.667 1.194 2.667 2.667s-1.194 2.667-2.667 2.667v0z"></path>
</symbol>
<symbol id="icon-switch-left" viewBox="0 0 32 32">
<title>switch-left</title>
<path d="M12 9.333c-3.682 0-6.667 2.985-6.667 6.667s2.985 6.667 6.667 6.667v0h8c3.682 0 6.667-2.985 6.667-6.667s-2.985-6.667-6.667-6.667v0h-8zM12 6.667h8c5.155 0 9.333 4.179 9.333 9.333s-4.179 9.333-9.333 9.333v0h-8c-5.155 0-9.333-4.179-9.333-9.333s4.179-9.333 9.333-9.333v0zM12 21.333c-2.946 0-5.333-2.388-5.333-5.333s2.388-5.333 5.333-5.333v0c2.946 0 5.333 2.388 5.333 5.333s-2.388 5.333-5.333 5.333v0zM12 18.667c1.473 0 2.667-1.194 2.667-2.667s-1.194-2.667-2.667-2.667v0c-1.473 0-2.667 1.194-2.667 2.667s1.194 2.667 2.667 2.667v0z"></path>
</symbol>
<symbol id="icon-switch-right-f" viewBox="0 0 32 32">
<title>switch-right-f</title>
<path d="M11.333 8h9.333c4.418 0 8 3.582 8 8s-3.582 8-8 8v0h-9.333c-4.418 0-8-3.582-8-8s3.582-8 8-8v0zM19.333 21.333c2.946 0 5.333-2.388 5.333-5.333s-2.388-5.333-5.333-5.333v0c-2.946 0-5.333 2.388-5.333 5.333s2.388 5.333 5.333 5.333v0zM19.333 18.667c-1.473 0-2.667-1.194-2.667-2.667s1.194-2.667 2.667-2.667v0c1.473 0 2.667 1.194 2.667 2.667s-1.194 2.667-2.667 2.667v0z"></path>
</symbol>
<symbol id="icon-switch-right" viewBox="0 0 32 32">
<title>switch-right</title>
<path d="M12 9.333c-3.682 0-6.667 2.985-6.667 6.667s2.985 6.667 6.667 6.667v0h8c3.682 0 6.667-2.985 6.667-6.667s-2.985-6.667-6.667-6.667v0h-8zM12 6.667h8c5.155 0 9.333 4.179 9.333 9.333s-4.179 9.333-9.333 9.333v0h-8c-5.155 0-9.333-4.179-9.333-9.333s4.179-9.333 9.333-9.333v0zM20 21.333c-2.946 0-5.333-2.388-5.333-5.333s2.388-5.333 5.333-5.333v0c2.946 0 5.333 2.388 5.333 5.333s-2.388 5.333-5.333 5.333v0zM20 18.667c1.473 0 2.667-1.194 2.667-2.667s-1.194-2.667-2.667-2.667v0c-1.473 0-2.667 1.194-2.667 2.667s1.194 2.667 2.667 2.667v0z"></path>
</symbol>
<symbol id="icon-tags" viewBox="0 0 32 32">
<title>tags</title>
<path d="M18.617 5.304l3.311 3.311c0.483 0.483 0.781 1.149 0.781 1.886 0 0.279-0.043 0.547-0.122 0.8l0.005-0.019-1.645 5.372-10.573 10.573-10.373-10.371 10.532-10.532 5.408-1.68c0.237-0.076 0.509-0.12 0.792-0.12 0.736 0 1.402 0.298 1.885 0.78v0zM13.671 13.557c0.362 0.362 0.862 0.585 1.414 0.585 1.105 0 2-0.896 2-2 0-0.553-0.224-1.053-0.586-1.415v0c-0.359-0.347-0.849-0.561-1.389-0.561-1.105 0-2 0.895-2 2 0 0.54 0.214 1.030 0.562 1.39l-0.001-0.001zM23.3 14.953c0.723 0.029 1.247-0.093 1.571-0.364 0.438-0.369 0.714-0.918 0.714-1.532 0-0.491-0.177-0.94-0.47-1.288l0.002 0.003c-0.147-0.175-0.38-0.336-0.703-0.485 0.040-0.174 0.064-0.374 0.064-0.579 0-0.736-0.298-1.403-0.781-1.885l-2.297-2.296 3.025-0.941c0.237-0.076 0.509-0.12 0.791-0.12 0.737 0 1.403 0.299 1.886 0.781l3.311 3.311c0.483 0.483 0.781 1.149 0.781 1.886 0 0.279-0.043 0.547-0.122 0.8l0.005-0.019-1.647 5.371-10.573 10.575-3.727-3.725 7.584-7.584 0.585-1.907z"></path>
</symbol>
<symbol id="icon-terminal" viewBox="0 0 32 32">
<title>terminal</title>
<path d="M12.324 16.095l-6.6-6.6c-0.251-0.243-0.407-0.583-0.407-0.959 0-0.736 0.597-1.333 1.333-1.333 0.376 0 0.716 0.156 0.959 0.407l7.543 7.543c0.241 0.241 0.39 0.575 0.39 0.943s-0.149 0.701-0.39 0.943l-7.543 7.543c-0.24 0.232-0.566 0.374-0.926 0.374-0.736 0-1.333-0.597-1.333-1.333 0-0.36 0.143-0.687 0.375-0.927l6.6-6.6zM14.572 22.667h10.667c0.736 0 1.333 0.597 1.333 1.333s-0.597 1.333-1.333 1.333v0h-10.667c-0.736 0-1.333-0.597-1.333-1.333s0.597-1.333 1.333-1.333v0z"></path>
</symbol>
<symbol id="icon-trello" viewBox="0 0 32 32">
<title>trello</title>
<path d="M26.083 2.667h-20.165c-0.001 0-0.003 0-0.004 0-1.792 0-3.244 1.451-3.247 3.242v20.116c0.002 1.791 1.455 3.243 3.247 3.243 0.001 0 0.003 0 0.004 0h20.165c0.001 0 0.003 0 0.004 0 1.792 0 3.244-1.451 3.247-3.242v-20.116c-0.002-1.791-1.455-3.243-3.247-3.243-0.001 0-0.003 0-0.004 0h0zM14.267 23.4c0 0 0 0 0 0 0 0.832-0.675 1.507-1.507 1.507-0.001 0-0.002 0-0.003 0h-5.115c-0.001 0-0.002 0-0.003 0-0.832 0-1.507-0.675-1.507-1.507 0 0 0 0 0 0v0-15.543c0-0.832 0.676-1.507 1.509-1.507h5.115c0.001 0 0.002 0 0.003 0 0.832 0 1.507 0.675 1.507 1.507 0 0 0 0 0 0v0 15.543zM25.867 16.713c0 0 0 0 0 0 0 0.832-0.675 1.507-1.507 1.507-0.001 0-0.002 0-0.003 0h-5.114c-0.001 0-0.002 0-0.003 0-0.832 0-1.507-0.675-1.507-1.507 0 0 0 0 0 0v0-8.856c0-0.832 0.676-1.507 1.509-1.507h5.115c0.001 0 0.002 0 0.003 0 0.832 0 1.507 0.675 1.507 1.507 0 0 0 0 0 0v0 8.856z"></path>
</symbol>
<symbol id="icon-triangle-danger-f" viewBox="0 0 32 32">
<title>triangle-danger-f</title>
<path d="M19.733 6.151l8.935 14.881c1.284 2.137 0.653 4.949-1.409 6.28-0.656 0.431-1.46 0.687-2.324 0.688h-17.871c-2.428 0-4.397-2.040-4.397-4.559 0-0.852 0.231-1.685 0.664-2.409l8.936-14.881c1.283-2.137 3.995-2.792 6.057-1.461 0.571 0.368 1.053 0.868 1.409 1.461zM16 22.667c0.736 0 1.333-0.597 1.333-1.333s-0.597-1.333-1.333-1.333v0c-0.736 0-1.333 0.597-1.333 1.333s0.597 1.333 1.333 1.333v0zM16 10.667c-0.736 0-1.333 0.597-1.333 1.333v0 5.333c0 0.736 0.597 1.333 1.333 1.333s1.333-0.597 1.333-1.333v0-5.333c0-0.736-0.597-1.333-1.333-1.333v0z"></path>
</symbol>
<symbol id="icon-triangle-danger" viewBox="0 0 32 32">
<title>triangle-danger</title>
<path d="M19.733 6.151l8.935 14.881c1.284 2.137 0.653 4.949-1.409 6.28-0.656 0.431-1.46 0.687-2.324 0.688h-17.871c-2.428 0-4.397-2.040-4.397-4.559 0-0.852 0.231-1.685 0.664-2.409l8.936-14.881c1.283-2.137 3.995-2.792 6.057-1.461 0.571 0.368 1.053 0.868 1.409 1.461zM16.773 7.269c-0.22-0.143-0.488-0.228-0.777-0.228-0.527 0-0.989 0.284-1.238 0.708l-0.004 0.007-8.935 14.884c-0.139 0.229-0.221 0.505-0.221 0.801 0 0.001 0 0.001 0 0.002v-0c0 0.84 0.656 1.52 1.467 1.52h17.868c0.275 0 0.543-0.080 0.775-0.229 0.42-0.282 0.693-0.756 0.693-1.293 0-0.296-0.083-0.572-0.226-0.807l0.004 0.007-8.935-14.884c-0.12-0.198-0.277-0.361-0.464-0.483l-0.006-0.003zM16 22.667c-0.736 0-1.333-0.597-1.333-1.333s0.597-1.333 1.333-1.333v0c0.736 0 1.333 0.597 1.333 1.333s-0.597 1.333-1.333 1.333v0zM16 10.667c0.736 0 1.333 0.597 1.333 1.333v0 5.333c0 0.736-0.597 1.333-1.333 1.333s-1.333-0.597-1.333-1.333v0-5.333c0-0.736 0.597-1.333 1.333-1.333v0z"></path>
</symbol>
<symbol id="icon-twitter" viewBox="0 0 32 32">
<title>twitter</title>
<path d="M29.333 7.876c-0.915 0.411-1.976 0.71-3.089 0.844l-0.053 0.005c1.127-0.67 1.977-1.706 2.394-2.94l0.011-0.038c-1.001 0.594-2.166 1.047-3.405 1.295l-0.071 0.012c-1.002-1.048-2.412-1.7-3.973-1.7-0.007 0-0.014 0-0.021 0h0.001c-3.021 0-5.471 2.413-5.471 5.387 0 0.421 0.048 0.833 0.141 1.227-4.542-0.223-8.546-2.354-11.254-5.603l-0.020-0.025c-0.464 0.77-0.739 1.701-0.739 2.695 0 0.004 0 0.008 0 0.012v-0.001c0 1.871 0.965 3.52 2.432 4.484-0.913-0.030-1.762-0.277-2.506-0.69l0.028 0.014v0.067c0 2.611 1.887 4.788 4.387 5.284-0.432 0.119-0.928 0.188-1.44 0.188h-0c-0.353 0-0.696-0.033-1.031-0.1 0.735 2.169 2.738 3.708 5.105 3.743l0.004 0c-1.85 1.436-4.205 2.303-6.763 2.303-0.011 0-0.021 0-0.032-0h0.002c-0.443 0-0.877-0.027-1.305-0.075 2.369 1.521 5.26 2.424 8.362 2.424 0.008 0 0.016 0 0.024-0h-0.001c10.063 0 15.564-8.209 15.564-15.328l-0.019-0.697c1.079-0.765 1.987-1.689 2.712-2.748l0.024-0.037z"></path>
</symbol>
<symbol id="icon-unsplash" viewBox="0 0 32 32">
<title>unsplash</title>
<path d="M20 17.8c0 2.315-1.833 4.115-4 4.115s-4-1.8-4-4.115c0-2.315 1.833-4.115 4-4.115 2.251 0.087 4 1.887 4 4.115zM29.333 11.457v12.771c0 1.972-1.584 3.687-3.584 3.687h-19.499c-2 0-3.584-1.629-3.584-3.688v-12.853c0-1.973 1.584-3.688 3.584-3.688h3.083l0.667-1.971c0.333-0.943 1.417-1.715 2.417-1.715h7.167c1 0 2.083 0.772 2.416 1.715l0.667 2.057h3.084c2 0 3.583 1.628 3.583 3.685zM22.167 17.885c0-3.513-2.751-6.428-6.251-6.428-3.416 0-6.249 2.915-6.249 6.428 0 3.515 2.751 6.429 6.251 6.429 3.468-0.077 6.25-2.906 6.25-6.385 0-0.016-0-0.031-0-0.047v0.002z"></path>
</symbol>
<symbol id="icon-whatsapp" viewBox="0 0 32 32">
<title>whatsapp</title>
<path d="M15.355 2.683c-7.080 0.333-12.665 6.187-12.644 13.223 0.004 2.175 0.538 4.224 1.481 6.025l-0.034-0.072-1.411 6.801c-0.007 0.031-0.010 0.066-0.010 0.102 0 0.285 0.231 0.516 0.516 0.516 0.043 0 0.085-0.005 0.124-0.015l-0.004 0.001 6.712-1.579c1.665 0.841 3.626 1.346 5.702 1.376l0.010 0c7.236 0.111 13.268-5.593 13.493-12.773 0.243-7.7-6.156-13.975-13.936-13.607zM23.364 23.172c-1.877 1.87-4.466 3.027-7.326 3.027-0.012 0-0.024-0-0.036-0h0.002c-0.009 0-0.021 0-0.032 0-1.676 0-3.259-0.398-4.66-1.105l0.059 0.027-0.935-0.463-4.116 0.968 0.867-4.175-0.461-0.896c-0.713-1.353-1.131-2.957-1.131-4.658 0-0.011 0-0.022 0-0.033v0.002c0-2.76 1.083-5.356 3.048-7.307 1.889-1.871 4.49-3.027 7.36-3.028h0c2.781 0 5.395 1.075 7.36 3.027 1.883 1.856 3.049 4.435 3.049 7.286 0 0.007 0 0.014-0 0.022v-0.001c0 2.736-1.1 5.373-3.049 7.308z"></path>
<path d="M22.456 18.727l-2.575-0.733c-0.080-0.024-0.171-0.037-0.266-0.037-0.268 0-0.51 0.109-0.685 0.285l-0 0-0.629 0.637c-0.171 0.173-0.408 0.28-0.671 0.28-0.126 0-0.246-0.025-0.355-0.069l0.006 0.002c-1.217-0.489-3.78-2.751-4.435-3.883-0.077-0.132-0.123-0.291-0.123-0.461 0-0.217 0.074-0.416 0.199-0.573l-0.001 0.002 0.549-0.707c0.125-0.159 0.201-0.362 0.201-0.583 0-0.139-0.030-0.272-0.084-0.391l0.002 0.006-1.083-2.432c-0.155-0.338-0.49-0.568-0.879-0.568-0.237 0-0.455 0.086-0.622 0.228l0.001-0.001c-0.719 0.604-1.572 1.52-1.675 2.537-0.183 1.791 0.591 4.048 3.516 6.76 3.38 3.132 6.088 3.547 7.849 3.121 1-0.24 1.8-1.204 2.303-1.992 0.095-0.145 0.151-0.323 0.151-0.514 0-0.434-0.291-0.8-0.688-0.914l-0.007-0.002z"></path>
</symbol>
</defs>
</svg>
