<!-- Generated by IcoMoon.io -->
<svg version="1.1" xmlns="http://www.w3.org/2000/svg" width="32" height="32" viewBox="0 0 32 32">
<title>arrow-left</title>
<path d="M11.219 16.876l5.267 5.267c0.223 0.238 0.361 0.559 0.361 0.912 0 0.736-0.597 1.333-1.333 1.333-0.353 0-0.675-0.138-0.913-0.362l0.001 0.001-7.543-7.541c-0.242-0.241-0.392-0.574-0.392-0.943s0.15-0.702 0.392-0.943l7.543-7.543c0.243-0.251 0.583-0.407 0.959-0.407 0.736 0 1.333 0.597 1.333 1.333 0 0.376-0.156 0.716-0.407 0.959l-5.267 5.267h12.781c0.736 0 1.333 0.597 1.333 1.333s-0.597 1.333-1.333 1.333v0h-12.781z"></path>
</svg>
