<!-- Generated by IcoMoon.io -->
<svg version="1.1" xmlns="http://www.w3.org/2000/svg" width="32" height="32" viewBox="0 0 32 32">
<title>calendar</title>
<path d="M26.667 13.333v-2.667c0-0.736-0.597-1.333-1.333-1.333v0h-1.333v1.333c0 0.736-0.597 1.333-1.333 1.333s-1.333-0.597-1.333-1.333v0-1.333h-10.667v1.333c0 0.736-0.597 1.333-1.333 1.333s-1.333-0.597-1.333-1.333v0-1.333h-1.333c-0.736 0-1.333 0.597-1.333 1.333v0 2.667h21.333zM26.667 16h-21.333v8c0 0.736 0.597 1.333 1.333 1.333v0h18.667c0.736 0 1.333-0.597 1.333-1.333v0-8zM24 6.667h1.333c2.209 0 4 1.791 4 4v0 13.333c0 2.209-1.791 4-4 4v0h-18.667c-2.209 0-4-1.791-4-4v0-13.333c0-2.209 1.791-4 4-4v0h1.333v-1.333c0-0.736 0.597-1.333 1.333-1.333s1.333 0.597 1.333 1.333v0 1.333h10.667v-1.333c0-0.736 0.597-1.333 1.333-1.333s1.333 0.597 1.333 1.333v0 1.333z"></path>
</svg>
