<!-- Generated by IcoMoon.io -->
<svg version="1.1" xmlns="http://www.w3.org/2000/svg" width="32" height="32" viewBox="0 0 32 32">
<title>card</title>
<path d="M5.333 7.333h21.333c1.473 0 2.667 1.108 2.667 2.476v12.381c0 1.368-1.193 2.476-2.667 2.476h-21.333c-1.473 0-2.667-1.108-2.667-2.476v-12.381c0-1.368 1.193-2.476 2.667-2.476zM17.333 11.333c-0.736 0-1.333 0.597-1.333 1.333s0.597 1.333 1.333 1.333v0h8c0.736 0 1.333-0.597 1.333-1.333s-0.597-1.333-1.333-1.333v0h-8zM17.333 15.333c-0.736 0-1.333 0.597-1.333 1.333s0.597 1.333 1.333 1.333v0h8c0.736 0 1.333-0.597 1.333-1.333s-0.597-1.333-1.333-1.333v0h-8zM6.667 11.333c-0.736 0-1.333 0.597-1.333 1.333v0 4c0 0.736 0.597 1.333 1.333 1.333v0h4c0.736 0 1.333-0.597 1.333-1.333v0-4c0-0.736-0.597-1.333-1.333-1.333v0h-4z"></path>
</svg>
