<!-- Generated by IcoMoon.io -->
<svg version="1.1" xmlns="http://www.w3.org/2000/svg" width="32" height="32" viewBox="0 0 32 32">
<title>chevron-square-up-f</title>
<path d="M16 14.896l4.715 4.713c0.24 0.232 0.566 0.374 0.926 0.374 0.736 0 1.333-0.597 1.333-1.333 0-0.36-0.143-0.687-0.375-0.927l-5.657-5.657c-0.241-0.241-0.575-0.39-0.943-0.39s-0.701 0.149-0.943 0.39l-5.657 5.657c-0.232 0.24-0.374 0.566-0.374 0.926 0 0.736 0.597 1.333 1.333 1.333 0.36 0 0.687-0.143 0.927-0.375l4.714-4.713zM8 2.667h16c2.946 0 5.333 2.388 5.333 5.333v0 16c0 2.946-2.388 5.333-5.333 5.333v0h-16c-2.946 0-5.333-2.388-5.333-5.333v0-16c0-2.946 2.388-5.333 5.333-5.333v0z"></path>
</svg>
