<!-- Generated by IcoMoon.io -->
<svg version="1.1" xmlns="http://www.w3.org/2000/svg" width="32" height="32" viewBox="0 0 32 32">
<title>close</title>
<path d="M17.752 15.867l4.713-4.715c0.251-0.243 0.407-0.583 0.407-0.959 0-0.736-0.597-1.333-1.333-1.333-0.376 0-0.716 0.156-0.959 0.407l-4.715 4.714-4.713-4.713c-0.243-0.251-0.583-0.407-0.959-0.407-0.736 0-1.333 0.597-1.333 1.333 0 0.376 0.156 0.716 0.407 0.959l4.714 4.714-4.713 4.715c-0.251 0.243-0.407 0.583-0.407 0.959 0 0.736 0.597 1.333 1.333 1.333 0.376 0 0.716-0.156 0.959-0.407l4.714-4.714 4.715 4.713c0.243 0.251 0.583 0.407 0.959 0.407 0.736 0 1.333-0.597 1.333-1.333 0-0.376-0.156-0.716-0.407-0.959l-4.714-4.715z"></path>
</svg>
