<!-- Generated by IcoMoon.io -->
<svg version="1.1" xmlns="http://www.w3.org/2000/svg" width="32" height="32" viewBox="0 0 32 32">
<title>codepen</title>
<path d="M20.12 16l-4.12 2.773v0.013l-4.12-2.787 4.12-2.773 4.12 2.773zM16 2.667c-0.213 0-0.427 0.080-0.627 0.2l-12.040 7.947c-0.307 0.147-0.547 0.427-0.667 0.747v8.333c0 0.547 0 0.547 0.2 0.813l12.507 8.44c0.187 0.133 0.413 0.187 0.627 0.187s0.44-0.067 0.627-0.2l12.507-8.467c0.2-0.227 0.2-0.227 0.2-0.773v-8.333c-0.12-0.333-0.36-0.6-0.667-0.76l-12.040-7.933c-0.2-0.133-0.413-0.2-0.627-0.2zM22.107 17.333l4.013 2.72-9.013 6.080v-5.427l5-3.373zM26.253 11.867l-4.147 2.8-5-3.373v-5.453l9.147 6.027zM27.107 13.96v4.080l-3.013-2.040 3.013-2.040zM9.893 17.333l5 3.387v5.413l-9.013-6.080 4.013-2.72zM5.747 11.867l9.147-6.013v5.48l-5 3.333-4.147-2.8zM4.893 14l3.013 2-3.013 2.053v-4.053z"></path>
</svg>
