<!-- Generated by IcoMoon.io -->
<svg version="1.1" xmlns="http://www.w3.org/2000/svg" width="32" height="32" viewBox="0 0 32 32">
<title>comment</title>
<path d="M11.971 22.625c0-0.016 0.001-0.031 0.003-0.046l-0 0.002-0.003 0.044zM11.972 22.403c0.004 0.014 0.005 0.015 0.005 0.017l-0.004-0.013v-0.004zM12.025 24.936c3.571-3.283 4.009-3.541 5.057-3.645 4.736-0.471 8.251-3.944 8.251-7.952 0-4.347-4.113-8.004-9.333-8.004s-9.333 3.659-9.333 8.004c0 2.524 1.567 5.023 4.072 6.609 1.044 0.66 1.277 1.489 1.255 2.371-0.002 0.075-0.007 0.145-0.013 0.213l0.001-0.013c0.029 0.44 0.043 1.227 0.044 2.419zM17.345 23.945c-0.247 0.024-2.167 1.701-5.76 5.032-0.237 0.22-0.556 0.356-0.907 0.356-0.736 0-1.333-0.597-1.333-1.333 0-0.004 0-0.008 0-0.012v0.001c0.027-3.149 0.015-4.945-0.032-5.387-0.024-0.231 0.043-0.373 0-0.4-3.036-1.919-5.313-5.168-5.313-8.861 0-5.895 5.373-10.673 12-10.673s12 4.779 12 10.672c0 5.489-4.66 10.012-10.653 10.607z"></path>
</svg>
