<!-- Generated by IcoMoon.io -->
<svg version="1.1" xmlns="http://www.w3.org/2000/svg" width="32" height="32" viewBox="0 0 32 32">
<title>download</title>
<path d="M17.333 15.521l1.495-1.493c0.24-0.232 0.567-0.375 0.927-0.375 0.736 0 1.333 0.597 1.333 1.333 0 0.36-0.142 0.686-0.374 0.926l0-0-3.772 3.772c-0.241 0.242-0.574 0.392-0.943 0.392s-0.702-0.15-0.943-0.392l-3.772-3.772c-0.241-0.241-0.39-0.575-0.39-0.943 0-0.737 0.597-1.334 1.334-1.334 0.369 0 0.703 0.15 0.944 0.391l1.493 1.495v-7.521c0-0.736 0.597-1.333 1.333-1.333s1.333 0.597 1.333 1.333v0 7.521zM8 22.667h16c0.736 0 1.333 0.597 1.333 1.333s-0.597 1.333-1.333 1.333v0h-16c-0.736 0-1.333-0.597-1.333-1.333s0.597-1.333 1.333-1.333v0z"></path>
</svg>
