<!-- Generated by IcoMoon.io -->
<svg version="1.1" xmlns="http://www.w3.org/2000/svg" width="32" height="32" viewBox="0 0 32 32">
<title>dribbble</title>
<path d="M21.893 24.56c-0.56-2.56-1.227-4.92-1.893-7 0.667-0.093 1.333-0.147 2.107-0.147h0.027c1.24 0 2.6 0.16 4.080 0.493-0.507 2.76-2.107 5.12-4.32 6.653zM16 26.4c-2.32 0-4.453-0.76-6.187-2.053 0.373-0.6 1.16-1.76 2.427-2.96 1.28-1.24 3.093-2.52 5.4-3.28 0.787 2.227 1.507 4.76 2.053 7.613-1.147 0.44-2.36 0.68-3.693 0.68zM5.6 16c0-0.053 0-0.093 0-0.147 0.293 0.013 0.68 0.013 1.133 0.013h0.013c2.080-0.013 5.733-0.187 9.44-1.347 0.2 0.44 0.4 0.893 0.6 1.373-2.48 0.827-4.427 2.147-5.867 3.44-1.373 1.28-2.32 2.52-2.867 3.333-1.52-1.787-2.453-4.12-2.453-6.667zM11.4 6.667c0.733 0.867 2.173 2.747 3.72 5.667-3.12 0.947-6.307 1.16-8.213 1.16-0.053 0-0.107 0-0.16 0h-0.013c-0.32 0-0.6 0-0.827-0.013 0.76-2.987 2.76-5.48 5.493-6.813zM16 5.6c2.453 0 4.707 0.853 6.48 2.28-1.36 1.64-3.147 2.787-5.107 3.653-1.373-2.64-2.707-4.533-3.587-5.693 0.72-0.147 1.453-0.24 2.213-0.24zM24.173 9.573c1.293 1.653 2.107 3.707 2.213 5.933-1.507-0.32-2.92-0.467-4.253-0.467v0h-0.013c-1.067 0-2.067 0.093-3.013 0.253-0.227-0.56-0.44-1.093-0.693-1.613 2.107-0.92 4.12-2.24 5.76-4.107zM16 2.667c-7.36 0-13.333 5.973-13.333 13.333s5.973 13.333 13.333 13.333c7.36 0 13.333-5.973 13.333-13.333s-5.973-13.333-13.333-13.333z"></path>
</svg>
