<!-- Generated by IcoMoon.io -->
<svg version="1.1" xmlns="http://www.w3.org/2000/svg" width="32" height="32" viewBox="0 0 32 32">
<title>github</title>
<path d="M27.173 11.373c0.213-0.533 0.907-2.653-0.227-5.52 0 0-1.747-0.52-5.733 2.147-1.667-0.44-3.44-0.507-5.213-0.507-1.76 0-3.547 0.067-5.213 0.507-3.987-2.707-5.733-2.147-5.733-2.147-1.133 2.867-0.44 4.987-0.213 5.52-1.36 1.453-2.173 3.293-2.173 5.587 0 8.587 5.547 10.52 13.333 10.52 7.72 0 13.333-1.933 13.333-10.52 0-2.293-0.813-4.133-2.16-5.587zM16 25.84c-5.493 0-9.96-0.253-9.96-5.587 0-1.267 0.627-2.467 1.693-3.44 1.787-1.64 4.84-0.773 8.267-0.773 3.453 0 6.467-0.867 8.267 0.773 1.067 0.973 1.733 2.16 1.733 3.44 0 5.32-4.493 5.587-10 5.587zM11.813 17.493c-1.093 0-2 1.333-2 2.96 0 1.64 0.907 2.987 2 2.987 1.107 0 2-1.333 2-2.987 0-1.64-0.893-2.96-2-2.96zM20.187 17.493c-1.107 0-2 1.32-2 2.96 0 1.653 0.893 2.987 2 2.987 1.093 0 2-1.333 2-2.987 0-1.64-0.853-2.96-2-2.96z"></path>
</svg>
