<!-- Generated by IcoMoon.io -->
<svg version="1.1" xmlns="http://www.w3.org/2000/svg" width="32" height="32" viewBox="0 0 32 32">
<title>link</title>
<path d="M8.253 16.46c0.234-0.233 0.557-0.378 0.913-0.378s0.679 0.144 0.913 0.378l-0-0c0.233 0.233 0.378 0.555 0.378 0.911s-0.144 0.678-0.378 0.911l-2.74 2.736c-0.467 0.466-0.756 1.111-0.756 1.823s0.289 1.357 0.756 1.823l0 0c0.468 0.467 1.114 0.755 1.827 0.755s1.359-0.289 1.827-0.755l-0 0 6.392-6.383c0.233-0.233 0.378-0.555 0.378-0.911s-0.144-0.678-0.378-0.911v0c-0.234-0.233-0.378-0.556-0.378-0.912s0.145-0.679 0.378-0.912l0-0c0.234-0.233 0.557-0.378 0.913-0.378s0.679 0.144 0.913 0.378l-0-0c0.701 0.7 1.135 1.667 1.135 2.735s-0.434 2.036-1.135 2.735l-6.393 6.383c-0.936 0.934-2.227 1.511-3.653 1.511s-2.718-0.577-3.653-1.511l0 0c-0.934-0.933-1.513-2.222-1.513-3.647s0.578-2.714 1.513-3.647l2.741-2.737zM23.747 15.54c-0.234 0.233-0.557 0.378-0.913 0.378s-0.679-0.144-0.913-0.378l0 0c-0.233-0.233-0.378-0.555-0.378-0.911s0.144-0.678 0.378-0.911l2.74-2.736c0.467-0.466 0.756-1.111 0.756-1.823s-0.289-1.357-0.756-1.823l-0-0c-0.468-0.467-1.114-0.755-1.827-0.755s-1.359 0.289-1.827 0.755l0-0-6.391 6.383c-0.233 0.233-0.378 0.555-0.378 0.911s0.144 0.678 0.378 0.911v0c0.234 0.233 0.379 0.556 0.379 0.912s-0.145 0.679-0.378 0.912l-0 0c-0.234 0.233-0.557 0.378-0.913 0.378s-0.679-0.144-0.913-0.378l0 0c-0.701-0.7-1.135-1.667-1.135-2.735s0.434-2.036 1.135-2.735l6.393-6.383c0.936-0.934 2.227-1.511 3.653-1.511s2.718 0.577 3.653 1.511l-0-0c0.934 0.933 1.513 2.222 1.513 3.647s-0.578 2.714-1.513 3.647l-2.743 2.737z"></path>
</svg>
