<!-- Generated by IcoMoon.io -->
<svg version="1.1" xmlns="http://www.w3.org/2000/svg" width="32" height="32" viewBox="0 0 32 32">
<title>moon</title>
<path d="M8 16c0 5.907 4.637 10.667 10.323 10.667 0.877 0 1.736-0.113 2.563-0.331-3.995-2.933-6.528-7.715-6.528-13.003 0-2.787 0.703-5.46 1.985-7.804-4.744 0.955-8.343 5.267-8.343 10.471zM17.024 13.333c0 6.176 4.091 11.371 9.643 12.887-2.222 1.934-5.145 3.113-8.344 3.113h-0c-7.173 0-12.989-5.969-12.989-13.333s5.816-13.333 12.989-13.333c1.157 0 2.28 0.156 3.348 0.447-2.853 2.48-4.647 6.114-4.647 10.168 0 0.018 0 0.037 0 0.055v-0.003z"></path>
</svg>
