<!-- Generated by IcoMoon.io -->
<svg version="1.1" xmlns="http://www.w3.org/2000/svg" width="32" height="32" viewBox="0 0 32 32">
<title>paypal</title>
<path d="M11.093 29.293c-0.147-0.067-0.32-0.28-0.347-0.427-0.040-0.2-0.080 0.147 0.8-5.453 0.8-5.067 0.787-4.987 0.893-5.133 0.173-0.227 0.147-0.227 2.147-0.24 1.76-0.040 2.133-0.040 2.92-0.16 4.333-0.6 7.013-3.147 7.947-7.547 0.053-0.293 0.107-0.547 0.12-0.547 0-0.013 0.093 0.053 0.2 0.133 1.373 1.040 1.84 2.96 1.32 5.52-0.613 3.053-2.24 5.080-4.773 5.947-1.080 0.373-1.987 0.52-3.587 0.56-1.067 0.053-1.093 0.053-1.4 0.253-0.227 0.227-0.213 0.187-0.733 3.4-0.36 2.267-0.493 3-0.547 3.133-0.093 0.213-0.28 0.4-0.493 0.507l-0.147 0.093h-2.080c-1.72 0-2.16 0-2.24-0.040v0zM5.093 26.32c-0.253-0.133-0.427-0.36-0.427-0.627 0-0.36 3.48-22.12 3.573-22.36 0.12-0.24 0.427-0.493 0.667-0.587l0.2-0.080h4.707c5.213 0 5.013 0 6.187 0.267 3.493 0.733 5.093 3.067 4.493 6.573-0.667 3.907-2.64 6.227-6 7.067-1.16 0.28-1.973 0.36-4.187 0.36-1.747 0-1.88 0.013-2.227 0.2-0.347 0.2-0.627 0.56-0.747 1-0.053 0.093-0.36 1.96-0.707 4.133s-0.627 3.987-0.627 4.027l-0.040 0.080h-2.373c-2.107 0-2.4 0-2.493-0.053v0z"></path>
</svg>
