<!-- Generated by IcoMoon.io -->
<svg version="1.1" xmlns="http://www.w3.org/2000/svg" width="32" height="32" viewBox="0 0 32 32">
<title>power</title>
<path d="M20 8.8c-0.483-0.194-0.818-0.656-0.823-1.197v-0.001c0-0.715 0.597-1.296 1.333-1.296 0.155 0 0.304 0.027 0.443 0.073 0.001-0.004 0.003-0.005 0.005-0.004 4.153 1.835 7.041 5.901 7.041 10.627 0 6.44-5.373 11.664-12 11.664s-12-5.223-12-11.665c0-4.692 2.849-8.735 6.957-10.588 0.152-0.064 0.33-0.101 0.516-0.101 0.002 0 0.005 0 0.007 0h-0c0.736 0 1.333 0.58 1.333 1.295-0.003 0.539-0.335 0.999-0.805 1.192l-0.009 0.003c-3.153 1.456-5.333 4.581-5.333 8.2 0 5.011 4.179 9.073 9.333 9.073s9.333-4.063 9.333-9.073c0-3.619-2.18-6.744-5.333-8.2zM16 3.333c0.736 0 1.333 0.597 1.333 1.333v0 8c0 0.736-0.597 1.333-1.333 1.333s-1.333-0.597-1.333-1.333v0-8c0-0.736 0.597-1.333 1.333-1.333v0z"></path>
</svg>
