<!-- Generated by IcoMoon.io -->
<svg version="1.1" xmlns="http://www.w3.org/2000/svg" width="32" height="32" viewBox="0 0 32 32">
<title>rss-feed</title>
<path d="M7.995 26.627c-1.47 0-2.661-1.192-2.661-2.661s1.192-2.661 2.661-2.661v0c1.47 0 2.661 1.192 2.661 2.661s-1.192 2.661-2.661 2.661v0zM6.827 15.969c-0.039 0.004-0.085 0.006-0.131 0.006-0.735 0-1.331-0.596-1.331-1.331 0-0.665 0.488-1.216 1.125-1.315l0.007-0.001c0.402-0.053 0.868-0.083 1.34-0.083 5.967 0 10.804 4.837 10.804 10.803v1.247c0 0.735-0.596 1.331-1.331 1.331s-1.331-0.596-1.331-1.331v0-1.245c-0.001-4.497-3.647-8.143-8.144-8.143-0.356 0-0.706 0.023-1.050 0.067l0.041-0.004zM5.333 6.753c-0.002-0.027-0.003-0.058-0.003-0.090 0-0.704 0.547-1.28 1.239-1.328l0.004-0c10.383-0.692 19.357 7.163 20.049 17.544 0.056 0.835 0.056 1.672 0 2.507-0.048 0.696-0.624 1.242-1.328 1.242-0.735 0-1.331-0.596-1.331-1.331 0-0.031 0.001-0.062 0.003-0.093l-0 0.004c0.048-0.717 0.048-1.436 0-2.152-0.593-8.915-8.3-15.66-17.213-15.065-0.028 0.002-0.060 0.003-0.092 0.003-0.704 0-1.281-0.547-1.328-1.239l-0-0.004z"></path>
</svg>
