<!-- Generated by IcoMoon.io -->
<svg version="1.1" xmlns="http://www.w3.org/2000/svg" width="32" height="32" viewBox="0 0 32 32">
<title>search</title>
<path d="M14 22c4.418 0 8-3.582 8-8s-3.582-8-8-8v0c-4.418 0-8 3.582-8 8s3.582 8 8 8v0zM22.427 20.541l4.773 4.773c0.251 0.243 0.406 0.582 0.406 0.958 0 0.736-0.597 1.333-1.333 1.333-0.377 0-0.717-0.156-0.959-0.407l-0-0-4.773-4.773c-1.787 1.397-4.065 2.241-6.541 2.241-5.891 0-10.667-4.776-10.667-10.667s4.776-10.667 10.667-10.667c5.891 0 10.667 4.776 10.667 10.667 0 2.476-0.843 4.754-2.258 6.564l0.018-0.024z"></path>
</svg>
