<!-- Generated by IcoMoon.io -->
<svg version="1.1" xmlns="http://www.w3.org/2000/svg" width="32" height="32" viewBox="0 0 32 32">
<title>share</title>
<path d="M17.333 11.219v7.523c0 0.736-0.597 1.333-1.333 1.333s-1.333-0.597-1.333-1.333v0-7.523l-1.495 1.496c-0.241 0.241-0.575 0.391-0.943 0.391-0.737 0-1.335-0.598-1.335-1.335 0-0.369 0.149-0.702 0.391-0.944l3.772-3.769c0.241-0.242 0.574-0.392 0.943-0.392s0.702 0.15 0.943 0.392l3.772 3.771c0.241 0.241 0.391 0.575 0.391 0.943 0 0.737-0.598 1.335-1.335 1.335-0.369 0-0.702-0.149-0.944-0.391v0l-1.493-1.496zM10.667 14.667c0.736 0 1.333 0.597 1.333 1.333s-0.597 1.333-1.333 1.333v0h-1.333v5.333h13.333v-5.333h-1.333c-0.736 0-1.333-0.597-1.333-1.333s0.597-1.333 1.333-1.333v0h1.333c1.473 0 2.667 1.194 2.667 2.667v0 5.333c0 1.473-1.194 2.667-2.667 2.667v0h-13.333c-1.473 0-2.667-1.194-2.667-2.667v0-5.333c0-1.473 1.194-2.667 2.667-2.667v0h1.333z"></path>
</svg>
