<!-- Generated by IcoMoon.io -->
<svg version="1.1" xmlns="http://www.w3.org/2000/svg" width="32" height="32" viewBox="0 0 32 32">
<title>skype</title>
<path d="M28.168 17.9c0.096-0.579 0.151-1.246 0.151-1.926 0-6.819-5.528-12.347-12.347-12.347-0.68 0-1.348 0.055-1.998 0.161l0.071-0.010c-1.114-0.698-2.468-1.112-3.918-1.112-4.121 0-7.461 3.341-7.461 7.461 0 1.45 0.414 2.804 1.13 3.95l-0.018-0.031c-0.096 0.58-0.152 1.248-0.152 1.929 0 6.818 5.527 12.345 12.345 12.345 0.681 0 1.348-0.055 1.999-0.161l-0.071 0.010c1.139 0.7 2.48 1.108 3.919 1.108 0 0 0 0 0 0 4.121 0 7.461-3.341 7.461-7.461 0-1.45-0.414-2.803-1.129-3.949l0.018 0.031zM21.835 21.588c-0.523 0.752-1.289 1.339-2.293 1.761-1.004 0.424-2.191 0.635-3.563 0.635-1.643 0-3.004-0.288-4.077-0.868-0.754-0.411-1.377-0.974-1.846-1.652l-0.012-0.018c-0.476-0.696-0.719-1.379-0.719-2.043 0-0.392 0.149-0.733 0.44-1.012 0.295-0.28 0.673-0.42 1.12-0.42 0.367 0 0.681 0.111 0.939 0.329 0.253 0.219 0.467 0.536 0.641 0.955 0.209 0.487 0.436 0.893 0.677 1.216 0.24 0.32 0.579 0.587 1.016 0.796 0.433 0.209 1.009 0.315 1.729 0.315 0.987 0 1.784-0.213 2.395-0.635 0.613-0.424 0.907-0.941 0.907-1.565 0-0.499-0.157-0.893-0.484-1.203-0.328-0.312-0.752-0.551-1.28-0.716-0.528-0.168-1.237-0.347-2.128-0.533-1.195-0.261-2.193-0.564-3.003-0.913s-1.455-0.827-1.933-1.432c-0.48-0.609-0.719-1.368-0.719-2.267 0-0.856 0.253-1.621 0.757-2.288 0.505-0.668 1.236-1.18 2.187-1.536 0.949-0.356 2.067-0.533 3.347-0.533 1.024 0 1.909 0.117 2.659 0.353 0.747 0.237 1.369 0.551 1.867 0.943 0.496 0.393 0.86 0.807 1.091 1.24 0.231 0.436 0.347 0.861 0.347 1.276 0 0.387-0.149 0.736-0.44 1.043-0.293 0.307-0.665 0.463-1.1 0.461-0.392 0-0.7-0.091-0.913-0.281-0.208-0.187-0.427-0.48-0.663-0.893-0.299-0.573-0.656-1.020-1.072-1.34-0.405-0.313-1.073-0.477-2.003-0.475-0.86 0-1.547 0.175-2.067 0.52-0.523 0.348-0.773 0.753-0.773 1.227 0 0.299 0.087 0.549 0.259 0.764 0.173 0.216 0.417 0.404 0.729 0.561 0.313 0.16 0.631 0.285 0.951 0.373 0.323 0.093 0.86 0.225 1.605 0.4 0.935 0.203 1.783 0.427 2.545 0.672 0.76 0.247 1.409 0.544 1.947 0.899 0.539 0.353 0.961 0.804 1.263 1.348 0.304 0.545 0.456 1.211 0.456 1.993 0 0.944-0.261 1.792-0.787 2.543z"></path>
</svg>
