<!-- Generated by IcoMoon.io -->
<svg version="1.1" xmlns="http://www.w3.org/2000/svg" width="32" height="32" viewBox="0 0 32 32">
<title>switch-right-f</title>
<path d="M11.333 8h9.333c4.418 0 8 3.582 8 8s-3.582 8-8 8v0h-9.333c-4.418 0-8-3.582-8-8s3.582-8 8-8v0zM19.333 21.333c2.946 0 5.333-2.388 5.333-5.333s-2.388-5.333-5.333-5.333v0c-2.946 0-5.333 2.388-5.333 5.333s2.388 5.333 5.333 5.333v0zM19.333 18.667c-1.473 0-2.667-1.194-2.667-2.667s1.194-2.667 2.667-2.667v0c1.473 0 2.667 1.194 2.667 2.667s-1.194 2.667-2.667 2.667v0z"></path>
</svg>
