<!-- Generated by IcoMoon.io -->
<svg version="1.1" xmlns="http://www.w3.org/2000/svg" width="32" height="32" viewBox="0 0 32 32">
<title>tags</title>
<path d="M18.617 5.304l3.311 3.311c0.483 0.483 0.781 1.149 0.781 1.886 0 0.279-0.043 0.547-0.122 0.8l0.005-0.019-1.645 5.372-10.573 10.573-10.373-10.371 10.532-10.532 5.408-1.68c0.237-0.076 0.509-0.12 0.792-0.12 0.736 0 1.402 0.298 1.885 0.78v0zM13.671 13.557c0.362 0.362 0.862 0.585 1.414 0.585 1.105 0 2-0.896 2-2 0-0.553-0.224-1.053-0.586-1.415v0c-0.359-0.347-0.849-0.561-1.389-0.561-1.105 0-2 0.895-2 2 0 0.54 0.214 1.030 0.562 1.39l-0.001-0.001zM23.3 14.953c0.723 0.029 1.247-0.093 1.571-0.364 0.438-0.369 0.714-0.918 0.714-1.532 0-0.491-0.177-0.94-0.47-1.288l0.002 0.003c-0.147-0.175-0.38-0.336-0.703-0.485 0.040-0.174 0.064-0.374 0.064-0.579 0-0.736-0.298-1.403-0.781-1.885l-2.297-2.296 3.025-0.941c0.237-0.076 0.509-0.12 0.791-0.12 0.737 0 1.403 0.299 1.886 0.781l3.311 3.311c0.483 0.483 0.781 1.149 0.781 1.886 0 0.279-0.043 0.547-0.122 0.8l0.005-0.019-1.647 5.371-10.573 10.575-3.727-3.725 7.584-7.584 0.585-1.907z"></path>
</svg>
