<!-- Generated by IcoMoon.io -->
<svg version="1.1" xmlns="http://www.w3.org/2000/svg" width="32" height="32" viewBox="0 0 32 32">
<title>terminal</title>
<path d="M12.324 16.095l-6.6-6.6c-0.251-0.243-0.407-0.583-0.407-0.959 0-0.736 0.597-1.333 1.333-1.333 0.376 0 0.716 0.156 0.959 0.407l7.543 7.543c0.241 0.241 0.39 0.575 0.39 0.943s-0.149 0.701-0.39 0.943l-7.543 7.543c-0.24 0.232-0.566 0.374-0.926 0.374-0.736 0-1.333-0.597-1.333-1.333 0-0.36 0.143-0.687 0.375-0.927l6.6-6.6zM14.572 22.667h10.667c0.736 0 1.333 0.597 1.333 1.333s-0.597 1.333-1.333 1.333v0h-10.667c-0.736 0-1.333-0.597-1.333-1.333s0.597-1.333 1.333-1.333v0z"></path>
</svg>
