<!-- Generated by IcoMoon.io -->
<svg version="1.1" xmlns="http://www.w3.org/2000/svg" width="32" height="32" viewBox="0 0 32 32">
<title>trello</title>
<path d="M26.083 2.667h-20.165c-0.001 0-0.003 0-0.004 0-1.792 0-3.244 1.451-3.247 3.242v20.116c0.002 1.791 1.455 3.243 3.247 3.243 0.001 0 0.003 0 0.004 0h20.165c0.001 0 0.003 0 0.004 0 1.792 0 3.244-1.451 3.247-3.242v-20.116c-0.002-1.791-1.455-3.243-3.247-3.243-0.001 0-0.003 0-0.004 0h0zM14.267 23.4c0 0 0 0 0 0 0 0.832-0.675 1.507-1.507 1.507-0.001 0-0.002 0-0.003 0h-5.115c-0.001 0-0.002 0-0.003 0-0.832 0-1.507-0.675-1.507-1.507 0 0 0 0 0 0v0-15.543c0-0.832 0.676-1.507 1.509-1.507h5.115c0.001 0 0.002 0 0.003 0 0.832 0 1.507 0.675 1.507 1.507 0 0 0 0 0 0v0 15.543zM25.867 16.713c0 0 0 0 0 0 0 0.832-0.675 1.507-1.507 1.507-0.001 0-0.002 0-0.003 0h-5.114c-0.001 0-0.002 0-0.003 0-0.832 0-1.507-0.675-1.507-1.507 0 0 0 0 0 0v0-8.856c0-0.832 0.676-1.507 1.509-1.507h5.115c0.001 0 0.002 0 0.003 0 0.832 0 1.507 0.675 1.507 1.507 0 0 0 0 0 0v0 8.856z"></path>
</svg>
