<!-- Generated by IcoMoon.io -->
<svg version="1.1" xmlns="http://www.w3.org/2000/svg" width="32" height="32" viewBox="0 0 32 32">
<title>triangle-danger</title>
<path d="M19.733 6.151l8.935 14.881c1.284 2.137 0.653 4.949-1.409 6.28-0.656 0.431-1.46 0.687-2.324 0.688h-17.871c-2.428 0-4.397-2.040-4.397-4.559 0-0.852 0.231-1.685 0.664-2.409l8.936-14.881c1.283-2.137 3.995-2.792 6.057-1.461 0.571 0.368 1.053 0.868 1.409 1.461zM16.773 7.269c-0.22-0.143-0.488-0.228-0.777-0.228-0.527 0-0.989 0.284-1.238 0.708l-0.004 0.007-8.935 14.884c-0.139 0.229-0.221 0.505-0.221 0.801 0 0.001 0 0.001 0 0.002v-0c0 0.84 0.656 1.52 1.467 1.52h17.868c0.275 0 0.543-0.080 0.775-0.229 0.42-0.282 0.693-0.756 0.693-1.293 0-0.296-0.083-0.572-0.226-0.807l0.004 0.007-8.935-14.884c-0.12-0.198-0.277-0.361-0.464-0.483l-0.006-0.003zM16 22.667c-0.736 0-1.333-0.597-1.333-1.333s0.597-1.333 1.333-1.333v0c0.736 0 1.333 0.597 1.333 1.333s-0.597 1.333-1.333 1.333v0zM16 10.667c0.736 0 1.333 0.597 1.333 1.333v0 5.333c0 0.736-0.597 1.333-1.333 1.333s-1.333-0.597-1.333-1.333v0-5.333c0-0.736 0.597-1.333 1.333-1.333v0z"></path>
</svg>
