<!-- Generated by IcoMoon.io -->
<svg version="1.1" xmlns="http://www.w3.org/2000/svg" width="32" height="32" viewBox="0 0 32 32">
<title>unsplash</title>
<path d="M20 17.8c0 2.315-1.833 4.115-4 4.115s-4-1.8-4-4.115c0-2.315 1.833-4.115 4-4.115 2.251 0.087 4 1.887 4 4.115zM29.333 11.457v12.771c0 1.972-1.584 3.687-3.584 3.687h-19.499c-2 0-3.584-1.629-3.584-3.688v-12.853c0-1.973 1.584-3.688 3.584-3.688h3.083l0.667-1.971c0.333-0.943 1.417-1.715 2.417-1.715h7.167c1 0 2.083 0.772 2.416 1.715l0.667 2.057h3.084c2 0 3.583 1.628 3.583 3.685zM22.167 17.885c0-3.513-2.751-6.428-6.251-6.428-3.416 0-6.249 2.915-6.249 6.428 0 3.515 2.751 6.429 6.251 6.429 3.468-0.077 6.25-2.906 6.25-6.385 0-0.016-0-0.031-0-0.047v0.002z"></path>
</svg>
